<?xml version="1.0" encoding="utf-8"?>
<!-- Generator: Adobe Illustrator 19.1.0, SVG Export Plug-In . SVG Version: 6.00 Build 0)  -->
<svg version="1.1" baseProfile="tiny" xmlns="http://www.w3.org/2000/svg" xmlns:xlink="http://www.w3.org/1999/xlink" x="0px"
	 y="0px" viewBox="0 0 131.1 156.4" xml:space="preserve">
<g id="houses" display="none">
	<path display="inline" fill="#696A6C" d="M724.3,162.7H-11v-472.5h735.3V162.7z M-7.6,159.3h728.5v-465.7H-7.6V159.3z"/>
	<rect x="-0.9" y="-1.9" display="inline" fill="#696A6C" width="3.4" height="150.2"/>
	<polygon display="inline" fill="#696A6C" points="-6.1,160.1 -9.1,158.6 -0.7,147.5 2.3,149 	"/>
	<rect x="0.8" y="146.6" display="inline" fill="#696A6C" width="169.7" height="3.4"/>
</g>
<g id="Слой_3" display="none">
	<g display="inline">
		<g>
			<rect x="39.6" y="58.8" fill="#696A6C" width="89.8" height="61.8"/>
			<path fill="#FFFFFF" d="M131.1,122.3H37.9V57.1h93.2V122.3z M41.3,118.9h86.4V60.5H41.3V118.9z"/>
		</g>
		<g>
			<rect x="6.5" y="1.7" fill="#FFFFFF" width="34.4" height="50.1"/>
			<path fill="#696A6C" d="M42.7,53.5H4.8V0h37.8V53.5z M8.2,50.1h31V3.4h-31V50.1z"/>
		</g>
		<rect x="34.5" y="1.7" fill="#696A6C" width="3.4" height="50.1"/>
		<path fill="#696A6C" d="M27.7,28.3H15c-2.4,0-4.4-2-4.4-4.4V12c0-2.4,2-4.4,4.4-4.4h12.7c2.4,0,4.4,2,4.4,4.4v12
			C32.1,26.4,30.2,28.3,27.7,28.3z M15,9.5c-1.4,0-2.5,1.1-2.5,2.5v12c0,1.4,1.1,2.5,2.5,2.5h12.7c1.4,0,2.5-1.1,2.5-2.5V12
			c0-1.4-1.1-2.5-2.5-2.5H15z"/>
		<path fill="#696A6C" d="M25.8,24.5h-8.9c-1.3,0-2.4-1.1-2.4-2.4v-8.3c0-1.3,1.1-2.4,2.4-2.4h8.9c1.3,0,2.4,1.1,2.4,2.4v8.3
			C28.2,23.5,27.1,24.5,25.8,24.5z"/>
		<path fill="#FFFFFF" d="M124.1,68.7c-3.2,0-6.5-0.9-6.6-2.8h0h0h0c-0.2-0.2-1.8-1-4.7-1c-2.9,0-4.5,0.7-4.7,1.1
			c-0.2,1.9-3.4,2.7-6.6,2.7c-3.2,0-6.5-0.9-6.6-2.8h0h0h0c-0.2-0.2-1.8-1-4.7-1c-2.9,0-4.5,0.7-4.7,1.1c-0.2,1.9-3.4,2.7-6.6,2.7
			c-3.2,0-6.5-0.9-6.6-2.8h0h0h0c-0.2-0.2-1.8-1-4.7-1c-2.9,0-4.5,0.7-4.7,1.1c-0.2,1.9-3.4,2.7-6.6,2.7c-3.2,0-6.5-0.9-6.6-2.8h0h0
			h0c-0.2-0.2-1.8-1-4.7-1c-2.9,0-4.6,0.8-4.7,1.1l-1.9-0.1c0-2,3.3-2.9,6.6-2.9c3.2,0,6.5,0.9,6.6,2.8h0h0h0c0.2,0.2,1.8,1,4.7,1
			c2.9,0,4.5-0.7,4.7-1.1c0.2-1.9,3.4-2.7,6.6-2.7c3.2,0,6.5,0.9,6.6,2.8h0h0h0c0.2,0.2,1.8,1,4.7,1c2.9,0,4.5-0.7,4.7-1.1
			c0.2-1.9,3.4-2.7,6.6-2.7c3.2,0,6.5,0.9,6.6,2.8h0h0h0c0.2,0.2,1.8,1,4.7,1c2.9,0,4.5-0.7,4.7-1.1c0.2-1.9,3.4-2.7,6.6-2.7
			c3.2,0,6.5,0.9,6.6,2.8h0h0h0c0.2,0.2,1.8,1,4.7,1c2.9,0,4.6-0.8,4.7-1.1l1.9,0.1C130.7,67.8,127.4,68.7,124.1,68.7z"/>
		<path fill="#FFFFFF" d="M124.1,74.6c-3.2,0-6.5-0.9-6.6-2.8h0h0h0c-0.2-0.2-1.8-1-4.7-1c-2.9,0-4.5,0.7-4.7,1.1
			c-0.2,1.9-3.4,2.7-6.6,2.7c-3.2,0-6.5-0.9-6.6-2.8h0h0h0c-0.2-0.2-1.8-1-4.7-1c-2.9,0-4.5,0.7-4.7,1.1c-0.2,1.9-3.4,2.7-6.6,2.7
			c-3.2,0-6.5-0.9-6.6-2.8h0h0h0c-0.2-0.2-1.8-1-4.7-1c-2.9,0-4.5,0.7-4.7,1.1c-0.2,1.9-3.4,2.7-6.6,2.7c-3.2,0-6.5-0.9-6.6-2.8h0h0
			h0c-0.2-0.2-1.8-1-4.7-1c-2.9,0-4.6,0.8-4.7,1.1l-1.9-0.1c0-2,3.3-2.9,6.6-2.9c3.2,0,6.5,0.9,6.6,2.8h0h0h0c0.2,0.2,1.8,1,4.7,1
			c2.9,0,4.5-0.7,4.7-1.1c0.2-1.9,3.4-2.7,6.6-2.7c3.2,0,6.5,0.9,6.6,2.8h0h0h0c0.2,0.2,1.8,1,4.7,1c2.9,0,4.5-0.7,4.7-1.1
			c0.2-1.9,3.4-2.7,6.6-2.7c3.2,0,6.5,0.9,6.6,2.8h0h0h0c0.2,0.2,1.8,1,4.7,1c2.9,0,4.5-0.7,4.7-1.1c0.2-1.9,3.4-2.7,6.6-2.7
			c3.2,0,6.5,0.9,6.6,2.8h0h0h0c0.2,0.2,1.8,1,4.7,1c2.9,0,4.6-0.8,4.7-1.1l1.9,0.1C130.7,73.8,127.4,74.6,124.1,74.6z"/>
		<path fill="#FFFFFF" d="M124.1,80.6c-3.2,0-6.5-0.9-6.6-2.8h0h0h0c-0.2-0.2-1.8-1-4.7-1c-2.9,0-4.5,0.7-4.7,1.1
			c-0.2,1.9-3.4,2.7-6.6,2.7c-3.2,0-6.5-0.9-6.6-2.8h0h0h0c-0.2-0.2-1.8-1-4.7-1c-2.9,0-4.5,0.7-4.7,1.1c-0.2,1.9-3.4,2.7-6.6,2.7
			c-3.2,0-6.5-0.9-6.6-2.8h0h0h0c-0.2-0.2-1.8-1-4.7-1c-2.9,0-4.5,0.7-4.7,1.1c-0.2,1.9-3.4,2.7-6.6,2.7c-3.2,0-6.5-0.9-6.6-2.8h0h0
			h0c-0.2-0.2-1.8-1-4.7-1c-2.9,0-4.6,0.8-4.7,1.1l-1.9-0.1c0-2,3.3-2.9,6.6-2.9c3.2,0,6.5,0.9,6.6,2.8h0h0h0c0.2,0.2,1.8,1,4.7,1
			c2.9,0,4.5-0.7,4.7-1.1c0.2-1.9,3.4-2.7,6.6-2.7c3.2,0,6.5,0.9,6.6,2.8h0h0h0c0.2,0.2,1.8,1,4.7,1c2.9,0,4.5-0.7,4.7-1.1
			c0.2-1.9,3.4-2.7,6.6-2.7c3.2,0,6.5,0.9,6.6,2.8h0h0h0c0.2,0.2,1.8,1,4.7,1c2.9,0,4.5-0.7,4.7-1.1c0.2-1.9,3.4-2.7,6.6-2.7
			c3.2,0,6.5,0.9,6.6,2.8h0h0h0c0.2,0.2,1.8,1,4.7,1c2.9,0,4.6-0.8,4.7-1.1l1.9,0.1C130.7,79.7,127.4,80.6,124.1,80.6z"/>
		<path fill="#FFFFFF" d="M124.1,86.6c-3.2,0-6.5-0.9-6.6-2.8h0h0h0c-0.2-0.2-1.8-1-4.7-1c-2.9,0-4.5,0.7-4.7,1.1
			c-0.2,1.9-3.4,2.7-6.6,2.7c-3.2,0-6.5-0.9-6.6-2.8h0h0h0c-0.2-0.2-1.8-1-4.7-1c-2.9,0-4.5,0.7-4.7,1.1c-0.2,1.9-3.4,2.7-6.6,2.7
			c-3.2,0-6.5-0.9-6.6-2.8h0h0h0c-0.2-0.2-1.8-1-4.7-1c-2.9,0-4.5,0.7-4.7,1.1c-0.2,1.9-3.4,2.7-6.6,2.7c-3.2,0-6.5-0.9-6.6-2.8h0h0
			h0c-0.2-0.2-1.8-1-4.7-1c-2.9,0-4.6,0.8-4.7,1.1l-1.9-0.1c0-2,3.3-2.9,6.6-2.9c3.2,0,6.5,0.9,6.6,2.8h0h0h0c0.2,0.2,1.8,1,4.7,1
			c2.9,0,4.5-0.7,4.7-1.1c0.2-1.9,3.4-2.7,6.6-2.7c3.2,0,6.5,0.9,6.6,2.8h0h0h0c0.2,0.2,1.8,1,4.7,1c2.9,0,4.5-0.7,4.7-1.1
			c0.2-1.9,3.4-2.7,6.6-2.7c3.2,0,6.5,0.9,6.6,2.8h0h0h0c0.2,0.2,1.8,1,4.7,1c2.9,0,4.5-0.7,4.7-1.1c0.2-1.9,3.4-2.7,6.6-2.7
			c3.2,0,6.5,0.9,6.6,2.8h0h0h0c0.2,0.2,1.8,1,4.7,1c2.9,0,4.6-0.8,4.7-1.1l1.9,0.1C130.7,85.7,127.4,86.6,124.1,86.6z"/>
		<path fill="#FFFFFF" d="M124.1,92.5c-3.2,0-6.5-0.9-6.6-2.8h0h0h0c-0.2-0.2-1.8-1-4.7-1c-2.9,0-4.5,0.7-4.7,1.1
			c-0.2,1.9-3.4,2.7-6.6,2.7c-3.2,0-6.5-0.9-6.6-2.8h0h0h0c-0.2-0.2-1.8-1-4.7-1c-2.9,0-4.5,0.7-4.7,1.1c-0.2,1.9-3.4,2.7-6.6,2.7
			c-3.2,0-6.5-0.9-6.6-2.8h0h0h0c-0.2-0.2-1.8-1-4.7-1c-2.9,0-4.5,0.7-4.7,1.1c-0.2,1.9-3.4,2.7-6.6,2.7c-3.2,0-6.5-0.9-6.6-2.8h0h0
			h0c-0.2-0.2-1.8-1-4.7-1c-2.9,0-4.6,0.8-4.7,1.1l-1.9-0.1c0-2,3.3-2.9,6.6-2.9c3.2,0,6.5,0.9,6.6,2.8h0h0h0c0.2,0.2,1.8,1,4.7,1
			c2.9,0,4.5-0.7,4.7-1.1c0.2-1.9,3.4-2.7,6.6-2.7c3.2,0,6.5,0.9,6.6,2.8h0h0h0c0.2,0.2,1.8,1,4.7,1c2.9,0,4.5-0.7,4.7-1.1
			c0.2-1.9,3.4-2.7,6.6-2.7c3.2,0,6.5,0.9,6.6,2.8h0h0h0c0.2,0.2,1.8,1,4.7,1c2.9,0,4.5-0.7,4.7-1.1c0.2-1.9,3.4-2.7,6.6-2.7
			c3.2,0,6.5,0.9,6.6,2.8h0h0h0c0.2,0.2,1.8,1,4.7,1c2.9,0,4.6-0.8,4.7-1.1l1.9,0.1C130.7,91.6,127.4,92.5,124.1,92.5z"/>
		<path fill="#FFFFFF" d="M124.1,98.5c-3.2,0-6.5-0.9-6.6-2.8h0h0h0c-0.2-0.2-1.8-1-4.7-1c-2.9,0-4.5,0.7-4.7,1.1
			c-0.2,1.9-3.4,2.7-6.6,2.7c-3.2,0-6.5-0.9-6.6-2.8h0h0h0c-0.2-0.2-1.8-1-4.7-1c-2.9,0-4.5,0.7-4.7,1.1c-0.2,1.9-3.4,2.7-6.6,2.7
			c-3.2,0-6.5-0.9-6.6-2.8h0h0h0c-0.2-0.2-1.8-1-4.7-1c-2.9,0-4.5,0.7-4.7,1.1c-0.2,1.9-3.4,2.7-6.6,2.7c-3.2,0-6.5-0.9-6.6-2.8h0h0
			h0c-0.2-0.2-1.8-1-4.7-1c-2.9,0-4.6,0.8-4.7,1.1l-1.9-0.1c0-2,3.3-2.9,6.6-2.9c3.2,0,6.5,0.9,6.6,2.8h0h0h0c0.2,0.2,1.8,1,4.7,1
			c2.9,0,4.5-0.7,4.7-1.1c0.2-1.9,3.4-2.7,6.6-2.7c3.2,0,6.5,0.9,6.6,2.8h0h0h0c0.2,0.2,1.8,1,4.7,1c2.9,0,4.5-0.7,4.7-1.1
			c0.2-1.9,3.4-2.7,6.6-2.7c3.2,0,6.5,0.9,6.6,2.8h0h0h0c0.2,0.2,1.8,1,4.7,1c2.9,0,4.5-0.7,4.7-1.1c0.2-1.9,3.4-2.7,6.6-2.7
			c3.2,0,6.5,0.9,6.6,2.8h0h0h0c0.2,0.2,1.8,1,4.7,1c2.9,0,4.6-0.8,4.7-1.1l1.9,0.1C130.7,97.6,127.4,98.5,124.1,98.5z"/>
		<path fill="#FFFFFF" d="M124.1,104.4c-3.2,0-6.5-0.9-6.6-2.8h0h0h0c-0.2-0.2-1.8-1-4.7-1c-2.9,0-4.5,0.7-4.7,1.1
			c-0.2,1.9-3.4,2.7-6.6,2.7c-3.2,0-6.5-0.9-6.6-2.8h0h0h0c-0.2-0.2-1.8-1-4.7-1c-2.9,0-4.5,0.7-4.7,1.1c-0.2,1.9-3.4,2.7-6.6,2.7
			c-3.2,0-6.5-0.9-6.6-2.8h0h0h0c-0.2-0.2-1.8-1-4.7-1c-2.9,0-4.5,0.7-4.7,1.1c-0.2,1.9-3.4,2.7-6.6,2.7c-3.2,0-6.5-0.9-6.6-2.8h0h0
			h0c-0.2-0.2-1.8-1-4.7-1c-2.9,0-4.6,0.8-4.7,1.1l-1.9-0.1c0-2,3.3-2.9,6.6-2.9c3.2,0,6.5,0.9,6.6,2.8h0h0h0c0.2,0.2,1.8,1,4.7,1
			c2.9,0,4.5-0.7,4.7-1.1c0.2-1.9,3.4-2.7,6.6-2.7c3.2,0,6.5,0.9,6.6,2.8h0h0h0c0.2,0.2,1.8,1,4.7,1c2.9,0,4.5-0.7,4.7-1.1
			c0.2-1.9,3.4-2.7,6.6-2.7c3.2,0,6.5,0.9,6.6,2.8h0h0h0c0.2,0.2,1.8,1,4.7,1c2.9,0,4.5-0.7,4.7-1.1c0.2-1.9,3.4-2.7,6.6-2.7
			c3.2,0,6.5,0.9,6.6,2.8h0h0h0c0.2,0.2,1.8,1,4.7,1c2.9,0,4.6-0.8,4.7-1.1l1.9,0.1C130.7,103.5,127.4,104.4,124.1,104.4z"/>
		<path fill="#FFFFFF" d="M124.1,110.4c-3.2,0-6.5-0.9-6.6-2.8h0h0h0c-0.2-0.2-1.8-1-4.7-1c-2.9,0-4.5,0.7-4.7,1.1
			c-0.2,1.9-3.4,2.7-6.6,2.7c-3.2,0-6.5-0.9-6.6-2.8h0h0h0c-0.2-0.2-1.8-1-4.7-1c-2.9,0-4.5,0.7-4.7,1.1c-0.2,1.9-3.4,2.7-6.6,2.7
			c-3.2,0-6.5-0.9-6.6-2.8h0h0h0c-0.2-0.2-1.8-1-4.7-1c-2.9,0-4.5,0.7-4.7,1.1c-0.2,1.9-3.4,2.7-6.6,2.7c-3.2,0-6.5-0.9-6.6-2.8h0h0
			h0c-0.2-0.2-1.8-1-4.7-1c-2.9,0-4.6,0.8-4.7,1.1l-1.9-0.1c0-2,3.3-2.9,6.6-2.9c3.2,0,6.5,0.9,6.6,2.8h0h0h0c0.2,0.2,1.8,1,4.7,1
			c2.9,0,4.5-0.7,4.7-1.1c0.2-1.9,3.4-2.7,6.6-2.7c3.2,0,6.5,0.9,6.6,2.8h0h0h0c0.2,0.2,1.8,1,4.7,1c2.9,0,4.5-0.7,4.7-1.1
			c0.2-1.9,3.4-2.7,6.6-2.7c3.2,0,6.5,0.9,6.6,2.8h0h0h0c0.2,0.2,1.8,1,4.7,1c2.9,0,4.5-0.7,4.7-1.1c0.2-1.9,3.4-2.7,6.6-2.7
			c3.2,0,6.5,0.9,6.6,2.8h0h0h0c0.2,0.2,1.8,1,4.7,1c2.9,0,4.6-0.8,4.7-1.1l1.9,0.1C130.7,109.5,127.4,110.4,124.1,110.4z"/>
		<path fill="#FFFFFF" d="M124.1,116.3c-3.2,0-6.5-0.9-6.6-2.8h0h0h0c-0.2-0.2-1.8-1-4.7-1c-2.9,0-4.5,0.7-4.7,1.1
			c-0.2,1.9-3.4,2.7-6.6,2.7c-3.2,0-6.5-0.9-6.6-2.8h0h0h0c-0.2-0.2-1.8-1-4.7-1c-2.9,0-4.5,0.7-4.7,1.1c-0.2,1.9-3.4,2.7-6.6,2.7
			c-3.2,0-6.5-0.9-6.6-2.8h0h0h0c-0.2-0.2-1.8-1-4.7-1c-2.9,0-4.5,0.7-4.7,1.1c-0.2,1.9-3.4,2.7-6.6,2.7c-3.2,0-6.5-0.9-6.6-2.8h0h0
			h0c-0.2-0.2-1.8-1-4.7-1c-2.9,0-4.6,0.8-4.7,1.1l-1.9-0.1c0-2,3.3-2.9,6.6-2.9c3.2,0,6.5,0.9,6.6,2.8h0h0h0c0.2,0.2,1.8,1,4.7,1
			c2.9,0,4.5-0.7,4.7-1.1c0.2-1.9,3.4-2.7,6.6-2.7c3.2,0,6.5,0.9,6.6,2.8h0h0h0c0.2,0.2,1.8,1,4.7,1c2.9,0,4.5-0.7,4.7-1.1
			c0.2-1.9,3.4-2.7,6.6-2.7c3.2,0,6.5,0.9,6.6,2.8h0h0h0c0.2,0.2,1.8,1,4.7,1c2.9,0,4.5-0.7,4.7-1.1c0.2-1.9,3.4-2.7,6.6-2.7
			c3.2,0,6.5,0.9,6.6,2.8h0h0h0c0.2,0.2,1.8,1,4.7,1c2.9,0,4.6-0.8,4.7-1.1l1.9,0.1C130.7,115.5,127.4,116.3,124.1,116.3z"/>
		<g>
			<g>
				<path fill="#FFFFFF" d="M35.8,154.7h42.5c2.4,0,4.4-2,4.4-4.4V144c0-2.4-2-4.4-4.4-4.4H35.8c-2.4,0-4.4,2-4.4,4.4v6.4
					C31.4,152.8,33.4,154.7,35.8,154.7z"/>
				<path fill="#696A6C" d="M78.2,156.4H35.8c-3.4,0-6.1-2.7-6.1-6.1V144c0-3.4,2.7-6.1,6.1-6.1h42.5c3.4,0,6.1,2.7,6.1,6.1v6.4
					C84.3,153.7,81.6,156.4,78.2,156.4z M35.8,141.3c-1.5,0-2.7,1.2-2.7,2.7v6.4c0,1.5,1.2,2.7,2.7,2.7h42.5c1.5,0,2.7-1.2,2.7-2.7
					V144c0-1.5-1.2-2.7-2.7-2.7H35.8z"/>
			</g>
			<g>
				<g>
					<path fill="#FFFFFF" d="M28,143.4c-13.8,0-25-11.2-25-25c0-13.8,11.2-25,25-25h57.8c13.8,0,25,11.2,25,25c0,13.8-11.2,25-25,25
						H28z"/>
					<path fill="#696A6C" d="M85.7,145.1H28c-14.7,0-26.7-12-26.7-26.7s12-26.7,26.7-26.7h57.8c14.7,0,26.7,12,26.7,26.7
						S100.4,145.1,85.7,145.1z M28,95.1c-12.8,0-23.3,10.4-23.3,23.3s10.4,23.3,23.3,23.3h57.8c12.8,0,23.3-10.4,23.3-23.3
						S98.6,95.1,85.7,95.1H28z"/>
				</g>
				<g>
					<path fill="#FFFFFF" d="M28,137.5c-10.5,0-19.1-8.5-19.1-19.1c0-10.5,8.5-19.1,19.1-19.1h57.8c10.5,0,19.1,8.5,19.1,19.1
						c0,10.5-8.5,19.1-19.1,19.1H28z"/>
					<path fill="#696A6C" d="M85.7,139.2H28c-11.5,0-20.8-9.3-20.8-20.8c0-11.5,9.3-20.8,20.8-20.8h57.8c11.5,0,20.8,9.3,20.8,20.8
						C106.5,129.9,97.2,139.2,85.7,139.2z M28,101c-9.6,0-17.4,7.8-17.4,17.4s7.8,17.4,17.4,17.4h57.8c9.6,0,17.4-7.8,17.4-17.4
						S95.3,101,85.7,101H28z"/>
				</g>
				<g>
					<circle fill="#FFFFFF" cx="56.8" cy="118.4" r="3.3"/>
					<path fill="#696A6C" d="M56.8,123.4c-2.8,0-5-2.2-5-5c0-2.8,2.2-5,5-5s5,2.2,5,5C61.9,121.2,59.6,123.4,56.8,123.4z
						 M56.8,116.8c-0.9,0-1.6,0.7-1.6,1.6c0,0.9,0.7,1.6,1.6,1.6s1.6-0.7,1.6-1.6C58.5,117.5,57.7,116.8,56.8,116.8z"/>
				</g>
			</g>
			<g>
				<g>
					<path fill="#FFFFFF" d="M39.7,145.2v1.2c0,1.9,1.6,3.5,3.5,3.5h27.7c1.9,0,3.5-1.6,3.5-3.5v-1.2c0-1.9-1.6-3.5-3.5-3.5H43.2
						C41.2,141.7,39.7,143.3,39.7,145.2z"/>
					<path fill="#696A6C" d="M70.8,151.5H43.2c-2.9,0-5.2-2.3-5.2-5.2v-1.2c0-2.9,2.3-5.2,5.2-5.2h27.7c2.9,0,5.2,2.3,5.2,5.2v1.2
						C76,149.2,73.7,151.5,70.8,151.5z M43.2,143.4c-1,0-1.8,0.8-1.8,1.8v1.2c0,1,0.8,1.8,1.8,1.8h27.7c1,0,1.8-0.8,1.8-1.8v-1.2
						c0-1-0.8-1.8-1.8-1.8H43.2z"/>
				</g>
				<g>
					<path fill="#FFFFFF" d="M54.1,134c0-0.9,1.4-1.7,3-1.7c1.7,0,3,0.8,3,1.7v9.8c0,0.9-1.4,1.7-3,1.7c-1.7,0-3-0.8-3-1.7V134z"/>
					<path fill="#696A6C" d="M57.1,147.2c-2.7,0-4.7-1.5-4.7-3.4V134c0-1.9,2-3.4,4.7-3.4c2.7,0,4.7,1.5,4.7,3.4v9.8
						C61.8,145.7,59.8,147.2,57.1,147.2z M55.8,143.5c0.2,0.1,0.7,0.3,1.3,0.3c0.7,0,1.1-0.2,1.3-0.3v-9.2c-0.2-0.1-0.7-0.3-1.3-0.3
						c-0.7,0-1.1,0.2-1.3,0.3V143.5z"/>
				</g>
			</g>
		</g>
		<g>
			<g>
				<path fill="#FFFFFF" d="M31.1,89.7c8.9,0,16.1-7.2,16.1-16.1c0-8.9-7.2-16.1-16.1-16.1H7.5v32.1H31.1z"/>
				<path fill="#696A6C" d="M31.1,91.4H5.8V55.8h25.3c9.8,0,17.8,8,17.8,17.8S40.9,91.4,31.1,91.4z M9.2,88h21.9
					c7.9,0,14.4-6.4,14.4-14.4s-6.4-14.4-14.4-14.4H9.2V88z"/>
			</g>
			<g>
				<circle fill="#FFFFFF" cx="31.1" cy="73.6" r="10.4"/>
				<path fill="#696A6C" d="M31.1,85.6c-6.6,0-12.1-5.4-12.1-12.1c0-6.6,5.4-12.1,12.1-12.1c6.6,0,12.1,5.4,12.1,12.1
					C43.2,80.2,37.8,85.6,31.1,85.6z M31.1,64.9c-4.8,0-8.7,3.9-8.7,8.7s3.9,8.7,8.7,8.7c4.8,0,8.7-3.9,8.7-8.7S35.9,64.9,31.1,64.9
					z"/>
			</g>
			<g>
				<path fill="#FFFFFF" d="M1.7,60.9c0-3.2,2.6-5.8,5.8-5.8c3.2,0,5.8,2.6,5.8,5.8v25.3c0,3.2-2.6,5.8-5.8,5.8
					c-3.2,0-5.8-2.6-5.8-5.8V60.9z"/>
				<path fill="#696A6C" d="M7.5,93.8c-4.2,0-7.5-3.4-7.5-7.5V60.9c0-4.2,3.4-7.5,7.5-7.5c4.2,0,7.5,3.4,7.5,7.5v25.3
					C15.1,90.4,11.7,93.8,7.5,93.8z M7.5,56.8c-2.3,0-4.1,1.9-4.1,4.1v25.3c0,2.3,1.9,4.1,4.1,4.1c2.3,0,4.1-1.9,4.1-4.1V60.9
					C11.7,58.7,9.8,56.8,7.5,56.8z"/>
			</g>
		</g>
	</g>
</g>
<g id="Слой_3__x28_копия_x29_">
	<rect x="39.6" y="58.8" fill="#E30011" width="89.8" height="61.8"/>
	<path fill="#FFFFFF" d="M131.1,122.3H37.9V57.1h93.2V122.3z M41.3,118.9h86.4V60.5H41.3V118.9z"/>
	<rect x="6.5" y="1.7" fill="#FFFFFF" width="34.4" height="50.1"/>
	<path fill="#E30011" d="M42.7,53.5H4.8V0h37.8V53.5z M8.2,50.1h31V3.4h-31V50.1z"/>
	<rect x="34.5" y="1.7" fill="#E30011" width="3.4" height="50.1"/>
	<path fill="#E30011" d="M27.7,28.3H15c-2.4,0-4.4-2-4.4-4.4V12c0-2.4,2-4.4,4.4-4.4h12.7c2.4,0,4.4,2,4.4,4.4v12
		C32.1,26.4,30.2,28.3,27.7,28.3z M15,9.5c-1.4,0-2.5,1.1-2.5,2.5v12c0,1.4,1.1,2.5,2.5,2.5h12.7c1.4,0,2.5-1.1,2.5-2.5V12
		c0-1.4-1.1-2.5-2.5-2.5H15z"/>
	<path fill="#E30011" d="M25.8,24.5h-8.9c-1.3,0-2.4-1.1-2.4-2.4v-8.3c0-1.3,1.1-2.4,2.4-2.4h8.9c1.3,0,2.4,1.1,2.4,2.4v8.3
		C28.2,23.5,27.1,24.5,25.8,24.5z"/>
	<path fill="#FFFFFF" d="M124.1,68.7c-3.2,0-6.5-0.9-6.6-2.8h0h0h0c-0.2-0.2-1.8-1-4.7-1c-2.9,0-4.5,0.7-4.7,1.1
		c-0.2,1.9-3.4,2.7-6.6,2.7c-3.2,0-6.5-0.9-6.6-2.8h0h0h0c-0.2-0.2-1.8-1-4.7-1c-2.9,0-4.5,0.7-4.7,1.1c-0.2,1.9-3.4,2.7-6.6,2.7
		c-3.2,0-6.5-0.9-6.6-2.8h0h0h0c-0.2-0.2-1.8-1-4.7-1c-2.9,0-4.5,0.7-4.7,1.1c-0.2,1.9-3.4,2.7-6.6,2.7c-3.2,0-6.5-0.9-6.6-2.8h0h0
		h0c-0.2-0.2-1.8-1-4.7-1c-2.9,0-4.6,0.8-4.7,1.1l-1.9-0.1c0-2,3.3-2.9,6.6-2.9c3.2,0,6.5,0.9,6.6,2.8h0h0h0c0.2,0.2,1.8,1,4.7,1
		c2.9,0,4.5-0.7,4.7-1.1c0.2-1.9,3.4-2.7,6.6-2.7c3.2,0,6.5,0.9,6.6,2.8h0h0h0c0.2,0.2,1.8,1,4.7,1c2.9,0,4.5-0.7,4.7-1.1
		c0.2-1.9,3.4-2.7,6.6-2.7c3.2,0,6.5,0.9,6.6,2.8h0h0h0c0.2,0.2,1.8,1,4.7,1c2.9,0,4.5-0.7,4.7-1.1c0.2-1.9,3.4-2.7,6.6-2.7
		c3.2,0,6.5,0.9,6.6,2.8h0h0h0c0.2,0.2,1.8,1,4.7,1c2.9,0,4.6-0.8,4.7-1.1l1.9,0.1C130.7,67.8,127.4,68.7,124.1,68.7z"/>
	<path fill="#FFFFFF" d="M124.1,74.6c-3.2,0-6.5-0.9-6.6-2.8h0h0h0c-0.2-0.2-1.8-1-4.7-1c-2.9,0-4.5,0.7-4.7,1.1
		c-0.2,1.9-3.4,2.7-6.6,2.7c-3.2,0-6.5-0.9-6.6-2.8h0h0h0c-0.2-0.2-1.8-1-4.7-1c-2.9,0-4.5,0.7-4.7,1.1c-0.2,1.9-3.4,2.7-6.6,2.7
		c-3.2,0-6.5-0.9-6.6-2.8h0h0h0c-0.2-0.2-1.8-1-4.7-1c-2.9,0-4.5,0.7-4.7,1.1c-0.2,1.9-3.4,2.7-6.6,2.7c-3.2,0-6.5-0.9-6.6-2.8h0h0
		h0c-0.2-0.2-1.8-1-4.7-1c-2.9,0-4.6,0.8-4.7,1.1l-1.9-0.1c0-2,3.3-2.9,6.6-2.9c3.2,0,6.5,0.9,6.6,2.8h0h0h0c0.2,0.2,1.8,1,4.7,1
		c2.9,0,4.5-0.7,4.7-1.1c0.2-1.9,3.4-2.7,6.6-2.7c3.2,0,6.5,0.9,6.6,2.8h0h0h0c0.2,0.2,1.8,1,4.7,1c2.9,0,4.5-0.7,4.7-1.1
		c0.2-1.9,3.4-2.7,6.6-2.7c3.2,0,6.5,0.9,6.6,2.8h0h0h0c0.2,0.2,1.8,1,4.7,1c2.9,0,4.5-0.7,4.7-1.1c0.2-1.9,3.4-2.7,6.6-2.7
		c3.2,0,6.5,0.9,6.6,2.8h0h0h0c0.2,0.2,1.8,1,4.7,1c2.9,0,4.6-0.8,4.7-1.1l1.9,0.1C130.7,73.8,127.4,74.6,124.1,74.6z"/>
	<path fill="#FFFFFF" d="M124.1,80.6c-3.2,0-6.5-0.9-6.6-2.8h0h0h0c-0.2-0.2-1.8-1-4.7-1c-2.9,0-4.5,0.7-4.7,1.1
		c-0.2,1.9-3.4,2.7-6.6,2.7c-3.2,0-6.5-0.9-6.6-2.8h0h0h0c-0.2-0.2-1.8-1-4.7-1c-2.9,0-4.5,0.7-4.7,1.1c-0.2,1.9-3.4,2.7-6.6,2.7
		c-3.2,0-6.5-0.9-6.6-2.8h0h0h0c-0.2-0.2-1.8-1-4.7-1c-2.9,0-4.5,0.7-4.7,1.1c-0.2,1.9-3.4,2.7-6.6,2.7c-3.2,0-6.5-0.9-6.6-2.8h0h0
		h0c-0.2-0.2-1.8-1-4.7-1c-2.9,0-4.6,0.8-4.7,1.1l-1.9-0.1c0-2,3.3-2.9,6.6-2.9c3.2,0,6.5,0.9,6.6,2.8h0h0h0c0.2,0.2,1.8,1,4.7,1
		c2.9,0,4.5-0.7,4.7-1.1c0.2-1.9,3.4-2.7,6.6-2.7c3.2,0,6.5,0.9,6.6,2.8h0h0h0c0.2,0.2,1.8,1,4.7,1c2.9,0,4.5-0.7,4.7-1.1
		c0.2-1.9,3.4-2.7,6.6-2.7c3.2,0,6.5,0.9,6.6,2.8h0h0h0c0.2,0.2,1.8,1,4.7,1c2.9,0,4.5-0.7,4.7-1.1c0.2-1.9,3.4-2.7,6.6-2.7
		c3.2,0,6.5,0.9,6.6,2.8h0h0h0c0.2,0.2,1.8,1,4.7,1c2.9,0,4.6-0.8,4.7-1.1l1.9,0.1C130.7,79.7,127.4,80.6,124.1,80.6z"/>
	<path fill="#FFFFFF" d="M124.1,86.6c-3.2,0-6.5-0.9-6.6-2.8h0h0h0c-0.2-0.2-1.8-1-4.7-1c-2.9,0-4.5,0.7-4.7,1.1
		c-0.2,1.9-3.4,2.7-6.6,2.7c-3.2,0-6.5-0.9-6.6-2.8h0h0h0c-0.2-0.2-1.8-1-4.7-1c-2.9,0-4.5,0.7-4.7,1.1c-0.2,1.9-3.4,2.7-6.6,2.7
		c-3.2,0-6.5-0.9-6.6-2.8h0h0h0c-0.2-0.2-1.8-1-4.7-1c-2.9,0-4.5,0.7-4.7,1.1c-0.2,1.9-3.4,2.7-6.6,2.7c-3.2,0-6.5-0.9-6.6-2.8h0h0
		h0c-0.2-0.2-1.8-1-4.7-1c-2.9,0-4.6,0.8-4.7,1.1l-1.9-0.1c0-2,3.3-2.9,6.6-2.9c3.2,0,6.5,0.9,6.6,2.8h0h0h0c0.2,0.2,1.8,1,4.7,1
		c2.9,0,4.5-0.7,4.7-1.1c0.2-1.9,3.4-2.7,6.6-2.7c3.2,0,6.5,0.9,6.6,2.8h0h0h0c0.2,0.2,1.8,1,4.7,1c2.9,0,4.5-0.7,4.7-1.1
		c0.2-1.9,3.4-2.7,6.6-2.7c3.2,0,6.5,0.9,6.6,2.8h0h0h0c0.2,0.2,1.8,1,4.7,1c2.9,0,4.5-0.7,4.7-1.1c0.2-1.9,3.4-2.7,6.6-2.7
		c3.2,0,6.5,0.9,6.6,2.8h0h0h0c0.2,0.2,1.8,1,4.7,1c2.9,0,4.6-0.8,4.7-1.1l1.9,0.1C130.7,85.7,127.4,86.6,124.1,86.6z"/>
	<path fill="#FFFFFF" d="M124.1,92.5c-3.2,0-6.5-0.9-6.6-2.8h0h0h0c-0.2-0.2-1.8-1-4.7-1c-2.9,0-4.5,0.7-4.7,1.1
		c-0.2,1.9-3.4,2.7-6.6,2.7c-3.2,0-6.5-0.9-6.6-2.8h0h0h0c-0.2-0.2-1.8-1-4.7-1c-2.9,0-4.5,0.7-4.7,1.1c-0.2,1.9-3.4,2.7-6.6,2.7
		c-3.2,0-6.5-0.9-6.6-2.8h0h0h0c-0.2-0.2-1.8-1-4.7-1c-2.9,0-4.5,0.7-4.7,1.1c-0.2,1.9-3.4,2.7-6.6,2.7c-3.2,0-6.5-0.9-6.6-2.8h0h0
		h0c-0.2-0.2-1.8-1-4.7-1c-2.9,0-4.6,0.8-4.7,1.1l-1.9-0.1c0-2,3.3-2.9,6.6-2.9c3.2,0,6.5,0.9,6.6,2.8h0h0h0c0.2,0.2,1.8,1,4.7,1
		c2.9,0,4.5-0.7,4.7-1.1c0.2-1.9,3.4-2.7,6.6-2.7c3.2,0,6.5,0.9,6.6,2.8h0h0h0c0.2,0.2,1.8,1,4.7,1c2.9,0,4.5-0.7,4.7-1.1
		c0.2-1.9,3.4-2.7,6.6-2.7c3.2,0,6.5,0.9,6.6,2.8h0h0h0c0.2,0.2,1.8,1,4.7,1c2.9,0,4.5-0.7,4.7-1.1c0.2-1.9,3.4-2.7,6.6-2.7
		c3.2,0,6.5,0.9,6.6,2.8h0h0h0c0.2,0.2,1.8,1,4.7,1c2.9,0,4.6-0.8,4.7-1.1l1.9,0.1C130.7,91.6,127.4,92.5,124.1,92.5z"/>
	<path fill="#FFFFFF" d="M124.1,98.5c-3.2,0-6.5-0.9-6.6-2.8h0h0h0c-0.2-0.2-1.8-1-4.7-1c-2.9,0-4.5,0.7-4.7,1.1
		c-0.2,1.9-3.4,2.7-6.6,2.7c-3.2,0-6.5-0.9-6.6-2.8h0h0h0c-0.2-0.2-1.8-1-4.7-1c-2.9,0-4.5,0.7-4.7,1.1c-0.2,1.9-3.4,2.7-6.6,2.7
		c-3.2,0-6.5-0.9-6.6-2.8h0h0h0c-0.2-0.2-1.8-1-4.7-1c-2.9,0-4.5,0.7-4.7,1.1c-0.2,1.9-3.4,2.7-6.6,2.7c-3.2,0-6.5-0.9-6.6-2.8h0h0
		h0c-0.2-0.2-1.8-1-4.7-1c-2.9,0-4.6,0.8-4.7,1.1l-1.9-0.1c0-2,3.3-2.9,6.6-2.9c3.2,0,6.5,0.9,6.6,2.8h0h0h0c0.2,0.2,1.8,1,4.7,1
		c2.9,0,4.5-0.7,4.7-1.1c0.2-1.9,3.4-2.7,6.6-2.7c3.2,0,6.5,0.9,6.6,2.8h0h0h0c0.2,0.2,1.8,1,4.7,1c2.9,0,4.5-0.7,4.7-1.1
		c0.2-1.9,3.4-2.7,6.6-2.7c3.2,0,6.5,0.9,6.6,2.8h0h0h0c0.2,0.2,1.8,1,4.7,1c2.9,0,4.5-0.7,4.7-1.1c0.2-1.9,3.4-2.7,6.6-2.7
		c3.2,0,6.5,0.9,6.6,2.8h0h0h0c0.2,0.2,1.8,1,4.7,1c2.9,0,4.6-0.8,4.7-1.1l1.9,0.1C130.7,97.6,127.4,98.5,124.1,98.5z"/>
	<path fill="#FFFFFF" d="M124.1,104.4c-3.2,0-6.5-0.9-6.6-2.8h0h0h0c-0.2-0.2-1.8-1-4.7-1c-2.9,0-4.5,0.7-4.7,1.1
		c-0.2,1.9-3.4,2.7-6.6,2.7c-3.2,0-6.5-0.9-6.6-2.8h0h0h0c-0.2-0.2-1.8-1-4.7-1c-2.9,0-4.5,0.7-4.7,1.1c-0.2,1.9-3.4,2.7-6.6,2.7
		c-3.2,0-6.5-0.9-6.6-2.8h0h0h0c-0.2-0.2-1.8-1-4.7-1c-2.9,0-4.5,0.7-4.7,1.1c-0.2,1.9-3.4,2.7-6.6,2.7c-3.2,0-6.5-0.9-6.6-2.8h0h0
		h0c-0.2-0.2-1.8-1-4.7-1c-2.9,0-4.6,0.8-4.7,1.1l-1.9-0.1c0-2,3.3-2.9,6.6-2.9c3.2,0,6.5,0.9,6.6,2.8h0h0h0c0.2,0.2,1.8,1,4.7,1
		c2.9,0,4.5-0.7,4.7-1.1c0.2-1.9,3.4-2.7,6.6-2.7c3.2,0,6.5,0.9,6.6,2.8h0h0h0c0.2,0.2,1.8,1,4.7,1c2.9,0,4.5-0.7,4.7-1.1
		c0.2-1.9,3.4-2.7,6.6-2.7c3.2,0,6.5,0.9,6.6,2.8h0h0h0c0.2,0.2,1.8,1,4.7,1c2.9,0,4.5-0.7,4.7-1.1c0.2-1.9,3.4-2.7,6.6-2.7
		c3.2,0,6.5,0.9,6.6,2.8h0h0h0c0.2,0.2,1.8,1,4.7,1c2.9,0,4.6-0.8,4.7-1.1l1.9,0.1C130.7,103.5,127.4,104.4,124.1,104.4z"/>
	<path fill="#FFFFFF" d="M124.1,110.4c-3.2,0-6.5-0.9-6.6-2.8h0h0h0c-0.2-0.2-1.8-1-4.7-1c-2.9,0-4.5,0.7-4.7,1.1
		c-0.2,1.9-3.4,2.7-6.6,2.7c-3.2,0-6.5-0.9-6.6-2.8h0h0h0c-0.2-0.2-1.8-1-4.7-1c-2.9,0-4.5,0.7-4.7,1.1c-0.2,1.9-3.4,2.7-6.6,2.7
		c-3.2,0-6.5-0.9-6.6-2.8h0h0h0c-0.2-0.2-1.8-1-4.7-1c-2.9,0-4.5,0.7-4.7,1.1c-0.2,1.9-3.4,2.7-6.6,2.7c-3.2,0-6.5-0.9-6.6-2.8h0h0
		h0c-0.2-0.2-1.8-1-4.7-1c-2.9,0-4.6,0.8-4.7,1.1l-1.9-0.1c0-2,3.3-2.9,6.6-2.9c3.2,0,6.5,0.9,6.6,2.8h0h0h0c0.2,0.2,1.8,1,4.7,1
		c2.9,0,4.5-0.7,4.7-1.1c0.2-1.9,3.4-2.7,6.6-2.7c3.2,0,6.5,0.9,6.6,2.8h0h0h0c0.2,0.2,1.8,1,4.7,1c2.9,0,4.5-0.7,4.7-1.1
		c0.2-1.9,3.4-2.7,6.6-2.7c3.2,0,6.5,0.9,6.6,2.8h0h0h0c0.2,0.2,1.8,1,4.7,1c2.9,0,4.5-0.7,4.7-1.1c0.2-1.9,3.4-2.7,6.6-2.7
		c3.2,0,6.5,0.9,6.6,2.8h0h0h0c0.2,0.2,1.8,1,4.7,1c2.9,0,4.6-0.8,4.7-1.1l1.9,0.1C130.7,109.5,127.4,110.4,124.1,110.4z"/>
	<path fill="#FFFFFF" d="M124.1,116.3c-3.2,0-6.5-0.9-6.6-2.8h0h0h0c-0.2-0.2-1.8-1-4.7-1c-2.9,0-4.5,0.7-4.7,1.1
		c-0.2,1.9-3.4,2.7-6.6,2.7c-3.2,0-6.5-0.9-6.6-2.8h0h0h0c-0.2-0.2-1.8-1-4.7-1c-2.9,0-4.5,0.7-4.7,1.1c-0.2,1.9-3.4,2.7-6.6,2.7
		c-3.2,0-6.5-0.9-6.6-2.8h0h0h0c-0.2-0.2-1.8-1-4.7-1c-2.9,0-4.5,0.7-4.7,1.1c-0.2,1.9-3.4,2.7-6.6,2.7c-3.2,0-6.5-0.9-6.6-2.8h0h0
		h0c-0.2-0.2-1.8-1-4.7-1c-2.9,0-4.6,0.8-4.7,1.1l-1.9-0.1c0-2,3.3-2.9,6.6-2.9c3.2,0,6.5,0.9,6.6,2.8h0h0h0c0.2,0.2,1.8,1,4.7,1
		c2.9,0,4.5-0.7,4.7-1.1c0.2-1.9,3.4-2.7,6.6-2.7c3.2,0,6.5,0.9,6.6,2.8h0h0h0c0.2,0.2,1.8,1,4.7,1c2.9,0,4.5-0.7,4.7-1.1
		c0.2-1.9,3.4-2.7,6.6-2.7c3.2,0,6.5,0.9,6.6,2.8h0h0h0c0.2,0.2,1.8,1,4.7,1c2.9,0,4.5-0.7,4.7-1.1c0.2-1.9,3.4-2.7,6.6-2.7
		c3.2,0,6.5,0.9,6.6,2.8h0h0h0c0.2,0.2,1.8,1,4.7,1c2.9,0,4.6-0.8,4.7-1.1l1.9,0.1C130.7,115.5,127.4,116.3,124.1,116.3z"/>
	<path fill="#FFFFFF" d="M35.8,154.7h42.5c2.4,0,4.4-2,4.4-4.4V144c0-2.4-2-4.4-4.4-4.4H35.8c-2.4,0-4.4,2-4.4,4.4v6.4
		C31.4,152.8,33.4,154.7,35.8,154.7z"/>
	<path fill="#E30011" d="M78.2,156.4H35.8c-3.4,0-6.1-2.7-6.1-6.1V144c0-3.4,2.7-6.1,6.1-6.1h42.5c3.4,0,6.1,2.7,6.1,6.1v6.4
		C84.3,153.7,81.6,156.4,78.2,156.4z M35.8,141.3c-1.5,0-2.7,1.2-2.7,2.7v6.4c0,1.5,1.2,2.7,2.7,2.7h42.5c1.5,0,2.7-1.2,2.7-2.7V144
		c0-1.5-1.2-2.7-2.7-2.7H35.8z"/>
	<path fill="#FFFFFF" d="M28,143.4c-13.8,0-25-11.2-25-25c0-13.8,11.2-25,25-25h57.8c13.8,0,25,11.2,25,25c0,13.8-11.2,25-25,25H28z
		"/>
	<path fill="#E30011" d="M85.7,145.1H28c-14.7,0-26.7-12-26.7-26.7s12-26.7,26.7-26.7h57.8c14.7,0,26.7,12,26.7,26.7
		S100.4,145.1,85.7,145.1z M28,95.1c-12.8,0-23.3,10.4-23.3,23.3s10.4,23.3,23.3,23.3h57.8c12.8,0,23.3-10.4,23.3-23.3
		S98.6,95.1,85.7,95.1H28z"/>
	<path fill="#FFFFFF" d="M28,137.5c-10.5,0-19.1-8.5-19.1-19.1c0-10.5,8.5-19.1,19.1-19.1h57.8c10.5,0,19.1,8.5,19.1,19.1
		c0,10.5-8.5,19.1-19.1,19.1H28z"/>
	<path fill="#E30011" d="M85.7,139.2H28c-11.5,0-20.8-9.3-20.8-20.8c0-11.5,9.3-20.8,20.8-20.8h57.8c11.5,0,20.8,9.3,20.8,20.8
		C106.5,129.9,97.2,139.2,85.7,139.2z M28,101c-9.6,0-17.4,7.8-17.4,17.4s7.8,17.4,17.4,17.4h57.8c9.6,0,17.4-7.8,17.4-17.4
		S95.3,101,85.7,101H28z"/>
	<circle fill="#FFFFFF" cx="56.8" cy="118.4" r="3.3"/>
	<path fill="#E30011" d="M56.8,123.4c-2.8,0-5-2.2-5-5c0-2.8,2.2-5,5-5s5,2.2,5,5C61.9,121.2,59.6,123.4,56.8,123.4z M56.8,116.8
		c-0.9,0-1.6,0.7-1.6,1.6c0,0.9,0.7,1.6,1.6,1.6s1.6-0.7,1.6-1.6C58.5,117.5,57.7,116.8,56.8,116.8z"/>
	<path fill="#FFFFFF" d="M39.7,145.2v1.2c0,1.9,1.6,3.5,3.5,3.5h27.7c1.9,0,3.5-1.6,3.5-3.5v-1.2c0-1.9-1.6-3.5-3.5-3.5H43.2
		C41.2,141.7,39.7,143.3,39.7,145.2z"/>
	<path fill="#E30011" d="M70.8,151.5H43.2c-2.9,0-5.2-2.3-5.2-5.2v-1.2c0-2.9,2.3-5.2,5.2-5.2h27.7c2.9,0,5.2,2.3,5.2,5.2v1.2
		C76,149.2,73.7,151.5,70.8,151.5z M43.2,143.4c-1,0-1.8,0.8-1.8,1.8v1.2c0,1,0.8,1.8,1.8,1.8h27.7c1,0,1.8-0.8,1.8-1.8v-1.2
		c0-1-0.8-1.8-1.8-1.8H43.2z"/>
	<path fill="#FFFFFF" d="M54.1,134c0-0.9,1.4-1.7,3-1.7c1.7,0,3,0.8,3,1.7v9.8c0,0.9-1.4,1.7-3,1.7c-1.7,0-3-0.8-3-1.7V134z"/>
	<path fill="#E30011" d="M57.1,147.2c-2.7,0-4.7-1.5-4.7-3.4V134c0-1.9,2-3.4,4.7-3.4c2.7,0,4.7,1.5,4.7,3.4v9.8
		C61.8,145.7,59.8,147.2,57.1,147.2z M55.8,143.5c0.2,0.1,0.7,0.3,1.3,0.3c0.7,0,1.1-0.2,1.3-0.3v-9.2c-0.2-0.1-0.7-0.3-1.3-0.3
		c-0.7,0-1.1,0.2-1.3,0.3V143.5z"/>
	<path fill="#FFFFFF" d="M31.1,89.7c8.9,0,16.1-7.2,16.1-16.1c0-8.9-7.2-16.1-16.1-16.1H7.5v32.1H31.1z"/>
	<path fill="#E30011" d="M31.1,91.4H5.8V55.8h25.3c9.8,0,17.8,8,17.8,17.8S40.9,91.4,31.1,91.4z M9.2,88h21.9
		c7.9,0,14.4-6.4,14.4-14.4s-6.4-14.4-14.4-14.4H9.2V88z"/>
	<circle fill="#FFFFFF" cx="31.1" cy="73.6" r="10.4"/>
	<path fill="#E30011" d="M31.1,85.6c-6.6,0-12.1-5.4-12.1-12.1c0-6.6,5.4-12.1,12.1-12.1c6.6,0,12.1,5.4,12.1,12.1
		C43.2,80.2,37.8,85.6,31.1,85.6z M31.1,64.9c-4.8,0-8.7,3.9-8.7,8.7s3.9,8.7,8.7,8.7c4.8,0,8.7-3.9,8.7-8.7S35.9,64.9,31.1,64.9z"
		/>
	<path fill="#FFFFFF" d="M1.7,60.9c0-3.2,2.6-5.8,5.8-5.8c3.2,0,5.8,2.6,5.8,5.8v25.3c0,3.2-2.6,5.8-5.8,5.8c-3.2,0-5.8-2.6-5.8-5.8
		V60.9z"/>
	<path fill="#E30011" d="M7.5,93.8c-4.2,0-7.5-3.4-7.5-7.5V60.9c0-4.2,3.4-7.5,7.5-7.5c4.2,0,7.5,3.4,7.5,7.5v25.3
		C15.1,90.4,11.7,93.8,7.5,93.8z M7.5,56.8c-2.3,0-4.1,1.9-4.1,4.1v25.3c0,2.3,1.9,4.1,4.1,4.1c2.3,0,4.1-1.9,4.1-4.1V60.9
		C11.7,58.7,9.8,56.8,7.5,56.8z"/>
</g>
<g id="Слой_2" display="none">
	<g display="inline">
		<g>
			<rect x="40" y="58.9" fill="#E30011" width="89.8" height="61.8"/>
			<path fill="#FFFFFF" d="M131.4,122.4H38.3V57.2h93.2V122.4z M41.7,119H128V60.6H41.7V119z"/>
		</g>
		<path fill="#FFFFFF" d="M124.4,68.7c-3.2,0-6.5-0.9-6.6-2.8h0h0h0c-0.2-0.2-1.8-1-4.7-1c-2.9,0-4.5,0.7-4.7,1.1
			c-0.2,1.9-3.4,2.7-6.6,2.7c-3.2,0-6.5-0.9-6.6-2.8h0h0h0c-0.2-0.2-1.8-1-4.7-1c-2.9,0-4.5,0.7-4.7,1.1c-0.2,1.9-3.4,2.7-6.6,2.7
			c-3.2,0-6.5-0.9-6.6-2.8h0h0h0c-0.2-0.2-1.8-1-4.7-1c-2.9,0-4.5,0.7-4.7,1.1c-0.2,1.9-3.4,2.7-6.6,2.7c-3.2,0-6.5-0.9-6.6-2.8h0h0
			h0c-0.2-0.2-1.8-1-4.7-1c-2.9,0-4.6,0.8-4.7,1.1l-1.9-0.1c0-2,3.3-2.9,6.6-2.9c3.2,0,6.5,0.9,6.6,2.8h0h0h0c0.2,0.2,1.8,1,4.7,1
			c2.9,0,4.5-0.7,4.7-1.1c0.2-1.9,3.4-2.7,6.6-2.7c3.2,0,6.5,0.9,6.6,2.8h0h0h0c0.2,0.2,1.8,1,4.7,1c2.9,0,4.5-0.7,4.7-1.1
			c0.2-1.9,3.4-2.7,6.6-2.7c3.2,0,6.5,0.9,6.6,2.8h0h0h0c0.2,0.2,1.8,1,4.7,1c2.9,0,4.5-0.7,4.7-1.1c0.2-1.9,3.4-2.7,6.6-2.7
			c3.2,0,6.5,0.9,6.6,2.8h0h0h0c0.2,0.2,1.8,1,4.7,1c2.9,0,4.6-0.8,4.7-1.1l1.9,0.1C131,67.8,127.7,68.7,124.4,68.7z"/>
		<path fill="#FFFFFF" d="M124.4,74.6c-3.2,0-6.5-0.9-6.6-2.8h0h0h0c-0.2-0.2-1.8-1-4.7-1c-2.9,0-4.5,0.7-4.7,1.1
			c-0.2,1.9-3.4,2.7-6.6,2.7c-3.2,0-6.5-0.9-6.6-2.8h0h0h0c-0.2-0.2-1.8-1-4.7-1c-2.9,0-4.5,0.7-4.7,1.1c-0.2,1.9-3.4,2.7-6.6,2.7
			c-3.2,0-6.5-0.9-6.6-2.8h0h0h0c-0.2-0.2-1.8-1-4.7-1c-2.9,0-4.5,0.7-4.7,1.1c-0.2,1.9-3.4,2.7-6.6,2.7c-3.2,0-6.5-0.9-6.6-2.8h0h0
			h0c-0.2-0.2-1.8-1-4.7-1c-2.9,0-4.6,0.8-4.7,1.1l-1.9-0.1c0-2,3.3-2.9,6.6-2.9c3.2,0,6.5,0.9,6.6,2.8h0h0h0c0.2,0.2,1.8,1,4.7,1
			c2.9,0,4.5-0.7,4.7-1.1c0.2-1.9,3.4-2.7,6.6-2.7c3.2,0,6.5,0.9,6.6,2.8h0h0h0c0.2,0.2,1.8,1,4.7,1c2.9,0,4.5-0.7,4.7-1.1
			c0.2-1.9,3.4-2.7,6.6-2.7c3.2,0,6.5,0.9,6.6,2.8h0h0h0c0.2,0.2,1.8,1,4.7,1c2.9,0,4.5-0.7,4.7-1.1c0.2-1.9,3.4-2.7,6.6-2.7
			c3.2,0,6.5,0.9,6.6,2.8h0h0h0c0.2,0.2,1.8,1,4.7,1c2.9,0,4.6-0.8,4.7-1.1l1.9,0.1C131,73.7,127.7,74.6,124.4,74.6z"/>
		<path fill="#FFFFFF" d="M124.4,80.6c-3.2,0-6.5-0.9-6.6-2.8h0h0h0c-0.2-0.2-1.8-1-4.7-1c-2.9,0-4.5,0.7-4.7,1.1
			c-0.2,1.9-3.4,2.7-6.6,2.7c-3.2,0-6.5-0.9-6.6-2.8h0h0h0c-0.2-0.2-1.8-1-4.7-1c-2.9,0-4.5,0.7-4.7,1.1c-0.2,1.9-3.4,2.7-6.6,2.7
			c-3.2,0-6.5-0.9-6.6-2.8h0h0h0c-0.2-0.2-1.8-1-4.7-1c-2.9,0-4.5,0.7-4.7,1.1c-0.2,1.9-3.4,2.7-6.6,2.7c-3.2,0-6.5-0.9-6.6-2.8h0h0
			h0c-0.2-0.2-1.8-1-4.7-1c-2.9,0-4.6,0.8-4.7,1.1l-1.9-0.1c0-2,3.3-2.9,6.6-2.9c3.2,0,6.5,0.9,6.6,2.8h0h0h0c0.2,0.2,1.8,1,4.7,1
			c2.9,0,4.5-0.7,4.7-1.1c0.2-1.9,3.4-2.7,6.6-2.7c3.2,0,6.5,0.9,6.6,2.8h0h0h0c0.2,0.2,1.8,1,4.7,1c2.9,0,4.5-0.7,4.7-1.1
			c0.2-1.9,3.4-2.7,6.6-2.7c3.2,0,6.5,0.9,6.6,2.8h0h0h0c0.2,0.2,1.8,1,4.7,1c2.9,0,4.5-0.7,4.7-1.1c0.2-1.9,3.4-2.7,6.6-2.7
			c3.2,0,6.5,0.9,6.6,2.8h0h0h0c0.2,0.2,1.8,1,4.7,1c2.9,0,4.6-0.8,4.7-1.1l1.9,0.1C131,79.7,127.7,80.6,124.4,80.6z"/>
		<path fill="#FFFFFF" d="M124.4,86.5c-3.2,0-6.5-0.9-6.6-2.8h0h0h0c-0.2-0.2-1.8-1-4.7-1c-2.9,0-4.5,0.7-4.7,1.1
			c-0.2,1.9-3.4,2.7-6.6,2.7c-3.2,0-6.5-0.9-6.6-2.8h0h0h0c-0.2-0.2-1.8-1-4.7-1c-2.9,0-4.5,0.7-4.7,1.1c-0.2,1.9-3.4,2.7-6.6,2.7
			c-3.2,0-6.5-0.9-6.6-2.8h0h0h0c-0.2-0.2-1.8-1-4.7-1c-2.9,0-4.5,0.7-4.7,1.1c-0.2,1.9-3.4,2.7-6.6,2.7c-3.2,0-6.5-0.9-6.6-2.8h0h0
			h0c-0.2-0.2-1.8-1-4.7-1c-2.9,0-4.6,0.8-4.7,1.1l-1.9-0.1c0-2,3.3-2.9,6.6-2.9c3.2,0,6.5,0.9,6.6,2.8h0h0h0c0.2,0.2,1.8,1,4.7,1
			c2.9,0,4.5-0.7,4.7-1.1c0.2-1.9,3.4-2.7,6.6-2.7c3.2,0,6.5,0.9,6.6,2.8h0h0h0c0.2,0.2,1.8,1,4.7,1c2.9,0,4.5-0.7,4.7-1.1
			c0.2-1.9,3.4-2.7,6.6-2.7c3.2,0,6.5,0.9,6.6,2.8h0h0h0c0.2,0.2,1.8,1,4.7,1c2.9,0,4.5-0.7,4.7-1.1c0.2-1.9,3.4-2.7,6.6-2.7
			c3.2,0,6.5,0.9,6.6,2.8h0h0h0c0.2,0.2,1.8,1,4.7,1c2.9,0,4.6-0.8,4.7-1.1l1.9,0.1C131,85.6,127.7,86.5,124.4,86.5z"/>
		<path fill="#FFFFFF" d="M124.4,92.5c-3.2,0-6.5-0.9-6.6-2.8h0h0h0c-0.2-0.2-1.8-1-4.7-1c-2.9,0-4.5,0.7-4.7,1.1
			c-0.2,1.9-3.4,2.7-6.6,2.7c-3.2,0-6.5-0.9-6.6-2.8h0h0h0c-0.2-0.2-1.8-1-4.7-1c-2.9,0-4.5,0.7-4.7,1.1c-0.2,1.9-3.4,2.7-6.6,2.7
			c-3.2,0-6.5-0.9-6.6-2.8h0h0h0c-0.2-0.2-1.8-1-4.7-1c-2.9,0-4.5,0.7-4.7,1.1c-0.2,1.9-3.4,2.7-6.6,2.7c-3.2,0-6.5-0.9-6.6-2.8h0h0
			h0c-0.2-0.2-1.8-1-4.7-1c-2.9,0-4.6,0.8-4.7,1.1l-1.9-0.1c0-2,3.3-2.9,6.6-2.9c3.2,0,6.5,0.9,6.6,2.8h0h0h0c0.2,0.2,1.8,1,4.7,1
			c2.9,0,4.5-0.7,4.7-1.1c0.2-1.9,3.4-2.7,6.6-2.7c3.2,0,6.5,0.9,6.6,2.8h0h0h0c0.2,0.2,1.8,1,4.7,1c2.9,0,4.5-0.7,4.7-1.1
			c0.2-1.9,3.4-2.7,6.6-2.7c3.2,0,6.5,0.9,6.6,2.8h0h0h0c0.2,0.2,1.8,1,4.7,1c2.9,0,4.5-0.7,4.7-1.1c0.2-1.9,3.4-2.7,6.6-2.7
			c3.2,0,6.5,0.9,6.6,2.8h0h0h0c0.2,0.2,1.8,1,4.7,1c2.9,0,4.6-0.8,4.7-1.1l1.9,0.1C131,91.6,127.7,92.5,124.4,92.5z"/>
		<path fill="#FFFFFF" d="M124.4,98.5c-3.2,0-6.5-0.9-6.6-2.8h0h0h0c-0.2-0.2-1.8-1-4.7-1c-2.9,0-4.5,0.7-4.7,1.1
			c-0.2,1.9-3.4,2.7-6.6,2.7c-3.2,0-6.5-0.9-6.6-2.8h0h0h0c-0.2-0.2-1.8-1-4.7-1c-2.9,0-4.5,0.7-4.7,1.1c-0.2,1.9-3.4,2.7-6.6,2.7
			c-3.2,0-6.5-0.9-6.6-2.8h0h0h0c-0.2-0.2-1.8-1-4.7-1c-2.9,0-4.5,0.7-4.7,1.1c-0.2,1.9-3.4,2.7-6.6,2.7c-3.2,0-6.5-0.9-6.6-2.8h0h0
			h0c-0.2-0.2-1.8-1-4.7-1c-2.9,0-4.6,0.8-4.7,1.1l-1.9-0.1c0-2,3.3-2.9,6.6-2.9c3.2,0,6.5,0.9,6.6,2.8h0h0h0c0.2,0.2,1.8,1,4.7,1
			c2.9,0,4.5-0.7,4.7-1.1c0.2-1.9,3.4-2.7,6.6-2.7c3.2,0,6.5,0.9,6.6,2.8h0h0h0c0.2,0.2,1.8,1,4.7,1c2.9,0,4.5-0.7,4.7-1.1
			c0.2-1.9,3.4-2.7,6.6-2.7c3.2,0,6.5,0.9,6.6,2.8h0h0h0c0.2,0.2,1.8,1,4.7,1c2.9,0,4.5-0.7,4.7-1.1c0.2-1.9,3.4-2.7,6.6-2.7
			c3.2,0,6.5,0.9,6.6,2.8h0h0h0c0.2,0.2,1.8,1,4.7,1c2.9,0,4.6-0.8,4.7-1.1l1.9,0.1C131,97.6,127.7,98.5,124.4,98.5z"/>
		<path fill="#FFFFFF" d="M124.4,104.4c-3.2,0-6.5-0.9-6.6-2.8h0h0h0c-0.2-0.2-1.8-1-4.7-1c-2.9,0-4.5,0.7-4.7,1.1
			c-0.2,1.9-3.4,2.7-6.6,2.7c-3.2,0-6.5-0.9-6.6-2.8h0h0h0c-0.2-0.2-1.8-1-4.7-1c-2.9,0-4.5,0.7-4.7,1.1c-0.2,1.9-3.4,2.7-6.6,2.7
			c-3.2,0-6.5-0.9-6.6-2.8h0h0h0c-0.2-0.2-1.8-1-4.7-1c-2.9,0-4.5,0.7-4.7,1.1c-0.2,1.9-3.4,2.7-6.6,2.7c-3.2,0-6.5-0.9-6.6-2.8h0h0
			h0c-0.2-0.2-1.8-1-4.7-1c-2.9,0-4.6,0.8-4.7,1.1l-1.9-0.1c0-2,3.3-2.9,6.6-2.9c3.2,0,6.5,0.9,6.6,2.8h0h0h0c0.2,0.2,1.8,1,4.7,1
			c2.9,0,4.5-0.7,4.7-1.1c0.2-1.9,3.4-2.7,6.6-2.7c3.2,0,6.5,0.9,6.6,2.8h0h0h0c0.2,0.2,1.8,1,4.7,1c2.9,0,4.5-0.7,4.7-1.1
			c0.2-1.9,3.4-2.7,6.6-2.7c3.2,0,6.5,0.9,6.6,2.8h0h0h0c0.2,0.2,1.8,1,4.7,1c2.9,0,4.5-0.7,4.7-1.1c0.2-1.9,3.4-2.7,6.6-2.7
			c3.2,0,6.5,0.9,6.6,2.8h0h0h0c0.2,0.2,1.8,1,4.7,1c2.9,0,4.6-0.8,4.7-1.1l1.9,0.1C131,103.5,127.7,104.4,124.4,104.4z"/>
		<path fill="#FFFFFF" d="M124.4,110.4c-3.2,0-6.5-0.9-6.6-2.8h0h0h0c-0.2-0.2-1.8-1-4.7-1c-2.9,0-4.5,0.7-4.7,1.1
			c-0.2,1.9-3.4,2.7-6.6,2.7c-3.2,0-6.5-0.9-6.6-2.8h0h0h0c-0.2-0.2-1.8-1-4.7-1c-2.9,0-4.5,0.7-4.7,1.1c-0.2,1.9-3.4,2.7-6.6,2.7
			c-3.2,0-6.5-0.9-6.6-2.8h0h0h0c-0.2-0.2-1.8-1-4.7-1c-2.9,0-4.5,0.7-4.7,1.1c-0.2,1.9-3.4,2.7-6.6,2.7c-3.2,0-6.5-0.9-6.6-2.8h0h0
			h0c-0.2-0.2-1.8-1-4.7-1c-2.9,0-4.6,0.8-4.7,1.1l-1.9-0.1c0-2,3.3-2.9,6.6-2.9c3.2,0,6.5,0.9,6.6,2.8h0h0h0c0.2,0.2,1.8,1,4.7,1
			c2.9,0,4.5-0.7,4.7-1.1c0.2-1.9,3.4-2.7,6.6-2.7c3.2,0,6.5,0.9,6.6,2.8h0h0h0c0.2,0.2,1.8,1,4.7,1c2.9,0,4.5-0.7,4.7-1.1
			c0.2-1.9,3.4-2.7,6.6-2.7c3.2,0,6.5,0.9,6.6,2.8h0h0h0c0.2,0.2,1.8,1,4.7,1c2.9,0,4.5-0.7,4.7-1.1c0.2-1.9,3.4-2.7,6.6-2.7
			c3.2,0,6.5,0.9,6.6,2.8h0h0h0c0.2,0.2,1.8,1,4.7,1c2.9,0,4.6-0.8,4.7-1.1l1.9,0.1C131,109.5,127.7,110.4,124.4,110.4z"/>
		<path fill="#FFFFFF" d="M124.4,116.3c-3.2,0-6.5-0.9-6.6-2.8h0h0h0c-0.2-0.2-1.8-1-4.7-1c-2.9,0-4.5,0.7-4.7,1.1
			c-0.2,1.9-3.4,2.7-6.6,2.7c-3.2,0-6.5-0.9-6.6-2.8h0h0h0c-0.2-0.2-1.8-1-4.7-1c-2.9,0-4.5,0.7-4.7,1.1c-0.2,1.9-3.4,2.7-6.6,2.7
			c-3.2,0-6.5-0.9-6.6-2.8h0h0h0c-0.2-0.2-1.8-1-4.7-1c-2.9,0-4.5,0.7-4.7,1.1c-0.2,1.9-3.4,2.7-6.6,2.7c-3.2,0-6.5-0.9-6.6-2.8h0h0
			h0c-0.2-0.2-1.8-1-4.7-1c-2.9,0-4.6,0.8-4.7,1.1l-1.9-0.1c0-2,3.3-2.9,6.6-2.9c3.2,0,6.5,0.9,6.6,2.8h0h0h0c0.2,0.2,1.8,1,4.7,1
			c2.9,0,4.5-0.7,4.7-1.1c0.2-1.9,3.4-2.7,6.6-2.7c3.2,0,6.5,0.9,6.6,2.8h0h0h0c0.2,0.2,1.8,1,4.7,1c2.9,0,4.5-0.7,4.7-1.1
			c0.2-1.9,3.4-2.7,6.6-2.7c3.2,0,6.5,0.9,6.6,2.8h0h0h0c0.2,0.2,1.8,1,4.7,1c2.9,0,4.5-0.7,4.7-1.1c0.2-1.9,3.4-2.7,6.6-2.7
			c3.2,0,6.5,0.9,6.6,2.8h0h0h0c0.2,0.2,1.8,1,4.7,1c2.9,0,4.6-0.8,4.7-1.1l1.9,0.1C131,115.4,127.7,116.3,124.4,116.3z"/>
		<g>
			<g>
				<path fill="#FFFFFF" d="M36.1,154.8h42.5c2.4,0,4.4-2,4.4-4.4v-6.4c0-2.4-2-4.4-4.4-4.4H36.1c-2.4,0-4.4,2-4.4,4.4v6.4
					C31.7,152.9,33.7,154.8,36.1,154.8z"/>
				<path fill="#E30011" d="M78.6,156.5H36.1c-3.4,0-6.1-2.7-6.1-6.1v-6.4c0-3.4,2.7-6.1,6.1-6.1h42.5c3.4,0,6.1,2.7,6.1,6.1v6.4
					C84.6,153.8,81.9,156.5,78.6,156.5z M36.1,141.4c-1.5,0-2.7,1.2-2.7,2.7v6.4c0,1.5,1.2,2.7,2.7,2.7h42.5c1.5,0,2.7-1.2,2.7-2.7
					v-6.4c0-1.5-1.2-2.7-2.7-2.7H36.1z"/>
			</g>
			<g>
				<g>
					<path fill="#FFFFFF" d="M28.3,143.5c-13.8,0-25-11.2-25-25c0-13.8,11.2-25,25-25h57.8c13.8,0,25,11.2,25,25
						c0,13.8-11.2,25-25,25H28.3z"/>
					<path fill="#E30011" d="M86.1,145.2H28.3c-14.7,0-26.7-12-26.7-26.7s12-26.7,26.7-26.7h57.8c14.7,0,26.7,12,26.7,26.7
						S100.8,145.2,86.1,145.2z M28.3,95.2C15.5,95.2,5,105.6,5,118.5s10.4,23.3,23.3,23.3h57.8c12.8,0,23.3-10.4,23.3-23.3
						S98.9,95.2,86.1,95.2H28.3z"/>
				</g>
				<g>
					<path fill="#FFFFFF" d="M28.3,137.6c-10.5,0-19.1-8.5-19.1-19.1c0-10.5,8.5-19.1,19.1-19.1h57.8c10.5,0,19.1,8.5,19.1,19.1
						c0,10.5-8.5,19.1-19.1,19.1H28.3z"/>
					<path fill="#E30011" d="M86.1,139.3H28.3c-11.5,0-20.8-9.3-20.8-20.8c0-11.5,9.3-20.8,20.8-20.8h57.8
						c11.5,0,20.8,9.3,20.8,20.8C106.8,129.9,97.5,139.3,86.1,139.3z M28.3,101.1c-9.6,0-17.4,7.8-17.4,17.4s7.8,17.4,17.4,17.4
						h57.8c9.6,0,17.4-7.8,17.4-17.4s-7.8-17.4-17.4-17.4H28.3z"/>
				</g>
				<g>
					<circle fill="#FFFFFF" cx="57.2" cy="118.5" r="3.3"/>
					<path fill="#E30011" d="M57.2,123.5c-2.8,0-5-2.2-5-5s2.2-5,5-5c2.8,0,5,2.2,5,5S59.9,123.5,57.2,123.5z M57.2,116.9
						c-0.9,0-1.6,0.7-1.6,1.6c0,0.9,0.7,1.6,1.6,1.6c0.9,0,1.6-0.7,1.6-1.6C58.8,117.6,58.1,116.9,57.2,116.9z"/>
				</g>
			</g>
			<g>
				<g>
					<path fill="#FFFFFF" d="M40,145.3v1.2c0,1.9,1.6,3.5,3.5,3.5h27.7c1.9,0,3.5-1.6,3.5-3.5v-1.2c0-1.9-1.6-3.5-3.5-3.5H43.5
						C41.6,141.8,40,143.4,40,145.3z"/>
					<path fill="#E30011" d="M71.2,151.6H43.5c-2.9,0-5.2-2.3-5.2-5.2v-1.2c0-2.9,2.3-5.2,5.2-5.2h27.7c2.9,0,5.2,2.3,5.2,5.2v1.2
						C76.3,149.3,74,151.6,71.2,151.6z M43.5,143.5c-1,0-1.8,0.8-1.8,1.8v1.2c0,1,0.8,1.8,1.8,1.8h27.7c1,0,1.8-0.8,1.8-1.8v-1.2
						c0-1-0.8-1.8-1.8-1.8H43.5z"/>
				</g>
				<g>
					<path fill="#FFFFFF" d="M54.4,134.1c0-0.9,1.4-1.7,3-1.7c1.7,0,3,0.8,3,1.7v9.8c0,0.9-1.4,1.7-3,1.7c-1.7,0-3-0.8-3-1.7V134.1z
						"/>
					<path fill="#E30011" d="M57.5,147.3c-2.7,0-4.7-1.5-4.7-3.4v-9.8c0-1.9,2-3.4,4.7-3.4s4.7,1.5,4.7,3.4v9.8
						C62.2,145.8,60.2,147.3,57.5,147.3z M56.1,143.6c0.2,0.1,0.7,0.3,1.3,0.3c0.7,0,1.1-0.2,1.3-0.3v-9.2c-0.2-0.1-0.7-0.3-1.3-0.3
						c-0.7,0-1.1,0.2-1.3,0.3V143.6z"/>
				</g>
			</g>
		</g>
		<g>
			<g>
				<path fill="#FFFFFF" d="M31.5,89.8c8.9,0,16.1-7.2,16.1-16.1c0-8.9-7.2-16.1-16.1-16.1H7.9v32.1H31.5z"/>
				<path fill="#E30011" d="M31.5,91.5H6.2V55.9h25.3c9.8,0,17.8,8,17.8,17.8S41.3,91.5,31.5,91.5z M9.6,88.1h21.9
					c7.9,0,14.4-6.4,14.4-14.4s-6.4-14.4-14.4-14.4H9.6V88.1z"/>
			</g>
			<g>
				<circle fill="#FFFFFF" cx="31.5" cy="73.7" r="10.4"/>
				<path fill="#E30011" d="M31.5,85.7c-6.6,0-12.1-5.4-12.1-12.1c0-6.6,5.4-12.1,12.1-12.1S43.5,67,43.5,73.7
					C43.5,80.3,38.1,85.7,31.5,85.7z M31.5,65c-4.8,0-8.7,3.9-8.7,8.7s3.9,8.7,8.7,8.7s8.7-3.9,8.7-8.7S36.2,65,31.5,65z"/>
			</g>
			<g>
				<path fill="#FFFFFF" d="M2,61c0-3.2,2.6-5.8,5.8-5.8c3.2,0,5.8,2.6,5.8,5.8v25.3c0,3.2-2.6,5.8-5.8,5.8c-3.2,0-5.8-2.6-5.8-5.8
					V61z"/>
				<path fill="#E30011" d="M7.9,93.9c-4.2,0-7.5-3.4-7.5-7.5V61c0-4.2,3.4-7.5,7.5-7.5c4.2,0,7.5,3.4,7.5,7.5v25.3
					C15.4,90.5,12,93.9,7.9,93.9z M7.9,56.9c-2.3,0-4.1,1.9-4.1,4.1v25.3c0,2.3,1.9,4.1,4.1,4.1c2.3,0,4.1-1.9,4.1-4.1V61
					C12,58.8,10.2,56.9,7.9,56.9z"/>
			</g>
		</g>
		<g>
			<rect x="6.8" y="1.7" fill="#FFFFFF" width="34.4" height="50.1"/>
			<path fill="#E30011" d="M42.9,53.4H5.1V0h37.8V53.4z M8.5,50h31V3.4h-31V50z"/>
		</g>
		<rect x="34.8" y="1.7" fill="#E30011" width="3.4" height="50.1"/>
		<path fill="#E30011" d="M28,28.3H15.2c-2.4,0-4.4-2-4.4-4.4V12c0-2.4,2-4.4,4.4-4.4H28c2.4,0,4.4,2,4.4,4.4v12
			C32.3,26.4,30.4,28.3,28,28.3z M15.2,9.5c-1.4,0-2.5,1.1-2.5,2.5v12c0,1.4,1.1,2.5,2.5,2.5H28c1.4,0,2.5-1.1,2.5-2.5V12
			c0-1.4-1.1-2.5-2.5-2.5H15.2z"/>
		<path fill="#E30011" d="M26,24.5h-8.9c-1.3,0-2.4-1.1-2.4-2.4v-8.3c0-1.3,1.1-2.4,2.4-2.4H26c1.3,0,2.4,1.1,2.4,2.4v8.3
			C28.4,23.5,27.4,24.5,26,24.5z"/>
	</g>
</g>
<g id="Слой_4" display="none">
	
		<rect x="-14.1" y="-0.3" display="inline" fill="none" stroke="#E84918" stroke-width="0.2498" stroke-miterlimit="10" width="186.3" height="165.4"/>
</g>
</svg>
