<?xml version="1.0" encoding="utf-8"?>
<!-- Generator: Adobe Illustrator 19.1.0, SVG Export Plug-In . SVG Version: 6.00 Build 0)  -->
<svg version="1.1" baseProfile="tiny" xmlns="http://www.w3.org/2000/svg" xmlns:xlink="http://www.w3.org/1999/xlink" x="0px"
	 y="0px" viewBox="0 0 199.8 291.1" xml:space="preserve">
<g id="houses" display="none">
	<path display="inline" fill="#696A6C" d="M209.3,298.6H-526V-174h735.3V298.6z M-522.6,295.2h728.5v-465.7h-728.5V295.2z"/>
	
		<rect x="200.4" y="-10.4" transform="matrix(0.7068 0.7074 -0.7074 0.7068 57.2311 -143.8567)" display="inline" fill="#696A6C" width="3.6" height="15.1"/>
	<rect x="-3.6" y="0.1" display="inline" fill="#696A6C" width="201.1" height="3.4"/>
	<polygon display="inline" fill="#696A6C" points="199.6,284.6 -3.2,284.6 -3.2,281.2 196.2,281.2 196.2,2.2 199.6,2.2 	"/>
	
		<rect x="194.2" y="288.2" transform="matrix(0.5731 0.8195 -0.8195 0.5731 324.1233 -42.3617)" display="inline" fill="#696A6C" width="17" height="3.4"/>
</g>
<g id="Слой_3" display="none">
	<g display="inline">
		<rect x="117.6" y="113.5" fill="#696A6C" width="7.6" height="1.9"/>
		<rect x="117.6" y="109.1" fill="#696A6C" width="7.6" height="1.9"/>
		<rect x="117.6" y="104.6" fill="#696A6C" width="7.6" height="1.9"/>
		<rect x="117.6" y="100.1" fill="#696A6C" width="7.6" height="1.9"/>
		<rect x="117.6" y="95.6" fill="#696A6C" width="7.6" height="1.9"/>
		<rect x="117.6" y="91.2" fill="#696A6C" width="7.6" height="1.9"/>
		<rect x="117.6" y="86.7" fill="#696A6C" width="7.6" height="1.9"/>
		<rect x="117.6" y="82.2" fill="#696A6C" width="7.6" height="1.9"/>
		<rect x="117.6" y="77.7" fill="#696A6C" width="7.6" height="1.9"/>
		<rect x="117.6" y="73.3" fill="#696A6C" width="7.6" height="1.9"/>
		<rect x="117.6" y="68.8" fill="#696A6C" width="7.6" height="1.9"/>
		<rect x="117.6" y="64.3" fill="#696A6C" width="7.6" height="1.9"/>
		<rect x="117.6" y="59.8" fill="#696A6C" width="7.6" height="1.9"/>
		<rect x="117.6" y="55.4" fill="#696A6C" width="7.6" height="1.9"/>
		<rect x="117.6" y="50.9" fill="#696A6C" width="7.6" height="1.9"/>
		<rect x="117.6" y="46.4" fill="#696A6C" width="7.6" height="1.9"/>
		<rect x="117.6" y="41.9" fill="#696A6C" width="7.6" height="1.9"/>
		<rect x="37.7" y="113.5" fill="#696A6C" width="7.6" height="1.9"/>
		<rect x="37.7" y="109.1" fill="#696A6C" width="7.6" height="1.9"/>
		<rect x="37.7" y="104.6" fill="#696A6C" width="7.6" height="1.9"/>
		<rect x="37.7" y="100.1" fill="#696A6C" width="7.6" height="1.9"/>
		<rect x="37.7" y="95.6" fill="#696A6C" width="7.6" height="1.9"/>
		<rect x="37.7" y="91.2" fill="#696A6C" width="7.6" height="1.9"/>
		<rect x="37.7" y="86.7" fill="#696A6C" width="7.6" height="1.9"/>
		<rect x="37.7" y="82.2" fill="#696A6C" width="7.6" height="1.9"/>
		<rect x="37.7" y="77.7" fill="#696A6C" width="7.6" height="1.9"/>
		<rect x="37.7" y="73.3" fill="#696A6C" width="7.6" height="1.9"/>
		<rect x="37.7" y="68.8" fill="#696A6C" width="7.6" height="1.9"/>
		<rect x="37.7" y="64.3" fill="#696A6C" width="7.6" height="1.9"/>
		<rect x="37.7" y="59.8" fill="#696A6C" width="7.6" height="1.9"/>
		<rect x="37.7" y="55.4" fill="#696A6C" width="7.6" height="1.9"/>
		<rect x="37.7" y="50.9" fill="#696A6C" width="7.6" height="1.9"/>
		<rect x="37.7" y="46.4" fill="#696A6C" width="7.6" height="1.9"/>
		<rect x="37.7" y="41.9" fill="#696A6C" width="7.6" height="1.9"/>
		<path fill="#696A6C" d="M119.3,118.1H43.7V38.6h75.6V118.1z M47.1,114.7h68.8V42H47.1V114.7z"/>
		<path fill="#696A6C" d="M64.8,80L47.6,62.8l17.1-17.1l17.2,17.1L64.8,80z M50.3,62.8l14.5,14.5l14.5-14.5L64.8,48.4L50.3,62.8z"/>
		<path fill="#696A6C" d="M64.8,111.6L47.6,94.5l17.1-17.2l17.2,17.2L64.8,111.6z M50.3,94.5L64.8,109l14.5-14.5L64.8,80L50.3,94.5z
			"/>
		<path fill="#696A6C" d="M97.3,80L80.1,62.8l17.1-17.1l17.2,17.1L97.3,80z M82.8,62.8l14.5,14.5l14.5-14.5L97.3,48.4L82.8,62.8z"/>
		<path fill="#696A6C" d="M97.3,111.6L80.1,94.5l17.1-17.2l17.2,17.2L97.3,111.6z M82.8,94.5L97.3,109l14.5-14.5L97.3,80L82.8,94.5z
			"/>
		<path fill="#696A6C" d="M64.8,75.2L52.4,62.8l12.3-12.3l12.3,12.3L64.8,75.2z M55.1,62.8l9.7,9.7l9.7-9.7l-9.7-9.7L55.1,62.8z"/>
		<path fill="#696A6C" d="M97.3,75.2L84.9,62.8l12.3-12.3l12.3,12.3L97.3,75.2z M87.6,62.8l9.7,9.7l9.7-9.7l-9.7-9.7L87.6,62.8z"/>
		<path fill="#696A6C" d="M97.3,106.8L84.9,94.5l12.3-12.3l12.3,12.3L97.3,106.8z M87.6,94.5l9.7,9.7l9.7-9.7l-9.7-9.7L87.6,94.5z"
			/>
		<path fill="#696A6C" d="M64.8,106.8L52.4,94.5l12.3-12.3l12.3,12.3L64.8,106.8z M55.1,94.5l9.7,9.7l9.7-9.7l-9.7-9.7L55.1,94.5z"
			/>
		<polygon fill="#696A6C" points="82.1,88.6 80.8,87.2 89.3,78.7 80.8,70.2 82.2,68.9 92,78.7 		"/>
		
			<rect x="75.2" y="98.7" transform="matrix(0.7071 0.7071 -0.7071 0.7071 96.8943 -22.9219)" fill="#696A6C" width="1.9" height="13.6"/>
		
			<rect x="69.3" y="50" transform="matrix(0.7071 0.7071 -0.7071 0.7071 58.3272 -38.9461)" fill="#696A6C" width="13.8" height="1.9"/>
		
			<rect x="107.8" y="67.7" transform="matrix(0.7071 0.7071 -0.7071 0.7071 84.1045 -55.2556)" fill="#696A6C" width="1.9" height="12.3"/>
		
			<rect x="52" y="78.3" transform="matrix(0.7071 0.7071 -0.7071 0.7071 74.8418 -12.8504)" fill="#696A6C" width="1.9" height="11.3"/>
		<g>
			<rect x="64.4" y="139.3" fill="#FFFFFF" width="123.1" height="143"/>
			<path fill="#696A6C" d="M189.2,284H62.7V137.6h126.5V284z M66.1,280.6h119.7V141H66.1V280.6z"/>
		</g>
		<rect x="64.4" y="255.9" fill="#696A6C" width="122.7" height="26.1"/>
		<path fill="#696A6C" d="M187.1,141H64.9c-2.5,0-4.5-2-4.5-4.5c0-2.5,2-4.5,4.5-4.5h122.3c2.5,0,4.5,2,4.5,4.5
			C191.6,139,189.6,141,187.1,141z M64.9,135.5c-0.6,0-1.1,0.5-1.1,1.1c0,0.6,0.5,1.1,1.1,1.1h122.3c0.6,0,1.1-0.5,1.1-1.1
			c0-0.6-0.5-1.1-1.1-1.1H64.9z"/>
		<path fill="#696A6C" d="M187.1,291.1H64.9c-2.5,0-4.5-2-4.5-4.5c0-2.5,2-4.5,4.5-4.5h122.3c2.5,0,4.5,2,4.5,4.5
			C191.6,289.1,189.6,291.1,187.1,291.1z M64.9,285.6c-0.6,0-1.1,0.5-1.1,1.1c0,0.6,0.5,1.1,1.1,1.1h122.3c0.6,0,1.1-0.5,1.1-1.1
			c0-0.6-0.5-1.1-1.1-1.1H64.9z"/>
		<rect x="64.4" y="171.1" fill="#696A6C" width="123.1" height="1.9"/>
		<rect x="64.4" y="164.4" fill="#696A6C" width="123.1" height="1.9"/>
		<rect x="64.4" y="157.6" fill="#696A6C" width="123.1" height="1.9"/>
		<rect x="64.4" y="150.9" fill="#696A6C" width="123.1" height="1.9"/>
		<rect x="64.4" y="144.2" fill="#696A6C" width="123.1" height="1.9"/>
		<g>
			<g>
				<rect x="127.2" y="256.5" fill="#FFFFFF" width="47.8" height="26.9"/>
				<path fill="#696A6C" d="M176.7,285.1h-51.2v-30.3h51.2V285.1z M128.9,281.7h44.4v-23.5h-44.4V281.7z"/>
			</g>
			<g>
				<rect x="75.1" y="256.5" fill="#FFFFFF" width="47.8" height="26.9"/>
				<path fill="#696A6C" d="M124.6,285.1H73.4v-30.3h51.2V285.1z M76.8,281.7h44.4v-23.5H76.8V281.7z"/>
			</g>
		</g>
		
			<rect x="90.9" y="191" transform="matrix(0.7071 0.7071 -0.7071 0.7071 185.1814 0.6578)" fill="#696A6C" width="1.7" height="65.7"/>
		
			<rect x="109" y="198.7" transform="matrix(0.345 0.9386 -0.9386 0.345 291.7829 50.355)" fill="#696A6C" width="1.7" height="71"/>
		<g>
			<path fill="#FFFFFF" d="M187.1,263.3l-8.4-3c0,0-7.4-3.8-25.4-3.8c-20.8,0-20.7,3.6-27.6,3.8c-7,0.2-8.1-3.8-27.7-3.8
				c-22.5,0-33.7,3.8-33.7,3.8V248c0,0,22.2-3.4,29.6-3.1c8,0.4,24.1,3.5,31.8,3.5c6.6,0,19.8-4.4,26.6-5c8.8-0.7,35.2,4.6,35.2,4.6
				L187.1,263.3z"/>
			<path fill="#696A6C" d="M188.8,265.7l-10.8-3.9c-0.1,0-7.4-3.6-24.6-3.6c-13.1,0-17.8,1.4-21.1,2.5c-2,0.6-3.7,1.2-6.5,1.3
				c-3,0.1-5-0.5-7.4-1.2c-3.6-1.1-8.5-2.5-20.3-2.5c-21.9,0-33,3.6-33.1,3.7l-2.2,0.7l0-16.1l1.4-0.2c0.9-0.1,22.4-3.4,29.9-3.1
				c3.7,0.2,8.9,0.9,14.5,1.7c6.4,0.9,13,1.8,17.1,1.8c0,0,0.1,0,0.1,0c3.4,0,8.9-1.3,14.1-2.6c4.7-1.1,9.1-2.1,12.3-2.4
				c8.9-0.7,34.6,4.4,35.7,4.6l1.4,0.3L188.8,265.7z M179.4,258.7l6.1,2.2l0.3-11.5c-5.6-1.1-26-4.8-33.3-4.3
				c-2.9,0.2-7.2,1.2-11.8,2.3c-5.5,1.3-11.1,2.6-14.9,2.6c-4.3,0-11.1-0.9-17.7-1.8c-5.5-0.8-10.6-1.5-14.2-1.6
				c-6.1-0.3-22.8,2.1-27.8,2.8v8.6c4.3-1.1,14.9-3.2,32-3.2c12.3,0,17.5,1.6,21.3,2.7c2.3,0.7,3.9,1.2,6.3,1.1
				c2.2-0.1,3.6-0.5,5.5-1.1c3.6-1.1,8.5-2.7,22.1-2.7C170.6,254.8,178.4,258.2,179.4,258.7z"/>
		</g>
		<path fill="#696A6C" d="M117.6,264.1c-0.1,0-14.2-4.6-28.1-2.3l-0.3-1.7c14.3-2.4,28.4,2.1,28.9,2.3L117.6,264.1z"/>
		<rect x="169.4" y="1.8" fill="#696A6C" width="1.9" height="82.8"/>
		<ellipse fill="#696A6C" cx="155.8" cy="27.6" rx="1.7" ry="3.1"/>
		<ellipse fill="#696A6C" cx="155.8" cy="59.7" rx="1.7" ry="3.1"/>
		<path fill="#696A6C" d="M199.8,86.3h-36.5L147.6,80V6.1L161.9,0l0.2,0.4V0.2h37.8V86.3z M164,82.9h32.4V3.6h-31v79.3L164,82.9
			L164,82.9z M151,77.7l11,4.4V3.6l-11,4.7V77.7z"/>
		<rect x="149.4" y="42.3" fill="#696A6C" width="14.2" height="2.3"/>
		<g>
			<rect x="1.7" y="209.9" fill="#FFFFFF" width="23.5" height="65.7"/>
			<path fill="#696A6C" d="M26.9,277.3H0v-69.1h26.9V277.3z M3.4,273.9h20.1v-62.3H3.4V273.9z"/>
		</g>
		<g>
			<rect x="25.2" y="216.9" fill="#FFFFFF" width="16.5" height="53.2"/>
			<path fill="#696A6C" d="M43.3,271.7H23.5v-56.6h19.8V271.7z M26.9,268.3h13.1v-49.8H26.9V268.3z"/>
		</g>
		<g>
			<rect x="25.2" y="221.4" fill="#FFFFFF" width="11.7" height="44.3"/>
			<path fill="#696A6C" d="M37.9,266.7H24.2v-46.3h13.7V266.7z M26.1,264.8h9.8v-42.4h-9.8V264.8z"/>
		</g>
		<ellipse fill="#696A6C" cx="45.2" cy="244.6" rx="1.7" ry="3.1"/>
		<rect x="25.2" y="226" fill="#696A6C" width="8.2" height="15.5"/>
		<g>
			<rect x="25.2" y="244.5" fill="#FFFFFF" width="8.2" height="15.5"/>
			<path fill="#696A6C" d="M34.4,260.9H24.2v-17.4h10.2V260.9z M26.1,259h6.3v-13.6h-6.3V259z"/>
		</g>
	</g>
</g>
<g id="Слой_3__x28_копия_x29_">
	<rect x="117.6" y="113.5" fill="#E30011" width="7.6" height="1.9"/>
	<rect x="117.6" y="109.1" fill="#E30011" width="7.6" height="1.9"/>
	<rect x="117.6" y="104.6" fill="#E30011" width="7.6" height="1.9"/>
	<rect x="117.6" y="100.1" fill="#E30011" width="7.6" height="1.9"/>
	<rect x="117.6" y="95.6" fill="#E30011" width="7.6" height="1.9"/>
	<rect x="117.6" y="91.2" fill="#E30011" width="7.6" height="1.9"/>
	<rect x="117.6" y="86.7" fill="#E30011" width="7.6" height="1.9"/>
	<rect x="117.6" y="82.2" fill="#E30011" width="7.6" height="1.9"/>
	<rect x="117.6" y="77.7" fill="#E30011" width="7.6" height="1.9"/>
	<rect x="117.6" y="73.3" fill="#E30011" width="7.6" height="1.9"/>
	<rect x="117.6" y="68.8" fill="#E30011" width="7.6" height="1.9"/>
	<rect x="117.6" y="64.3" fill="#E30011" width="7.6" height="1.9"/>
	<rect x="117.6" y="59.8" fill="#E30011" width="7.6" height="1.9"/>
	<rect x="117.6" y="55.4" fill="#E30011" width="7.6" height="1.9"/>
	<rect x="117.6" y="50.9" fill="#E30011" width="7.6" height="1.9"/>
	<rect x="117.6" y="46.4" fill="#E30011" width="7.6" height="1.9"/>
	<rect x="117.6" y="41.9" fill="#E30011" width="7.6" height="1.9"/>
	<rect x="37.7" y="113.5" fill="#E30011" width="7.6" height="1.9"/>
	<rect x="37.7" y="109.1" fill="#E30011" width="7.6" height="1.9"/>
	<rect x="37.7" y="104.6" fill="#E30011" width="7.6" height="1.9"/>
	<rect x="37.7" y="100.1" fill="#E30011" width="7.6" height="1.9"/>
	<rect x="37.7" y="95.6" fill="#E30011" width="7.6" height="1.9"/>
	<rect x="37.7" y="91.2" fill="#E30011" width="7.6" height="1.9"/>
	<rect x="37.7" y="86.7" fill="#E30011" width="7.6" height="1.9"/>
	<rect x="37.7" y="82.2" fill="#E30011" width="7.6" height="1.9"/>
	<rect x="37.7" y="77.7" fill="#E30011" width="7.6" height="1.9"/>
	<rect x="37.7" y="73.3" fill="#E30011" width="7.6" height="1.9"/>
	<rect x="37.7" y="68.8" fill="#E30011" width="7.6" height="1.9"/>
	<rect x="37.7" y="64.3" fill="#E30011" width="7.6" height="1.9"/>
	<rect x="37.7" y="59.8" fill="#E30011" width="7.6" height="1.9"/>
	<rect x="37.7" y="55.4" fill="#E30011" width="7.6" height="1.9"/>
	<rect x="37.7" y="50.9" fill="#E30011" width="7.6" height="1.9"/>
	<rect x="37.7" y="46.4" fill="#E30011" width="7.6" height="1.9"/>
	<rect x="37.7" y="41.9" fill="#E30011" width="7.6" height="1.9"/>
	<path fill="#E30011" d="M119.3,118.1H43.7V38.6h75.6V118.1z M47.1,114.7h68.8V42H47.1V114.7z"/>
	<path fill="#E30011" d="M64.8,80L47.6,62.8l17.1-17.1l17.2,17.1L64.8,80z M50.3,62.8l14.5,14.5l14.5-14.5L64.8,48.4L50.3,62.8z"/>
	<path fill="#E30011" d="M64.8,111.6L47.6,94.5l17.1-17.2l17.2,17.2L64.8,111.6z M50.3,94.5L64.8,109l14.5-14.5L64.8,80L50.3,94.5z"
		/>
	<path fill="#E30011" d="M97.3,80L80.1,62.8l17.1-17.1l17.2,17.1L97.3,80z M82.8,62.8l14.5,14.5l14.5-14.5L97.3,48.4L82.8,62.8z"/>
	<path fill="#E30011" d="M97.3,111.6L80.1,94.5l17.1-17.2l17.2,17.2L97.3,111.6z M82.8,94.5L97.3,109l14.5-14.5L97.3,80L82.8,94.5z"
		/>
	<path fill="#E30011" d="M64.8,75.2L52.4,62.8l12.3-12.3l12.3,12.3L64.8,75.2z M55.1,62.8l9.7,9.7l9.7-9.7l-9.7-9.7L55.1,62.8z"/>
	<path fill="#E30011" d="M97.3,75.2L84.9,62.8l12.3-12.3l12.3,12.3L97.3,75.2z M87.6,62.8l9.7,9.7l9.7-9.7l-9.7-9.7L87.6,62.8z"/>
	<path fill="#E30011" d="M97.3,106.8L84.9,94.5l12.3-12.3l12.3,12.3L97.3,106.8z M87.6,94.5l9.7,9.7l9.7-9.7l-9.7-9.7L87.6,94.5z"/>
	<path fill="#E30011" d="M64.8,106.8L52.4,94.5l12.3-12.3l12.3,12.3L64.8,106.8z M55.1,94.5l9.7,9.7l9.7-9.7l-9.7-9.7L55.1,94.5z"/>
	<polygon fill="#E30011" points="82.1,88.6 80.8,87.2 89.3,78.7 80.8,70.2 82.2,68.9 92,78.7 	"/>
	
		<rect x="75.2" y="98.7" transform="matrix(0.7071 0.7071 -0.7071 0.7071 96.8943 -22.9219)" fill="#E30011" width="1.9" height="13.6"/>
	
		<rect x="69.3" y="50" transform="matrix(0.7071 0.7071 -0.7071 0.7071 58.3272 -38.9461)" fill="#E30011" width="13.8" height="1.9"/>
	
		<rect x="107.8" y="67.7" transform="matrix(0.7071 0.7071 -0.7071 0.7071 84.1045 -55.2556)" fill="#E30011" width="1.9" height="12.3"/>
	
		<rect x="52" y="78.3" transform="matrix(0.7071 0.7071 -0.7071 0.7071 74.8418 -12.8504)" fill="#E30011" width="1.9" height="11.3"/>
	<rect x="64.4" y="139.3" fill="#FFFFFF" width="123.1" height="143"/>
	<path fill="#E30011" d="M189.2,284H62.7V137.6h126.5V284z M66.1,280.6h119.7V141H66.1V280.6z"/>
	<rect x="64.4" y="255.9" fill="#E30011" width="122.7" height="26.1"/>
	<path fill="#E30011" d="M187.1,141H64.9c-2.5,0-4.5-2-4.5-4.5c0-2.5,2-4.5,4.5-4.5h122.3c2.5,0,4.5,2,4.5,4.5
		C191.6,139,189.6,141,187.1,141z M64.9,135.5c-0.6,0-1.1,0.5-1.1,1.1c0,0.6,0.5,1.1,1.1,1.1h122.3c0.6,0,1.1-0.5,1.1-1.1
		c0-0.6-0.5-1.1-1.1-1.1H64.9z"/>
	<path fill="#E30011" d="M187.1,291.1H64.9c-2.5,0-4.5-2-4.5-4.5c0-2.5,2-4.5,4.5-4.5h122.3c2.5,0,4.5,2,4.5,4.5
		C191.6,289.1,189.6,291.1,187.1,291.1z M64.9,285.6c-0.6,0-1.1,0.5-1.1,1.1c0,0.6,0.5,1.1,1.1,1.1h122.3c0.6,0,1.1-0.5,1.1-1.1
		c0-0.6-0.5-1.1-1.1-1.1H64.9z"/>
	<rect x="64.4" y="171.1" fill="#E30011" width="123.1" height="1.9"/>
	<rect x="64.4" y="164.4" fill="#E30011" width="123.1" height="1.9"/>
	<rect x="64.4" y="157.6" fill="#E30011" width="123.1" height="1.9"/>
	<rect x="64.4" y="150.9" fill="#E30011" width="123.1" height="1.9"/>
	<rect x="64.4" y="144.2" fill="#E30011" width="123.1" height="1.9"/>
	<rect x="127.2" y="256.5" fill="#FFFFFF" width="47.8" height="26.9"/>
	<path fill="#E30011" d="M176.7,285.1h-51.2v-30.3h51.2V285.1z M128.9,281.7h44.4v-23.5h-44.4V281.7z"/>
	<rect x="75.1" y="256.5" fill="#FFFFFF" width="47.8" height="26.9"/>
	<path fill="#E30011" d="M124.6,285.1H73.4v-30.3h51.2V285.1z M76.8,281.7h44.4v-23.5H76.8V281.7z"/>
	
		<rect x="90.9" y="191" transform="matrix(0.7071 0.7071 -0.7071 0.7071 185.1814 0.6578)" fill="#E30011" width="1.7" height="65.7"/>
	<rect x="109" y="198.7" transform="matrix(0.345 0.9386 -0.9386 0.345 291.7829 50.355)" fill="#E30011" width="1.7" height="71"/>
	<path fill="#FFFFFF" d="M187.1,263.3l-8.4-3c0,0-7.4-3.8-25.4-3.8c-20.8,0-20.7,3.6-27.6,3.8c-7,0.2-8.1-3.8-27.7-3.8
		c-22.5,0-33.7,3.8-33.7,3.8V248c0,0,22.2-3.4,29.6-3.1c8,0.4,24.1,3.5,31.8,3.5c6.6,0,19.8-4.4,26.6-5c8.8-0.7,35.2,4.6,35.2,4.6
		L187.1,263.3z"/>
	<path fill="#E30011" d="M188.8,265.7l-10.8-3.9c-0.1,0-7.4-3.6-24.6-3.6c-13.1,0-17.8,1.4-21.1,2.5c-2,0.6-3.7,1.2-6.5,1.3
		c-3,0.1-5-0.5-7.4-1.2c-3.6-1.1-8.5-2.5-20.3-2.5c-21.9,0-33,3.6-33.1,3.7l-2.2,0.7l0-16.1l1.4-0.2c0.9-0.1,22.4-3.4,29.9-3.1
		c3.7,0.2,8.9,0.9,14.5,1.7c6.4,0.9,13,1.8,17.1,1.8c0,0,0.1,0,0.1,0c3.4,0,8.9-1.3,14.1-2.6c4.7-1.1,9.1-2.1,12.3-2.4
		c8.9-0.7,34.6,4.4,35.7,4.6l1.4,0.3L188.8,265.7z M179.4,258.7l6.1,2.2l0.3-11.5c-5.6-1.1-26-4.8-33.3-4.3
		c-2.9,0.2-7.2,1.2-11.8,2.3c-5.5,1.3-11.1,2.6-14.9,2.6c-4.3,0-11.1-0.9-17.7-1.8c-5.5-0.8-10.6-1.5-14.2-1.6
		c-6.1-0.3-22.8,2.1-27.8,2.8v8.6c4.3-1.1,14.9-3.2,32-3.2c12.3,0,17.5,1.6,21.3,2.7c2.3,0.7,3.9,1.2,6.3,1.1
		c2.2-0.1,3.6-0.5,5.5-1.1c3.6-1.1,8.5-2.7,22.1-2.7C170.6,254.8,178.4,258.2,179.4,258.7z"/>
	<path fill="#E30011" d="M117.6,264.1c-0.1,0-14.2-4.6-28.1-2.3l-0.3-1.7c14.3-2.4,28.4,2.1,28.9,2.3L117.6,264.1z"/>
	<rect x="169.4" y="1.8" fill="#E30011" width="1.9" height="82.8"/>
	<ellipse fill="#E30011" cx="155.8" cy="27.6" rx="1.7" ry="3.1"/>
	<ellipse fill="#E30011" cx="155.8" cy="59.7" rx="1.7" ry="3.1"/>
	<path fill="#E30011" d="M199.8,86.3h-36.5L147.6,80V6.1L161.9,0l0.2,0.4V0.2h37.8V86.3z M164,82.9h32.4V3.6h-31v79.3L164,82.9
		L164,82.9z M151,77.7l11,4.4V3.6l-11,4.7V77.7z"/>
	<rect x="149.4" y="42.3" fill="#E30011" width="14.2" height="2.3"/>
	<rect x="1.7" y="209.9" fill="#FFFFFF" width="23.5" height="65.7"/>
	<path fill="#E30011" d="M26.9,277.3H0v-69.1h26.9V277.3z M3.4,273.9h20.1v-62.3H3.4V273.9z"/>
	<rect x="25.2" y="216.9" fill="#FFFFFF" width="16.5" height="53.2"/>
	<path fill="#E30011" d="M43.3,271.7H23.5v-56.6h19.8V271.7z M26.9,268.3h13.1v-49.8H26.9V268.3z"/>
	<rect x="25.2" y="221.4" fill="#FFFFFF" width="11.7" height="44.3"/>
	<path fill="#E30011" d="M37.9,266.7H24.2v-46.3h13.7V266.7z M26.1,264.8h9.8v-42.4h-9.8V264.8z"/>
	<ellipse fill="#E30011" cx="45.2" cy="244.6" rx="1.7" ry="3.1"/>
	<rect x="25.2" y="226" fill="#E30011" width="8.2" height="15.5"/>
	<rect x="25.2" y="244.5" fill="#FFFFFF" width="8.2" height="15.5"/>
	<path fill="#E30011" d="M34.4,260.9H24.2v-17.4h10.2V260.9z M26.1,259h6.3v-13.6h-6.3V259z"/>
</g>
<g id="Слой_2" display="none">
	<g display="inline">
		<rect x="117.9" y="113.5" fill="#E30011" width="7.6" height="1.9"/>
		<rect x="117.9" y="109" fill="#E30011" width="7.6" height="1.9"/>
		<rect x="117.9" y="104.6" fill="#E30011" width="7.6" height="1.9"/>
		<rect x="117.9" y="100.1" fill="#E30011" width="7.6" height="1.9"/>
		<rect x="117.9" y="95.6" fill="#E30011" width="7.6" height="1.9"/>
		<rect x="117.9" y="91.1" fill="#E30011" width="7.6" height="1.9"/>
		<rect x="117.9" y="86.7" fill="#E30011" width="7.6" height="1.9"/>
		<rect x="117.9" y="82.2" fill="#E30011" width="7.6" height="1.9"/>
		<rect x="117.9" y="77.7" fill="#E30011" width="7.6" height="1.9"/>
		<rect x="117.9" y="73.2" fill="#E30011" width="7.6" height="1.9"/>
		<rect x="117.9" y="68.8" fill="#E30011" width="7.6" height="1.9"/>
		<rect x="117.9" y="64.3" fill="#E30011" width="7.6" height="1.9"/>
		<rect x="117.9" y="59.8" fill="#E30011" width="7.6" height="1.9"/>
		<rect x="117.9" y="55.3" fill="#E30011" width="7.6" height="1.9"/>
		<rect x="117.9" y="50.9" fill="#E30011" width="7.6" height="1.9"/>
		<rect x="117.9" y="46.4" fill="#E30011" width="7.6" height="1.9"/>
		<rect x="117.9" y="41.9" fill="#E30011" width="7.6" height="1.9"/>
		<rect x="38.1" y="113.5" fill="#E30011" width="7.6" height="1.9"/>
		<rect x="38.1" y="109" fill="#E30011" width="7.6" height="1.9"/>
		<rect x="38.1" y="104.6" fill="#E30011" width="7.6" height="1.9"/>
		<rect x="38.1" y="100.1" fill="#E30011" width="7.6" height="1.9"/>
		<rect x="38.1" y="95.6" fill="#E30011" width="7.6" height="1.9"/>
		<rect x="38.1" y="91.1" fill="#E30011" width="7.6" height="1.9"/>
		<rect x="38.1" y="86.7" fill="#E30011" width="7.6" height="1.9"/>
		<rect x="38.1" y="82.2" fill="#E30011" width="7.6" height="1.9"/>
		<rect x="38.1" y="77.7" fill="#E30011" width="7.6" height="1.9"/>
		<rect x="38.1" y="73.2" fill="#E30011" width="7.6" height="1.9"/>
		<rect x="38.1" y="68.8" fill="#E30011" width="7.6" height="1.9"/>
		<rect x="38.1" y="64.3" fill="#E30011" width="7.6" height="1.9"/>
		<rect x="38.1" y="59.8" fill="#E30011" width="7.6" height="1.9"/>
		<rect x="38.1" y="55.3" fill="#E30011" width="7.6" height="1.9"/>
		<rect x="38.1" y="50.9" fill="#E30011" width="7.6" height="1.9"/>
		<rect x="38.1" y="46.4" fill="#E30011" width="7.6" height="1.9"/>
		<rect x="38.1" y="41.9" fill="#E30011" width="7.6" height="1.9"/>
		<path fill="#E30011" d="M119.6,118H44V38.6h75.6V118z M47.4,114.6h68.8V42H47.4V114.6z"/>
		<path fill="#E30011" d="M65.1,80L47.9,62.8l17.2-17.2l17.1,17.2L65.1,80z M50.6,62.8l14.5,14.5l14.5-14.5L65.1,48.3L50.6,62.8z"/>
		<path fill="#E30011" d="M65.1,111.6L47.9,94.5l17.2-17.2l17.1,17.2L65.1,111.6z M50.6,94.5L65.1,109l14.5-14.5L65.1,80L50.6,94.5z
			"/>
		<path fill="#E30011" d="M97.6,80L80.5,62.8l17.2-17.2l17.1,17.2L97.6,80z M83.1,62.8l14.5,14.5l14.5-14.5L97.6,48.3L83.1,62.8z"/>
		<path fill="#E30011" d="M97.6,111.6L80.5,94.5l17.2-17.2l17.1,17.2L97.6,111.6z M83.1,94.5L97.6,109l14.5-14.5L97.6,80L83.1,94.5z
			"/>
		<path fill="#E30011" d="M65.1,75.2L52.8,62.8l12.3-12.3l12.3,12.3L65.1,75.2z M55.4,62.8l9.7,9.7l9.7-9.7l-9.7-9.7L55.4,62.8z"/>
		<path fill="#E30011" d="M97.6,75.2L85.3,62.8l12.3-12.3L110,62.8L97.6,75.2z M88,62.8l9.7,9.7l9.7-9.7l-9.7-9.7L88,62.8z"/>
		<path fill="#E30011" d="M97.6,106.8L85.3,94.5l12.3-12.3L110,94.5L97.6,106.8z M88,94.5l9.7,9.7l9.7-9.7l-9.7-9.7L88,94.5z"/>
		<path fill="#E30011" d="M65.1,106.8L52.8,94.5l12.3-12.3l12.3,12.3L65.1,106.8z M55.4,94.5l9.7,9.7l9.7-9.7l-9.7-9.7L55.4,94.5z"
			/>
		<polygon fill="#E30011" points="82.5,88.6 81.1,87.2 89.7,78.7 81.2,70.2 82.5,68.9 92.3,78.7 		"/>
		
			<rect x="75.5" y="98.7" transform="matrix(0.7071 0.7071 -0.7071 0.7071 96.9792 -23.1666)" fill="#E30011" width="1.9" height="13.6"/>
		
			<rect x="69.6" y="50" transform="matrix(0.7071 0.7071 -0.7071 0.7071 58.4158 -39.192)" fill="#E30011" width="13.8" height="1.9"/>
		
			<rect x="108.1" y="67.7" transform="matrix(0.7071 0.7071 -0.7071 0.7071 84.1887 -55.5003)" fill="#E30011" width="1.9" height="12.3"/>
		
			<rect x="52.3" y="78.3" transform="matrix(0.7071 0.7071 -0.7071 0.7071 74.9272 -13.0945)" fill="#E30011" width="1.9" height="11.3"/>
		<g>
			<rect x="69.8" y="139.3" fill="#FFFFFF" width="123.1" height="143"/>
			<path fill="#E30011" d="M194.6,284H68.1V137.6h126.5V284z M71.5,280.6h119.7V141H71.5V280.6z"/>
		</g>
		<rect x="69.8" y="255.9" fill="#E30011" width="122.7" height="26.1"/>
		<path fill="#E30011" d="M192.5,141H70.2c-2.5,0-4.5-2-4.5-4.5s2-4.5,4.5-4.5h122.3c2.5,0,4.5,2,4.5,4.5S194.9,141,192.5,141z
			 M70.2,135.5c-0.6,0-1.1,0.5-1.1,1.1s0.5,1.1,1.1,1.1h122.3c0.6,0,1.1-0.5,1.1-1.1s-0.5-1.1-1.1-1.1H70.2z"/>
		<path fill="#E30011" d="M192.5,291.1H70.2c-2.5,0-4.5-2-4.5-4.5c0-2.5,2-4.5,4.5-4.5h122.3c2.5,0,4.5,2,4.5,4.5
			C196.9,289.1,194.9,291.1,192.5,291.1z M70.2,285.6c-0.6,0-1.1,0.5-1.1,1.1c0,0.6,0.5,1.1,1.1,1.1h122.3c0.6,0,1.1-0.5,1.1-1.1
			c0-0.6-0.5-1.1-1.1-1.1H70.2z"/>
		<rect x="69.8" y="171.1" fill="#E30011" width="123.1" height="1.9"/>
		<rect x="69.8" y="164.3" fill="#E30011" width="123.1" height="1.9"/>
		<rect x="69.8" y="157.6" fill="#E30011" width="123.1" height="1.9"/>
		<rect x="69.8" y="150.9" fill="#E30011" width="123.1" height="1.9"/>
		<rect x="69.8" y="144.2" fill="#E30011" width="123.1" height="1.9"/>
		<g>
			<g>
				<rect x="132.5" y="256.5" fill="#FFFFFF" width="47.8" height="26.9"/>
				<path fill="#E30011" d="M182.1,285.1h-51.2v-30.3h51.2V285.1z M134.2,281.7h44.4v-23.5h-44.4V281.7z"/>
			</g>
			<g>
				<rect x="80.4" y="256.5" fill="#FFFFFF" width="47.8" height="26.9"/>
				<path fill="#E30011" d="M129.9,285.1H78.7v-30.3h51.2V285.1z M82.1,281.7h44.4v-23.5H82.1V281.7z"/>
			</g>
		</g>
		
			<rect x="96.3" y="191" transform="matrix(0.7071 0.7071 -0.7071 0.7071 186.7301 -3.1228)" fill="#E30011" width="1.7" height="65.7"/>
		
			<rect x="114.3" y="198.7" transform="matrix(0.345 0.9386 -0.9386 0.345 295.2605 45.3319)" fill="#E30011" width="1.7" height="71"/>
		<g>
			<path fill="#FFFFFF" d="M192.5,263.3l-8.4-3c0,0-7.4-3.8-25.4-3.8c-20.8,0-20.7,3.6-27.6,3.8c-7,0.2-8.1-3.8-27.7-3.8
				c-22.5,0-33.7,3.8-33.7,3.8V248c0,0,22.2-3.4,29.6-3.1c8,0.4,24.1,3.5,31.8,3.5c6.6,0,19.8-4.4,26.6-5c8.8-0.7,35.2,4.6,35.2,4.6
				L192.5,263.3z"/>
			<path fill="#E30011" d="M194.1,265.7l-10.8-3.9c-0.1,0-7.4-3.6-24.6-3.6c-13.1,0-17.8,1.4-21.1,2.5c-2,0.6-3.7,1.2-6.4,1.3
				c-3,0.1-5-0.5-7.4-1.2c-3.6-1.1-8.5-2.5-20.3-2.5c-21.9,0-33,3.6-33.1,3.7l-2.2,0.7l0-16.1l1.4-0.2c0.9-0.1,22.4-3.4,29.9-3.1
				c3.7,0.2,8.9,0.9,14.5,1.7c6.5,0.9,13.2,1.9,17.2,1.8c3.4,0,8.9-1.3,14.2-2.6c4.7-1.1,9.1-2.1,12.3-2.4
				c8.9-0.7,34.6,4.4,35.7,4.6l1.4,0.3L194.1,265.7z M184.8,258.7l6.1,2.2l0.3-11.5c-5.6-1.1-26-4.8-33.3-4.3
				c-2.9,0.2-7.2,1.2-11.8,2.3c-5.5,1.3-11.1,2.6-14.9,2.7c0,0-0.1,0-0.1,0c-4.3,0-11-0.9-17.6-1.8c-5.5-0.8-10.6-1.5-14.2-1.6
				c-6.1-0.3-22.8,2.1-27.8,2.8v8.6c4.3-1.1,14.9-3.2,32-3.2c12.3,0,17.5,1.6,21.3,2.7c2.3,0.7,3.9,1.1,6.3,1.1
				c2.2-0.1,3.6-0.5,5.5-1.1c3.6-1.1,8.5-2.7,22.1-2.7C175.9,254.8,183.7,258.2,184.8,258.7z"/>
		</g>
		<path fill="#E30011" d="M123,264.1c-0.1,0-14.2-4.6-28.1-2.3l-0.3-1.7c14.3-2.4,28.4,2.1,28.9,2.3L123,264.1z"/>
		<rect x="169.4" y="1.8" fill="#E30011" width="1.9" height="82.8"/>
		<ellipse fill="#E30011" cx="155.8" cy="27.5" rx="1.7" ry="3.1"/>
		<ellipse fill="#E30011" cx="155.8" cy="59.7" rx="1.7" ry="3.1"/>
		<path fill="#E30011" d="M199.8,86.3h-36.5L147.6,80V6.1L161.9,0l0.2,0.4V0.2h37.8V86.3z M164,82.9h32.4V3.5h-31v79.3L164,82.9
			L164,82.9z M151,77.7l11,4.4V3.6l-11,4.7V77.7z"/>
		<rect x="149.4" y="42.3" fill="#E30011" width="14.2" height="2.3"/>
		<g>
			<rect x="7.8" y="209.8" fill="#FFFFFF" width="23.5" height="65.7"/>
			<path fill="#E30011" d="M33,277.2H6.1v-69.1H33V277.2z M9.5,273.8h20.1v-62.3H9.5V273.8z"/>
		</g>
		<g>
			<rect x="31.3" y="216.8" fill="#FFFFFF" width="16.5" height="53.2"/>
			<path fill="#E30011" d="M49.4,271.7H29.6v-56.6h19.8V271.7z M33,268.3H46v-49.8H33V268.3z"/>
		</g>
		<g>
			<rect x="31.3" y="221.4" fill="#FFFFFF" width="11.7" height="44.3"/>
			<path fill="#E30011" d="M44,266.7H30.3v-46.3H44V266.7z M32.2,264.8H42v-42.4h-9.8V264.8z"/>
		</g>
		<ellipse fill="#E30011" cx="51.3" cy="244.6" rx="1.7" ry="3.1"/>
		<rect x="31.3" y="226" fill="#E30011" width="8.2" height="15.5"/>
		<g>
			<rect x="31.3" y="244.4" fill="#FFFFFF" width="8.2" height="15.5"/>
			<path fill="#E30011" d="M40.5,260.9H30.3v-17.4h10.2V260.9z M32.2,259h6.3v-13.6h-6.3V259z"/>
		</g>
	</g>
</g>
<g id="Слой_4" display="none">
	
		<rect x="-1.8" y="-10.1" display="inline" fill="none" stroke="#E84918" stroke-width="0.25" stroke-miterlimit="10" width="213.4" height="311"/>
</g>
</svg>
