<?xml version="1.0" encoding="utf-8"?>
<!-- Generator: Adobe Illustrator 19.1.0, SVG Export Plug-In . SVG Version: 6.00 Build 0)  -->
<svg version="1.1" baseProfile="tiny" xmlns="http://www.w3.org/2000/svg" xmlns:xlink="http://www.w3.org/1999/xlink" x="0px"
	 y="0px" viewBox="0 0 99 294" xml:space="preserve">
<g id="houses" display="none">
	<path display="inline" fill="#696A6C" d="M725.1,467.4H-10.1V-5.1h735.3V467.4z M-6.8,464h728.5V-1.7H-6.8V464z"/>
	<polygon display="inline" fill="#696A6C" points="512.2,304.4 -10.1,304.4 -0.1,293.5 -0.1,13 -8.3,-2.4 -5.2,-3.6 3.3,12.4 
		3.3,294.4 -2.5,301 512.2,301 	"/>
	<path display="inline" fill="#696A6C" d="M111.9,14.4H1.6V11h107.1L105-2.6l0.4-0.6c0.1-0.1,7.9-12.9,10.1-17.3
		c0.5-1.1,1.7-1.7,2.8-1.5c1.1,0.1,2,1,2.3,2.1l3.3,16L111.9,14.4z M108.6-2.1l2.9,10.7l8.6-13.2l-2.6-12.7
		C115.1-12.6,110.1-4.4,108.6-2.1z"/>
	<polygon display="inline" fill="#696A6C" points="90.9,302.8 86.5,302.5 91.3,292.2 171.4,292.2 171.4,295.6 94.4,295.6 	"/>
	<rect x="1.6" y="291.1" display="inline" fill="#696A6C" width="75.3" height="3.4"/>
	<g display="inline">
		<path fill="#FFFFFF" d="M70.5,279.4l-6.9,11.1l7.1,9.8c0.2,0.3,0.7,0.2,0.8-0.1l6.8-9.6L71,279.3
			C70.9,279.1,70.6,279.2,70.5,279.4z"/>
		<path fill="#696A6C" d="M72,304c-0.7,0-1.3-0.3-1.8-0.8l-8.9-12.5l7.6-12.3c0.3-0.6,0.9-1,1.6-1.1c0.7-0.1,1.5,0.2,2,0.7l0.2,0.2
			l7.9,12C80.5,290.2,72.1,304,72,304z M66.1,290.3l5.4,8.5l4.8-8l-5.4-8.3L66.1,290.3z"/>
	</g>
</g>
<g id="Слой_3" display="none">
	<g display="inline">
		<path fill="#696A6C" d="M44.5,224.7H0V103.2h44.5V224.7z M3.4,221.3h37.7V106.6H3.4V221.3z"/>
		<rect x="33.6" y="104.9" fill="#696A6C" width="1.9" height="117.6"/>
		<path fill="#696A6C" d="M99,195.3H58.3L58.3,30.8H99V195.3z M61.8,191.9h33.8V34.2h-34L61.8,191.9z"/>
		<path fill="#696A6C" d="M95.8,40.4H92v-1.9h3.8V40.4z M88.3,40.4h-3.8v-1.9h3.8V40.4z M80.7,40.4h-3.8v-1.9h3.8V40.4z M73.2,40.4
			h-3.8v-1.9h3.8V40.4z M65.6,40.4h-3.8v-1.9h3.8V40.4z"/>
		<path fill="#696A6C" d="M95.8,46.1H92v-1.9h3.8V46.1z M88.3,46.1h-3.8v-1.9h3.8V46.1z M80.7,46.1h-3.8v-1.9h3.8V46.1z M73.2,46.1
			h-3.8v-1.9h3.8V46.1z M65.6,46.1h-3.8v-1.9h3.8V46.1z"/>
		<path fill="#696A6C" d="M95.8,51.7H92v-1.9h3.8V51.7z M88.3,51.7h-3.8v-1.9h3.8V51.7z M80.7,51.7h-3.8v-1.9h3.8V51.7z M73.2,51.7
			h-3.8v-1.9h3.8V51.7z M65.6,51.7h-3.8v-1.9h3.8V51.7z"/>
		<path fill="#696A6C" d="M95.8,57.4H92v-1.9h3.8V57.4z M88.3,57.4h-3.8v-1.9h3.8V57.4z M80.7,57.4h-3.8v-1.9h3.8V57.4z M73.2,57.4
			h-3.8v-1.9h3.8V57.4z M65.6,57.4h-3.8v-1.9h3.8V57.4z"/>
		<path fill="#696A6C" d="M95.8,63.1H92v-1.9h3.8V63.1z M88.3,63.1h-3.8v-1.9h3.8V63.1z M80.7,63.1h-3.8v-1.9h3.8V63.1z M73.2,63.1
			h-3.8v-1.9h3.8V63.1z M65.6,63.1h-3.8v-1.9h3.8V63.1z"/>
		<path fill="#696A6C" d="M95.8,68.7H92v-1.9h3.8V68.7z M88.3,68.7h-3.8v-1.9h3.8V68.7z M80.7,68.7h-3.8v-1.9h3.8V68.7z M73.2,68.7
			h-3.8v-1.9h3.8V68.7z M65.6,68.7h-3.8v-1.9h3.8V68.7z"/>
		<path fill="#696A6C" d="M95.8,74.4H92v-1.9h3.8V74.4z M88.3,74.4h-3.8v-1.9h3.8V74.4z M80.7,74.4h-3.8v-1.9h3.8V74.4z M73.2,74.4
			h-3.8v-1.9h3.8V74.4z M65.6,74.4h-3.8v-1.9h3.8V74.4z"/>
		<path fill="#696A6C" d="M95.8,80H92v-1.9h3.8V80z M88.3,80h-3.8v-1.9h3.8V80z M80.7,80h-3.8v-1.9h3.8V80z M73.2,80h-3.8v-1.9h3.8
			V80z M65.6,80h-3.8v-1.9h3.8V80z"/>
		<path fill="#696A6C" d="M95.8,85.7H92v-1.9h3.8V85.7z M88.3,85.7h-3.8v-1.9h3.8V85.7z M80.7,85.7h-3.8v-1.9h3.8V85.7z M73.2,85.7
			h-3.8v-1.9h3.8V85.7z M65.6,85.7h-3.8v-1.9h3.8V85.7z"/>
		<path fill="#696A6C" d="M95.8,91.4H92v-1.9h3.8V91.4z M88.3,91.4h-3.8v-1.9h3.8V91.4z M80.7,91.4h-3.8v-1.9h3.8V91.4z M73.2,91.4
			h-3.8v-1.9h3.8V91.4z M65.6,91.4h-3.8v-1.9h3.8V91.4z"/>
		<path fill="#696A6C" d="M95.8,97H92v-1.9h3.8V97z M88.3,97h-3.8v-1.9h3.8V97z M80.7,97h-3.8v-1.9h3.8V97z M73.2,97h-3.8v-1.9h3.8
			V97z M65.6,97h-3.8v-1.9h3.8V97z"/>
		<path fill="#696A6C" d="M95.8,102.7H92v-1.9h3.8V102.7z M88.3,102.7h-3.8v-1.9h3.8V102.7z M80.7,102.7h-3.8v-1.9h3.8V102.7z
			 M73.2,102.7h-3.8v-1.9h3.8V102.7z M65.6,102.7h-3.8v-1.9h3.8V102.7z"/>
		<path fill="#696A6C" d="M95.8,108.3H92v-1.9h3.8V108.3z M88.3,108.3h-3.8v-1.9h3.8V108.3z M80.7,108.3h-3.8v-1.9h3.8V108.3z
			 M73.2,108.3h-3.8v-1.9h3.8V108.3z M65.6,108.3h-3.8v-1.9h3.8V108.3z"/>
		<path fill="#696A6C" d="M95.8,114H92v-1.9h3.8V114z M88.3,114h-3.8v-1.9h3.8V114z M80.7,114h-3.8v-1.9h3.8V114z M73.2,114h-3.8
			v-1.9h3.8V114z M65.6,114h-3.8v-1.9h3.8V114z"/>
		<path fill="#696A6C" d="M95.8,120.8H92v-1.9h3.8V120.8z M88.3,120.8h-3.8v-1.9h3.8V120.8z M80.7,120.8h-3.8v-1.9h3.8V120.8z
			 M73.2,120.8h-3.8v-1.9h3.8V120.8z M65.6,120.8h-3.8v-1.9h3.8V120.8z"/>
		<path fill="#696A6C" d="M95.8,126.4H92v-1.9h3.8V126.4z M88.3,126.4h-3.8v-1.9h3.8V126.4z M80.7,126.4h-3.8v-1.9h3.8V126.4z
			 M73.2,126.4h-3.8v-1.9h3.8V126.4z M65.6,126.4h-3.8v-1.9h3.8V126.4z"/>
		<path fill="#696A6C" d="M95.8,132.1H92v-1.9h3.8V132.1z M88.3,132.1h-3.8v-1.9h3.8V132.1z M80.7,132.1h-3.8v-1.9h3.8V132.1z
			 M73.2,132.1h-3.8v-1.9h3.8V132.1z M65.6,132.1h-3.8v-1.9h3.8V132.1z"/>
		<path fill="#696A6C" d="M95.6,137.7h-3.8v-1.9h3.8V137.7z M88.1,137.7h-3.8v-1.9h3.8V137.7z M80.5,137.7h-3.8v-1.9h3.8V137.7z
			 M73,137.7h-3.8v-1.9H73V137.7z M65.4,137.7h-3.8v-1.9h3.8V137.7z"/>
		<path fill="#696A6C" d="M95.6,143.4h-3.8v-1.9h3.8V143.4z M88.1,143.4h-3.8v-1.9h3.8V143.4z M80.5,143.4h-3.8v-1.9h3.8V143.4z
			 M73,143.4h-3.8v-1.9H73V143.4z M65.4,143.4h-3.8v-1.9h3.8V143.4z"/>
		<path fill="#696A6C" d="M95.6,149h-3.8v-1.9h3.8V149z M88.1,149h-3.8v-1.9h3.8V149z M80.5,149h-3.8v-1.9h3.8V149z M73,149h-3.8
			v-1.9H73V149z M65.4,149h-3.8v-1.9h3.8V149z"/>
		<path fill="#696A6C" d="M95.6,154.7h-3.8v-1.9h3.8V154.7z M88.1,154.7h-3.8v-1.9h3.8V154.7z M80.5,154.7h-3.8v-1.9h3.8V154.7z
			 M73,154.7h-3.8v-1.9H73V154.7z M65.4,154.7h-3.8v-1.9h3.8V154.7z"/>
		<path fill="#696A6C" d="M95.6,160.4h-3.8v-1.9h3.8V160.4z M88.1,160.4h-3.8v-1.9h3.8V160.4z M80.5,160.4h-3.8v-1.9h3.8V160.4z
			 M73,160.4h-3.8v-1.9H73V160.4z M65.4,160.4h-3.8v-1.9h3.8V160.4z"/>
		<path fill="#696A6C" d="M95.6,166h-3.8v-1.9h3.8V166z M88.1,166h-3.8v-1.9h3.8V166z M80.5,166h-3.8v-1.9h3.8V166z M73,166h-3.8
			v-1.9H73V166z M65.4,166h-3.8v-1.9h3.8V166z"/>
		<path fill="#696A6C" d="M95.6,171.7h-3.8v-1.9h3.8V171.7z M88.1,171.7h-3.8v-1.9h3.8V171.7z M80.5,171.7h-3.8v-1.9h3.8V171.7z
			 M73,171.7h-3.8v-1.9H73V171.7z M65.4,171.7h-3.8v-1.9h3.8V171.7z"/>
		<path fill="#696A6C" d="M95.6,177.3h-3.8v-1.9h3.8V177.3z M88.1,177.3h-3.8v-1.9h3.8V177.3z M80.5,177.3h-3.8v-1.9h3.8V177.3z
			 M73,177.3h-3.8v-1.9H73V177.3z M65.4,177.3h-3.8v-1.9h3.8V177.3z"/>
		<path fill="#696A6C" d="M95.6,183h-3.8v-1.9h3.8V183z M88.1,183h-3.8v-1.9h3.8V183z M80.5,183h-3.8v-1.9h3.8V183z M73,183h-3.8
			v-1.9H73V183z M65.4,183h-3.8v-1.9h3.8V183z"/>
		<path fill="#696A6C" d="M95.6,188.7h-3.8v-1.9h3.8V188.7z M88.1,188.7h-3.8v-1.9h3.8V188.7z M80.5,188.7h-3.8v-1.9h3.8V188.7z
			 M73,188.7h-3.8v-1.9H73V188.7z M65.4,188.7h-3.8v-1.9h3.8V188.7z"/>
		<rect x="62.4" y="193.6" fill="#696A6C" width="1.9" height="6.5"/>
		<rect x="67.3" y="193.6" fill="#696A6C" width="1.9" height="6.5"/>
		<rect x="72.1" y="193.6" fill="#696A6C" width="1.9" height="6.5"/>
		<rect x="77" y="193.6" fill="#696A6C" width="1.9" height="6.5"/>
		<rect x="81.8" y="193.6" fill="#696A6C" width="1.9" height="6.5"/>
		<rect x="86.7" y="193.6" fill="#696A6C" width="1.9" height="6.5"/>
		<rect x="91.6" y="193.6" fill="#696A6C" width="1.9" height="6.5"/>
		<path fill="#696A6C" d="M40.2,77.3c0,1.3-4,2.5-7.1,2.5c-3.1,0-9.8-0.9-9.8-2.1c0-4.5,4.9-0.2,9.8-2.5
			C35.9,73.8,40.2,76,40.2,77.3z"/>
		<path fill="#696A6C" d="M40.2,70.4c0-1.3-4-2.5-7.1-2.5c-3.1,0-9.8,0.9-9.8,2.1c0,4.5,4.9,0.2,9.8,2.5
			C35.9,73.8,40.2,71.7,40.2,70.4z"/>
		<path fill="#696A6C" d="M33.2,61.7c-0.1,0-11.7-0.2-11.7-3.3c0-1.2,0.3-2.1,0.9-2.6c1-0.9,2.4-0.7,4.1-0.5c1.9,0.2,4,0.5,6.2-0.5
			c2.4-1.1,5.5-0.3,7.3,0.8c0.8,0.5,1.7,1.3,1.7,2.3C41.9,60.5,36.4,61.7,33.2,61.7z M23.5,58.2c1,0.7,6.2,1.6,9.8,1.6
			c3.2,0,6.3-1.2,6.8-1.8c-0.1-0.2-0.7-0.7-1.7-1.2c-1.3-0.6-3.2-0.9-4.6-0.3c-2.7,1.3-5.3,0.9-7.3,0.7c-1.1-0.1-2.3-0.3-2.6,0
			C23.6,57.4,23.5,57.7,23.5,58.2z"/>
		<path fill="#696A6C" d="M40.5,51.5c-0.9,0-1.9-0.2-2.7-0.6c-2.3-1.1-4.6-0.8-6.5-0.5c-1.7,0.2-3.2,0.4-4.3-0.5
			c-0.6-0.6-1-1.5-1-2.7c0-3.2,12.1-3.4,12.2-3.4c3.2,0,9,1.3,9,3.8c0,1-1,1.9-1.8,2.4C44.2,50.9,42.3,51.5,40.5,51.5z M34.1,48.3
			c1.4,0,2.9,0.2,4.5,0.9c1.5,0.7,3.6,0.3,5-0.3c1.1-0.5,1.6-1.1,1.8-1.3c-0.4-0.7-3.7-2-7.1-2c-3.8,0-9.3,0.9-10.3,1.7
			c0,0.6,0.1,1,0.3,1.1c0.4,0.3,1.5,0.2,2.8,0C31.9,48.4,33,48.3,34.1,48.3z"/>
		<circle fill="#FFFFFF" cx="35.2" cy="76.5" r="0.8"/>
		<circle fill="#FFFFFF" cx="35.2" cy="70.4" r="0.8"/>
		<path fill="#696A6C" d="M29.5,61.5l-0.2-1.9c0.7-0.1,1.1-0.2,1.2-0.5c0.2-0.5-0.3-1.6-0.6-2.1l1.5-1.1c0.2,0.2,1.6,2.3,0.8,3.9
			C31.8,60.8,30.9,61.3,29.5,61.5z"/>
		<path fill="#696A6C" d="M36.7,50.5l-0.5-1.8c1-0.3,1.4-0.7,1.4-0.9c0.1-0.6-0.9-1.7-1.7-2.2l1.1-1.5c0.5,0.3,2.8,2.1,2.5,4
			C39.3,49.2,38.3,50,36.7,50.5z"/>
		<path fill="#696A6C" d="M44.6,294H0v-72.1h44.6V294z M3.5,291h37.6v-65.6H3.5V291z"/>
		<path fill="#696A6C" d="M42.9,16.6c-13.1,0-27.1-2.6-27.1-8.3C15.8,2.6,29.8,0,42.9,0s27.1,2.6,27.1,8.3
			C70.1,14,56,16.6,42.9,16.6z M42.9,3.1C27,3.1,18.8,6.7,18.8,8.3s8.2,5.2,24.1,5.2S67,9.8,67,8.3S58.8,3.1,42.9,3.1z"/>
		<g>
			<ellipse fill="#FFFFFF" cx="42.4" cy="11.4" rx="25.6" ry="6.8"/>
			<path fill="#696A6C" d="M42.4,19.7c-13.1,0-27.1-2.6-27.1-8.3c0-5.7,14.1-8.3,27.1-8.3s27.1,2.6,27.1,8.3
				C69.5,17.1,55.4,19.7,42.4,19.7z M42.4,6.2c-15.9,0-24.1,3.7-24.1,5.2s8.2,5.2,24.1,5.2s24.1-3.7,24.1-5.2S58.2,6.2,42.4,6.2z"/>
		</g>
		<g>
			<polygon fill="#FFFFFF" points="61.8,157.1 56.6,159.3 42.8,125.7 42.8,111.4 			"/>
			<path fill="#696A6C" d="M55.7,161.5l-14.5-35.5v-23.2L64,158L55.7,161.5z M44.5,125.4l13,31.7l2.1-0.9l-15-36.3V125.4z"/>
		</g>
		<polygon fill="#696A6C" points="49.8,143.5 49.8,290 44.5,294 42.8,104.9 		"/>
	</g>
</g>
<g id="Слой_3__x28_копия_x29_">
	<path fill="#E30011" d="M44.5,224.7H0V103.2h44.5V224.7z M3.4,221.3h37.7V106.6H3.4V221.3z"/>
	<rect x="33.6" y="104.9" fill="#E30011" width="1.9" height="117.6"/>
	<path fill="#E30011" d="M99,195.3H58.3L58.3,30.8H99V195.3z M61.8,191.9h33.8V34.2h-34L61.8,191.9z"/>
	<path fill="#E30011" d="M95.8,40.4H92v-1.9h3.8V40.4z M88.3,40.4h-3.8v-1.9h3.8V40.4z M80.7,40.4h-3.8v-1.9h3.8V40.4z M73.2,40.4
		h-3.8v-1.9h3.8V40.4z M65.6,40.4h-3.8v-1.9h3.8V40.4z"/>
	<path fill="#E30011" d="M95.8,46.1H92v-1.9h3.8V46.1z M88.3,46.1h-3.8v-1.9h3.8V46.1z M80.7,46.1h-3.8v-1.9h3.8V46.1z M73.2,46.1
		h-3.8v-1.9h3.8V46.1z M65.6,46.1h-3.8v-1.9h3.8V46.1z"/>
	<path fill="#E30011" d="M95.8,51.7H92v-1.9h3.8V51.7z M88.3,51.7h-3.8v-1.9h3.8V51.7z M80.7,51.7h-3.8v-1.9h3.8V51.7z M73.2,51.7
		h-3.8v-1.9h3.8V51.7z M65.6,51.7h-3.8v-1.9h3.8V51.7z"/>
	<path fill="#E30011" d="M95.8,57.4H92v-1.9h3.8V57.4z M88.3,57.4h-3.8v-1.9h3.8V57.4z M80.7,57.4h-3.8v-1.9h3.8V57.4z M73.2,57.4
		h-3.8v-1.9h3.8V57.4z M65.6,57.4h-3.8v-1.9h3.8V57.4z"/>
	<path fill="#E30011" d="M95.8,63.1H92v-1.9h3.8V63.1z M88.3,63.1h-3.8v-1.9h3.8V63.1z M80.7,63.1h-3.8v-1.9h3.8V63.1z M73.2,63.1
		h-3.8v-1.9h3.8V63.1z M65.6,63.1h-3.8v-1.9h3.8V63.1z"/>
	<path fill="#E30011" d="M95.8,68.7H92v-1.9h3.8V68.7z M88.3,68.7h-3.8v-1.9h3.8V68.7z M80.7,68.7h-3.8v-1.9h3.8V68.7z M73.2,68.7
		h-3.8v-1.9h3.8V68.7z M65.6,68.7h-3.8v-1.9h3.8V68.7z"/>
	<path fill="#E30011" d="M95.8,74.4H92v-1.9h3.8V74.4z M88.3,74.4h-3.8v-1.9h3.8V74.4z M80.7,74.4h-3.8v-1.9h3.8V74.4z M73.2,74.4
		h-3.8v-1.9h3.8V74.4z M65.6,74.4h-3.8v-1.9h3.8V74.4z"/>
	<path fill="#E30011" d="M95.8,80H92v-1.9h3.8V80z M88.3,80h-3.8v-1.9h3.8V80z M80.7,80h-3.8v-1.9h3.8V80z M73.2,80h-3.8v-1.9h3.8
		V80z M65.6,80h-3.8v-1.9h3.8V80z"/>
	<path fill="#E30011" d="M95.8,85.7H92v-1.9h3.8V85.7z M88.3,85.7h-3.8v-1.9h3.8V85.7z M80.7,85.7h-3.8v-1.9h3.8V85.7z M73.2,85.7
		h-3.8v-1.9h3.8V85.7z M65.6,85.7h-3.8v-1.9h3.8V85.7z"/>
	<path fill="#E30011" d="M95.8,91.4H92v-1.9h3.8V91.4z M88.3,91.4h-3.8v-1.9h3.8V91.4z M80.7,91.4h-3.8v-1.9h3.8V91.4z M73.2,91.4
		h-3.8v-1.9h3.8V91.4z M65.6,91.4h-3.8v-1.9h3.8V91.4z"/>
	<path fill="#E30011" d="M95.8,97H92v-1.9h3.8V97z M88.3,97h-3.8v-1.9h3.8V97z M80.7,97h-3.8v-1.9h3.8V97z M73.2,97h-3.8v-1.9h3.8
		V97z M65.6,97h-3.8v-1.9h3.8V97z"/>
	<path fill="#E30011" d="M95.8,102.7H92v-1.9h3.8V102.7z M88.3,102.7h-3.8v-1.9h3.8V102.7z M80.7,102.7h-3.8v-1.9h3.8V102.7z
		 M73.2,102.7h-3.8v-1.9h3.8V102.7z M65.6,102.7h-3.8v-1.9h3.8V102.7z"/>
	<path fill="#E30011" d="M95.8,108.3H92v-1.9h3.8V108.3z M88.3,108.3h-3.8v-1.9h3.8V108.3z M80.7,108.3h-3.8v-1.9h3.8V108.3z
		 M73.2,108.3h-3.8v-1.9h3.8V108.3z M65.6,108.3h-3.8v-1.9h3.8V108.3z"/>
	<path fill="#E30011" d="M95.8,114H92v-1.9h3.8V114z M88.3,114h-3.8v-1.9h3.8V114z M80.7,114h-3.8v-1.9h3.8V114z M73.2,114h-3.8
		v-1.9h3.8V114z M65.6,114h-3.8v-1.9h3.8V114z"/>
	<path fill="#E30011" d="M95.8,120.8H92v-1.9h3.8V120.8z M88.3,120.8h-3.8v-1.9h3.8V120.8z M80.7,120.8h-3.8v-1.9h3.8V120.8z
		 M73.2,120.8h-3.8v-1.9h3.8V120.8z M65.6,120.8h-3.8v-1.9h3.8V120.8z"/>
	<path fill="#E30011" d="M95.8,126.4H92v-1.9h3.8V126.4z M88.3,126.4h-3.8v-1.9h3.8V126.4z M80.7,126.4h-3.8v-1.9h3.8V126.4z
		 M73.2,126.4h-3.8v-1.9h3.8V126.4z M65.6,126.4h-3.8v-1.9h3.8V126.4z"/>
	<path fill="#E30011" d="M95.8,132.1H92v-1.9h3.8V132.1z M88.3,132.1h-3.8v-1.9h3.8V132.1z M80.7,132.1h-3.8v-1.9h3.8V132.1z
		 M73.2,132.1h-3.8v-1.9h3.8V132.1z M65.6,132.1h-3.8v-1.9h3.8V132.1z"/>
	<path fill="#E30011" d="M95.6,137.7h-3.8v-1.9h3.8V137.7z M88.1,137.7h-3.8v-1.9h3.8V137.7z M80.5,137.7h-3.8v-1.9h3.8V137.7z
		 M73,137.7h-3.8v-1.9H73V137.7z M65.4,137.7h-3.8v-1.9h3.8V137.7z"/>
	<path fill="#E30011" d="M95.6,143.4h-3.8v-1.9h3.8V143.4z M88.1,143.4h-3.8v-1.9h3.8V143.4z M80.5,143.4h-3.8v-1.9h3.8V143.4z
		 M73,143.4h-3.8v-1.9H73V143.4z M65.4,143.4h-3.8v-1.9h3.8V143.4z"/>
	<path fill="#E30011" d="M95.6,149h-3.8v-1.9h3.8V149z M88.1,149h-3.8v-1.9h3.8V149z M80.5,149h-3.8v-1.9h3.8V149z M73,149h-3.8
		v-1.9H73V149z M65.4,149h-3.8v-1.9h3.8V149z"/>
	<path fill="#E30011" d="M95.6,154.7h-3.8v-1.9h3.8V154.7z M88.1,154.7h-3.8v-1.9h3.8V154.7z M80.5,154.7h-3.8v-1.9h3.8V154.7z
		 M73,154.7h-3.8v-1.9H73V154.7z M65.4,154.7h-3.8v-1.9h3.8V154.7z"/>
	<path fill="#E30011" d="M95.6,160.4h-3.8v-1.9h3.8V160.4z M88.1,160.4h-3.8v-1.9h3.8V160.4z M80.5,160.4h-3.8v-1.9h3.8V160.4z
		 M73,160.4h-3.8v-1.9H73V160.4z M65.4,160.4h-3.8v-1.9h3.8V160.4z"/>
	<path fill="#E30011" d="M95.6,166h-3.8v-1.9h3.8V166z M88.1,166h-3.8v-1.9h3.8V166z M80.5,166h-3.8v-1.9h3.8V166z M73,166h-3.8
		v-1.9H73V166z M65.4,166h-3.8v-1.9h3.8V166z"/>
	<path fill="#E30011" d="M95.6,171.7h-3.8v-1.9h3.8V171.7z M88.1,171.7h-3.8v-1.9h3.8V171.7z M80.5,171.7h-3.8v-1.9h3.8V171.7z
		 M73,171.7h-3.8v-1.9H73V171.7z M65.4,171.7h-3.8v-1.9h3.8V171.7z"/>
	<path fill="#E30011" d="M95.6,177.3h-3.8v-1.9h3.8V177.3z M88.1,177.3h-3.8v-1.9h3.8V177.3z M80.5,177.3h-3.8v-1.9h3.8V177.3z
		 M73,177.3h-3.8v-1.9H73V177.3z M65.4,177.3h-3.8v-1.9h3.8V177.3z"/>
	<path fill="#E30011" d="M95.6,183h-3.8v-1.9h3.8V183z M88.1,183h-3.8v-1.9h3.8V183z M80.5,183h-3.8v-1.9h3.8V183z M73,183h-3.8
		v-1.9H73V183z M65.4,183h-3.8v-1.9h3.8V183z"/>
	<path fill="#E30011" d="M95.6,188.7h-3.8v-1.9h3.8V188.7z M88.1,188.7h-3.8v-1.9h3.8V188.7z M80.5,188.7h-3.8v-1.9h3.8V188.7z
		 M73,188.7h-3.8v-1.9H73V188.7z M65.4,188.7h-3.8v-1.9h3.8V188.7z"/>
	<rect x="62.4" y="193.6" fill="#E30011" width="1.9" height="6.5"/>
	<rect x="67.3" y="193.6" fill="#E30011" width="1.9" height="6.5"/>
	<rect x="72.1" y="193.6" fill="#E30011" width="1.9" height="6.5"/>
	<rect x="77" y="193.6" fill="#E30011" width="1.9" height="6.5"/>
	<rect x="81.8" y="193.6" fill="#E30011" width="1.9" height="6.5"/>
	<rect x="86.7" y="193.6" fill="#E30011" width="1.9" height="6.5"/>
	<rect x="91.6" y="193.6" fill="#E30011" width="1.9" height="6.5"/>
	<path fill="#E30011" d="M40.2,77.3c0,1.3-4,2.5-7.1,2.5c-3.1,0-9.8-0.9-9.8-2.1c0-4.5,4.9-0.2,9.8-2.5C35.9,73.8,40.2,76,40.2,77.3
		z"/>
	<path fill="#E30011" d="M40.2,70.4c0-1.3-4-2.5-7.1-2.5c-3.1,0-9.8,0.9-9.8,2.1c0,4.5,4.9,0.2,9.8,2.5
		C35.9,73.8,40.2,71.7,40.2,70.4z"/>
	<path fill="#E30011" d="M33.2,61.7c-0.1,0-11.7-0.2-11.7-3.3c0-1.2,0.3-2.1,0.9-2.6c1-0.9,2.4-0.7,4.1-0.5c1.9,0.2,4,0.5,6.2-0.5
		c2.4-1.1,5.5-0.3,7.3,0.8c0.8,0.5,1.7,1.3,1.7,2.3C41.9,60.5,36.4,61.7,33.2,61.7z M23.5,58.2c1,0.7,6.2,1.6,9.8,1.6
		c3.2,0,6.3-1.2,6.8-1.8c-0.1-0.2-0.7-0.7-1.7-1.2c-1.3-0.6-3.2-0.9-4.6-0.3c-2.7,1.3-5.3,0.9-7.3,0.7c-1.1-0.1-2.3-0.3-2.6,0
		C23.6,57.4,23.5,57.7,23.5,58.2z"/>
	<path fill="#E30011" d="M40.5,51.5c-0.9,0-1.9-0.2-2.7-0.6c-2.3-1.1-4.6-0.8-6.5-0.5c-1.7,0.2-3.2,0.4-4.3-0.5
		c-0.6-0.6-1-1.5-1-2.7c0-3.2,12.1-3.4,12.2-3.4c3.2,0,9,1.3,9,3.8c0,1-1,1.9-1.8,2.4C44.2,50.9,42.3,51.5,40.5,51.5z M34.1,48.3
		c1.4,0,2.9,0.2,4.5,0.9c1.5,0.7,3.6,0.3,5-0.3c1.1-0.5,1.6-1.1,1.8-1.3c-0.4-0.7-3.7-2-7.1-2c-3.8,0-9.3,0.9-10.3,1.7
		c0,0.6,0.1,1,0.3,1.1c0.4,0.3,1.5,0.2,2.8,0C31.9,48.4,33,48.3,34.1,48.3z"/>
	<circle fill="#FFFFFF" cx="35.2" cy="76.5" r="0.8"/>
	<circle fill="#FFFFFF" cx="35.2" cy="70.4" r="0.8"/>
	<path fill="#E30011" d="M29.5,61.5l-0.2-1.9c0.7-0.1,1.1-0.2,1.2-0.5c0.2-0.5-0.3-1.6-0.6-2.1l1.5-1.1c0.2,0.2,1.6,2.3,0.8,3.9
		C31.8,60.8,30.9,61.3,29.5,61.5z"/>
	<path fill="#E30011" d="M36.7,50.5l-0.5-1.8c1-0.3,1.4-0.7,1.4-0.9c0.1-0.6-0.9-1.7-1.7-2.2l1.1-1.5c0.5,0.3,2.8,2.1,2.5,4
		C39.3,49.2,38.3,50,36.7,50.5z"/>
	<path fill="#E30011" d="M44.6,294H0v-72.1h44.6V294z M3.5,291h37.6v-65.6H3.5V291z"/>
	<path fill="#E30011" d="M42.9,16.6c-13.1,0-27.1-2.6-27.1-8.3C15.8,2.6,29.8,0,42.9,0s27.1,2.6,27.1,8.3C70.1,14,56,16.6,42.9,16.6
		z M42.9,3.1C27,3.1,18.8,6.7,18.8,8.3s8.2,5.2,24.1,5.2S67,9.8,67,8.3S58.8,3.1,42.9,3.1z"/>
	<ellipse fill="#FFFFFF" cx="42.4" cy="11.4" rx="25.6" ry="6.8"/>
	<path fill="#E30011" d="M42.4,19.7c-13.1,0-27.1-2.6-27.1-8.3c0-5.7,14.1-8.3,27.1-8.3s27.1,2.6,27.1,8.3
		C69.5,17.1,55.4,19.7,42.4,19.7z M42.4,6.2c-15.9,0-24.1,3.7-24.1,5.2s8.2,5.2,24.1,5.2s24.1-3.7,24.1-5.2S58.2,6.2,42.4,6.2z"/>
	<polygon fill="#FFFFFF" points="61.8,157.1 56.6,159.3 42.8,125.7 42.8,111.4 	"/>
	<path fill="#E30011" d="M55.7,161.5l-14.5-35.5v-23.2L64,158L55.7,161.5z M44.5,125.4l13,31.7l2.1-0.9l-15-36.3V125.4z"/>
	<polygon fill="#E30011" points="49.8,143.5 49.8,290 44.5,294 42.8,104.9 	"/>
</g>
<g id="Слой_2" display="none">
	<g display="inline">
		<path fill="#E30011" d="M99,195.3H58.3V30.8H99V195.3z M61.7,191.9h34V34.2h-34V191.9z"/>
		<path fill="#E30011" d="M95.8,40.4H92v-1.9h3.8V40.4z M88.3,40.4h-3.8v-1.9h3.8V40.4z M80.7,40.4h-3.8v-1.9h3.8V40.4z M73.2,40.4
			h-3.8v-1.9h3.8V40.4z M65.6,40.4h-3.8v-1.9h3.8V40.4z"/>
		<path fill="#E30011" d="M95.8,46.1H92v-1.9h3.8V46.1z M88.3,46.1h-3.8v-1.9h3.8V46.1z M80.7,46.1h-3.8v-1.9h3.8V46.1z M73.2,46.1
			h-3.8v-1.9h3.8V46.1z M65.6,46.1h-3.8v-1.9h3.8V46.1z"/>
		<path fill="#E30011" d="M95.8,51.7H92v-1.9h3.8V51.7z M88.3,51.7h-3.8v-1.9h3.8V51.7z M80.7,51.7h-3.8v-1.9h3.8V51.7z M73.2,51.7
			h-3.8v-1.9h3.8V51.7z M65.6,51.7h-3.8v-1.9h3.8V51.7z"/>
		<path fill="#E30011" d="M95.8,57.4H92v-1.9h3.8V57.4z M88.3,57.4h-3.8v-1.9h3.8V57.4z M80.7,57.4h-3.8v-1.9h3.8V57.4z M73.2,57.4
			h-3.8v-1.9h3.8V57.4z M65.6,57.4h-3.8v-1.9h3.8V57.4z"/>
		<path fill="#E30011" d="M95.8,63H92v-1.9h3.8V63z M88.3,63h-3.8v-1.9h3.8V63z M80.7,63h-3.8v-1.9h3.8V63z M73.2,63h-3.8v-1.9h3.8
			V63z M65.6,63h-3.8v-1.9h3.8V63z"/>
		<path fill="#E30011" d="M95.8,68.7H92v-1.9h3.8V68.7z M88.3,68.7h-3.8v-1.9h3.8V68.7z M80.7,68.7h-3.8v-1.9h3.8V68.7z M73.2,68.7
			h-3.8v-1.9h3.8V68.7z M65.6,68.7h-3.8v-1.9h3.8V68.7z"/>
		<path fill="#E30011" d="M95.8,74.4H92v-1.9h3.8V74.4z M88.3,74.4h-3.8v-1.9h3.8V74.4z M80.7,74.4h-3.8v-1.9h3.8V74.4z M73.2,74.4
			h-3.8v-1.9h3.8V74.4z M65.6,74.4h-3.8v-1.9h3.8V74.4z"/>
		<path fill="#E30011" d="M95.8,80H92v-1.9h3.8V80z M88.3,80h-3.8v-1.9h3.8V80z M80.7,80h-3.8v-1.9h3.8V80z M73.2,80h-3.8v-1.9h3.8
			V80z M65.6,80h-3.8v-1.9h3.8V80z"/>
		<path fill="#E30011" d="M95.8,85.7H92v-1.9h3.8V85.7z M88.3,85.7h-3.8v-1.9h3.8V85.7z M80.7,85.7h-3.8v-1.9h3.8V85.7z M73.2,85.7
			h-3.8v-1.9h3.8V85.7z M65.6,85.7h-3.8v-1.9h3.8V85.7z"/>
		<path fill="#E30011" d="M95.8,91.3H92v-1.9h3.8V91.3z M88.3,91.3h-3.8v-1.9h3.8V91.3z M80.7,91.3h-3.8v-1.9h3.8V91.3z M73.2,91.3
			h-3.8v-1.9h3.8V91.3z M65.6,91.3h-3.8v-1.9h3.8V91.3z"/>
		<path fill="#E30011" d="M95.8,97H92v-1.9h3.8V97z M88.3,97h-3.8v-1.9h3.8V97z M80.7,97h-3.8v-1.9h3.8V97z M73.2,97h-3.8v-1.9h3.8
			V97z M65.6,97h-3.8v-1.9h3.8V97z"/>
		<path fill="#E30011" d="M95.8,102.7H92v-1.9h3.8V102.7z M88.3,102.7h-3.8v-1.9h3.8V102.7z M80.7,102.7h-3.8v-1.9h3.8V102.7z
			 M73.2,102.7h-3.8v-1.9h3.8V102.7z M65.6,102.7h-3.8v-1.9h3.8V102.7z"/>
		<path fill="#E30011" d="M95.8,108.3H92v-1.9h3.8V108.3z M88.3,108.3h-3.8v-1.9h3.8V108.3z M80.7,108.3h-3.8v-1.9h3.8V108.3z
			 M73.2,108.3h-3.8v-1.9h3.8V108.3z M65.6,108.3h-3.8v-1.9h3.8V108.3z"/>
		<path fill="#E30011" d="M95.8,114H92v-1.9h3.8V114z M88.3,114h-3.8v-1.9h3.8V114z M80.7,114h-3.8v-1.9h3.8V114z M73.2,114h-3.8
			v-1.9h3.8V114z M65.6,114h-3.8v-1.9h3.8V114z"/>
		<path fill="#E30011" d="M95.8,120.7H92v-1.9h3.8V120.7z M88.3,120.7h-3.8v-1.9h3.8V120.7z M80.7,120.7h-3.8v-1.9h3.8V120.7z
			 M73.2,120.7h-3.8v-1.9h3.8V120.7z M65.6,120.7h-3.8v-1.9h3.8V120.7z"/>
		<path fill="#E30011" d="M95.8,126.4H92v-1.9h3.8V126.4z M88.3,126.4h-3.8v-1.9h3.8V126.4z M80.7,126.4h-3.8v-1.9h3.8V126.4z
			 M73.2,126.4h-3.8v-1.9h3.8V126.4z M65.6,126.4h-3.8v-1.9h3.8V126.4z"/>
		<path fill="#E30011" d="M95.8,132.1H92v-1.9h3.8V132.1z M88.3,132.1h-3.8v-1.9h3.8V132.1z M80.7,132.1h-3.8v-1.9h3.8V132.1z
			 M73.2,132.1h-3.8v-1.9h3.8V132.1z M65.6,132.1h-3.8v-1.9h3.8V132.1z"/>
		<path fill="#E30011" d="M95.6,137.7h-3.8v-1.9h3.8V137.7z M88.1,137.7h-3.8v-1.9h3.8V137.7z M80.5,137.7h-3.8v-1.9h3.8V137.7z
			 M73,137.7h-3.8v-1.9H73V137.7z M65.4,137.7h-3.8v-1.9h3.8V137.7z"/>
		<path fill="#E30011" d="M95.6,143.4h-3.8v-1.9h3.8V143.4z M88.1,143.4h-3.8v-1.9h3.8V143.4z M80.5,143.4h-3.8v-1.9h3.8V143.4z
			 M73,143.4h-3.8v-1.9H73V143.4z M65.4,143.4h-3.8v-1.9h3.8V143.4z"/>
		<path fill="#E30011" d="M95.6,149h-3.8v-1.9h3.8V149z M88.1,149h-3.8v-1.9h3.8V149z M80.5,149h-3.8v-1.9h3.8V149z M73,149h-3.8
			v-1.9H73V149z M65.4,149h-3.8v-1.9h3.8V149z"/>
		<path fill="#E30011" d="M95.6,154.7h-3.8v-1.9h3.8V154.7z M88.1,154.7h-3.8v-1.9h3.8V154.7z M80.5,154.7h-3.8v-1.9h3.8V154.7z
			 M73,154.7h-3.8v-1.9H73V154.7z M65.4,154.7h-3.8v-1.9h3.8V154.7z"/>
		<path fill="#E30011" d="M95.6,160.4h-3.8v-1.9h3.8V160.4z M88.1,160.4h-3.8v-1.9h3.8V160.4z M80.5,160.4h-3.8v-1.9h3.8V160.4z
			 M73,160.4h-3.8v-1.9H73V160.4z M65.4,160.4h-3.8v-1.9h3.8V160.4z"/>
		<path fill="#E30011" d="M95.6,166h-3.8v-1.9h3.8V166z M88.1,166h-3.8v-1.9h3.8V166z M80.5,166h-3.8v-1.9h3.8V166z M73,166h-3.8
			v-1.9H73V166z M65.4,166h-3.8v-1.9h3.8V166z"/>
		<path fill="#E30011" d="M95.6,171.7h-3.8v-1.9h3.8V171.7z M88.1,171.7h-3.8v-1.9h3.8V171.7z M80.5,171.7h-3.8v-1.9h3.8V171.7z
			 M73,171.7h-3.8v-1.9H73V171.7z M65.4,171.7h-3.8v-1.9h3.8V171.7z"/>
		<path fill="#E30011" d="M95.6,177.3h-3.8v-1.9h3.8V177.3z M88.1,177.3h-3.8v-1.9h3.8V177.3z M80.5,177.3h-3.8v-1.9h3.8V177.3z
			 M73,177.3h-3.8v-1.9H73V177.3z M65.4,177.3h-3.8v-1.9h3.8V177.3z"/>
		<path fill="#E30011" d="M95.6,183h-3.8v-1.9h3.8V183z M88.1,183h-3.8v-1.9h3.8V183z M80.5,183h-3.8v-1.9h3.8V183z M73,183h-3.8
			v-1.9H73V183z M65.4,183h-3.8v-1.9h3.8V183z"/>
		<path fill="#E30011" d="M95.6,188.6h-3.8v-1.9h3.8V188.6z M88.1,188.6h-3.8v-1.9h3.8V188.6z M80.5,188.6h-3.8v-1.9h3.8V188.6z
			 M73,188.6h-3.8v-1.9H73V188.6z M65.4,188.6h-3.8v-1.9h3.8V188.6z"/>
		<rect x="62.5" y="193.6" fill="#E30011" width="1.9" height="6.5"/>
		<rect x="67.4" y="193.6" fill="#E30011" width="1.9" height="6.5"/>
		<rect x="72.2" y="193.6" fill="#E30011" width="1.9" height="6.5"/>
		<rect x="77.1" y="193.6" fill="#E30011" width="1.9" height="6.5"/>
		<rect x="82" y="193.6" fill="#E30011" width="1.9" height="6.5"/>
		<rect x="86.8" y="193.6" fill="#E30011" width="1.9" height="6.5"/>
		<rect x="91.7" y="193.6" fill="#E30011" width="1.9" height="6.5"/>
		<path fill="#E30011" d="M40.5,77.3c0,1.3-4,2.5-7.1,2.5s-9.8-0.9-9.8-2.1c0-4.5,4.9-0.2,9.8-2.5C36.3,73.8,40.5,76,40.5,77.3z"/>
		<path fill="#E30011" d="M40.5,70.4c0-1.3-4-2.5-7.1-2.5s-9.8,0.9-9.8,2.1c0,4.5,4.9,0.2,9.8,2.5C36.3,73.8,40.5,71.6,40.5,70.4z"
			/>
		<path fill="#E30011" d="M33.6,61.7c-0.1,0-11.7-0.2-11.7-3.3c0-1.2,0.3-2.1,0.9-2.6c1-0.9,2.4-0.7,4.1-0.5
			c1.9,0.2,4.1,0.5,6.2-0.5c2.4-1.1,5.5-0.3,7.3,0.8c0.8,0.5,1.7,1.3,1.7,2.3C42.3,60.5,36.7,61.7,33.6,61.7z M23.8,58.2
			c1,0.7,6.2,1.6,9.8,1.6c3.2,0,6.3-1.2,6.8-1.8c-0.1-0.2-0.7-0.7-1.7-1.2c-1.3-0.6-3.2-0.9-4.6-0.3c-2.7,1.3-5.3,0.9-7.3,0.7
			c-1.1-0.1-2.3-0.3-2.6,0C23.9,57.3,23.8,57.7,23.8,58.2z"/>
		<path fill="#E30011" d="M40.5,51.5c-0.9,0-1.9-0.2-2.7-0.6c-2.3-1.1-4.6-0.8-6.5-0.5c-1.7,0.2-3.2,0.4-4.3-0.5
			c-0.6-0.6-1-1.5-1-2.7c0-3.2,12.1-3.4,12.2-3.4c3.2,0,9,1.3,9,3.8c0,1-1,1.9-1.8,2.4C44.2,50.9,42.3,51.5,40.5,51.5z M34.1,48.3
			c1.4,0,2.9,0.2,4.5,0.9c1.5,0.7,3.6,0.3,5-0.3c1.1-0.5,1.6-1.1,1.8-1.3c-0.4-0.7-3.7-2-7.1-2c-3.8,0-9.3,0.9-10.3,1.7
			c0,0.6,0.1,1,0.3,1.1c0.4,0.3,1.6,0.2,2.8,0C31.9,48.4,33,48.3,34.1,48.3z"/>
		<circle fill="#FFFFFF" cx="35.6" cy="76.5" r="0.8"/>
		<circle fill="#FFFFFF" cx="35.6" cy="70.4" r="0.8"/>
		<path fill="#E30011" d="M29.8,61.4l-0.2-1.9c0.7-0.1,1.1-0.2,1.2-0.5c0.2-0.5-0.2-1.5-0.6-2.1l1.5-1.1c0.2,0.2,1.6,2.3,0.8,3.9
			C32.2,60.8,31.2,61.3,29.8,61.4z"/>
		<path fill="#E30011" d="M36.7,50.5l-0.5-1.8c1-0.3,1.4-0.7,1.4-0.9c0.1-0.6-0.9-1.7-1.7-2.2l1.1-1.5c0.5,0.3,2.8,2.1,2.5,4
			C39.3,49.2,38.3,50,36.7,50.5z"/>
		<path fill="#E30011" d="M43.3,16.5c-13.1,0-27.1-2.6-27.1-8.3S30.2,0,43.3,0s27.1,2.6,27.1,8.3S56.3,16.5,43.3,16.5z M43.3,3
			C27.4,3,19.2,6.7,19.2,8.3s8.2,5.2,24.1,5.2s24.1-3.7,24.1-5.2S59.2,3,43.3,3z"/>
		<g>
			<ellipse fill="#FFFFFF" cx="42.7" cy="11.4" rx="25.6" ry="6.8"/>
			<path fill="#E30011" d="M42.7,19.7c-13.1,0-27.1-2.6-27.1-8.3c0-5.7,14.1-8.3,27.1-8.3s27.1,2.6,27.1,8.3
				C69.8,17.1,55.8,19.7,42.7,19.7z M42.7,6.2c-15.9,0-24.1,3.7-24.1,5.2s8.2,5.2,24.1,5.2s24.1-3.7,24.1-5.2S58.6,6.2,42.7,6.2z"/>
		</g>
		<path fill="#E30011" d="M47.9,227.7H3.4V106.2h44.5V227.7z M6.8,224.3h37.7V109.6H6.8V224.3z"/>
		<rect x="36.9" y="107.9" fill="#E30011" width="1.9" height="117.6"/>
		<path fill="#E30011" d="M47.9,297.2H3.4v-72.3h44.5V297.2z M6.8,293.8h37.7v-65.5H6.8V293.8z"/>
		<g>
			<polygon fill="#FFFFFF" points="65.1,160.1 59.9,162.3 46.2,128.7 46.2,114.4 			"/>
			<path fill="#E30011" d="M59,164.5L44.5,129v-23.2L67.3,161L59,164.5z M47.9,128.4l13,31.7l2.1-0.9l-15-36.3V128.4z"/>
		</g>
		<polygon fill="#E30011" points="53.1,146.5 53.1,291.3 47.9,297.2 47.2,113.8 		"/>
		<rect x="6.8" y="228.3" fill="#FFFFFF" width="37.7" height="65.5"/>
	</g>
</g>
<g id="Слой_4" display="none">
	
		<rect x="-13.2" y="-24.2" display="inline" fill="none" stroke="#E84918" stroke-width="0.2489" stroke-miterlimit="10" width="186.3" height="328.3"/>
</g>
</svg>
