<?xml version="1.0" encoding="utf-8"?>
<!-- Generator: Adobe Illustrator 19.1.0, SVG Export Plug-In . SVG Version: 6.00 Build 0)  -->
<svg version="1.1" baseProfile="tiny" xmlns="http://www.w3.org/2000/svg" xmlns:xlink="http://www.w3.org/1999/xlink" x="0px"
	 y="0px" viewBox="0 0 287.7 144.8" xml:space="preserve">
<g id="houses" display="none">
	<path display="inline" fill="#696A6C" d="M505.5,151.5h-735.3v-472.5h735.3V151.5z M-226.4,148.1h728.5v-465.7h-728.5V148.1z"/>
	<rect x="-39.3" y="134.2" display="inline" fill="#696A6C" width="319.9" height="3.4"/>
	<rect x="278.9" y="-13.3" display="inline" fill="#696A6C" width="3.4" height="149.1"/>
	<polygon display="inline" fill="#696A6C" points="291.1,151.2 279.3,136.2 281.9,133.5 293.7,148.5 	"/>
</g>
<g id="Слой_3" display="none">
	<g display="inline">
		<g>
			<g>
				<g>
					<g>
						<path fill="#FFFFFF" d="M73,118.3h20.6c2.1,0,3.8-1.7,3.8-3.8V95c0-2.1-1.7-3.8-3.8-3.8H73c-2.1,0-3.8,1.7-3.8,3.8v19.4
							C69.1,116.6,70.8,118.3,73,118.3z"/>
						<path fill="#696A6C" d="M93.6,120H73c-3.1,0-5.5-2.5-5.5-5.5V95c0-3.1,2.5-5.5,5.5-5.5h20.6c3.1,0,5.5,2.5,5.5,5.5v19.4
							C99.1,117.5,96.6,120,93.6,120z M73,92.9c-1.2,0-2.1,1-2.1,2.1v19.4c0,1.2,1,2.1,2.1,2.1h20.6c1.2,0,2.1-1,2.1-2.1V95
							c0-1.2-1-2.1-2.1-2.1H73z"/>
					</g>
					<g>
						<path fill="#FFFFFF" d="M96.1,115.4c1.7,0,3.1,1.4,3.1,3.1s-1.4,3.1-3.1,3.1H70.4c-1.7,0-3.1-1.4-3.1-3.1s1.4-3.1,3.1-3.1
							H96.1z"/>
						<path fill="#696A6C" d="M96.1,123.3H70.4c-2.6,0-4.8-2.1-4.8-4.8c0-2.6,2.1-4.8,4.8-4.8h25.7c2.6,0,4.8,2.1,4.8,4.8
							C100.9,121.1,98.8,123.3,96.1,123.3z M70.4,117.1c-0.8,0-1.4,0.6-1.4,1.4c0,0.8,0.6,1.4,1.4,1.4h25.7c0.8,0,1.4-0.6,1.4-1.4
							c0-0.8-0.6-1.4-1.4-1.4H70.4z"/>
					</g>
				</g>
				<g>
					<g>
						<path fill="#FFFFFF" d="M93.6,40.5H73c-2.1,0-3.8,1.7-3.8,3.8v19.4c0,2.1,1.7,3.8,3.8,3.8h20.6c2.1,0,3.8-1.7,3.8-3.8V44.3
							C97.4,42.2,95.7,40.5,93.6,40.5z"/>
						<path fill="#696A6C" d="M93.6,69.3H73c-3.1,0-5.5-2.5-5.5-5.5V44.3c0-3.1,2.5-5.5,5.5-5.5h20.6c3.1,0,5.5,2.5,5.5,5.5v19.4
							C99.1,66.8,96.6,69.3,93.6,69.3z M73,42.2c-1.2,0-2.1,1-2.1,2.1v19.4c0,1.2,1,2.1,2.1,2.1h20.6c1.2,0,2.1-1,2.1-2.1V44.3
							c0-1.2-1-2.1-2.1-2.1H73z"/>
					</g>
					<g>
						<path fill="#FFFFFF" d="M70.4,43.4c-1.7,0-3.1-1.4-3.1-3.1c0-1.7,1.4-3.1,3.1-3.1h25.7c1.7,0,3.1,1.4,3.1,3.1
							c0,1.7-1.4,3.1-3.1,3.1H70.4z"/>
						<path fill="#696A6C" d="M96.1,45.1H70.4c-2.6,0-4.8-2.1-4.8-4.8c0-2.6,2.1-4.8,4.8-4.8h25.7c2.6,0,4.8,2.1,4.8,4.8
							C100.9,43,98.8,45.1,96.1,45.1z M70.4,38.9c-0.8,0-1.4,0.6-1.4,1.4c0,0.8,0.6,1.4,1.4,1.4h25.7c0.8,0,1.4-0.6,1.4-1.4
							c0-0.8-0.6-1.4-1.4-1.4H70.4z"/>
					</g>
				</g>
				<g>
					<g>
						<path fill="#FFFFFF" d="M20.8,113.1h20.6c2.1,0,3.8-1.7,3.8-3.8V89.8c0-2.1-1.7-3.8-3.8-3.8H20.8c-2.1,0-3.8,1.7-3.8,3.8v19.4
							C17,111.3,18.7,113.1,20.8,113.1z"/>
						<path fill="#696A6C" d="M41.5,114.8H20.8c-3.1,0-5.5-2.5-5.5-5.5V89.8c0-3.1,2.5-5.5,5.5-5.5h20.6c3.1,0,5.5,2.5,5.5,5.5v19.4
							C47,112.3,44.5,114.8,41.5,114.8z M20.8,87.7c-1.2,0-2.1,1-2.1,2.1v19.4c0,1.2,1,2.1,2.1,2.1h20.6c1.2,0,2.1-1,2.1-2.1V89.8
							c0-1.2-1-2.1-2.1-2.1H20.8z"/>
					</g>
					<g>
						<path fill="#FFFFFF" d="M44,110.2c1.7,0,3.1,1.4,3.1,3.1s-1.4,3.1-3.1,3.1H18.3c-1.7,0-3.1-1.4-3.1-3.1s1.4-3.1,3.1-3.1H44z"
							/>
						<path fill="#696A6C" d="M44,118H18.3c-2.6,0-4.8-2.1-4.8-4.8s2.1-4.8,4.8-4.8H44c2.6,0,4.8,2.1,4.8,4.8S46.6,118,44,118z
							 M18.3,111.9c-0.8,0-1.4,0.6-1.4,1.4s0.6,1.4,1.4,1.4H44c0.8,0,1.4-0.6,1.4-1.4s-0.6-1.4-1.4-1.4H18.3z"/>
					</g>
				</g>
				<g>
					<g>
						<path fill="#FFFFFF" d="M46.1,6.1l-18.5,9.2c-1.9,0.9-2.7,3.3-1.7,5.1l10.4,20.8l25.3-12.6L51.2,7.8C50.3,5.9,48,5.1,46.1,6.1
							z"/>
						<path fill="#696A6C" d="M35.5,43.5L24.4,21.2c-1.4-2.7-0.2-6.1,2.5-7.4l18.5-9.2c1.3-0.7,2.8-0.8,4.2-0.3
							C51,4.7,52.1,5.7,52.7,7l11.1,22.3L35.5,43.5z M47.8,7.4c-0.3,0-0.6,0.1-0.9,0.2l-18.5,9.2c-1.1,0.5-1.5,1.8-1,2.9L37,39
							l22.3-11.1L49.7,8.6c-0.3-0.5-0.7-0.9-1.2-1.1C48.2,7.4,48,7.4,47.8,7.4z"/>
					</g>
					<g>
						<path fill="#FFFFFF" d="M26.6,19c-1.5,0.8-3.4,0.1-4.1-1.4c-0.8-1.5-0.1-3.4,1.4-4.1L46.9,2c1.5-0.8,3.4-0.1,4.1,1.4
							c0.8,1.5,0.1,3.4-1.4,4.1L26.6,19z"/>
						<path fill="#696A6C" d="M25.3,21c-1.8,0-3.5-1-4.3-2.7c-1.2-2.4-0.2-5.2,2.2-6.4l23-11.5c1.1-0.6,2.4-0.7,3.7-0.3
							C51,0.7,52,1.5,52.6,2.7c0.6,1.1,0.7,2.4,0.3,3.7c-0.4,1.2-1.3,2.2-2.4,2.8l-23,11.5C26.7,20.9,26,21,25.3,21z M48.3,3.4
							c-0.2,0-0.4,0-0.6,0.1L24.6,15c-0.7,0.3-1,1.2-0.6,1.9c0.3,0.7,1.2,1,1.9,0.6L48.9,6c0.3-0.2,0.6-0.4,0.7-0.8
							c0.1-0.4,0.1-0.7-0.1-1.1c-0.2-0.3-0.5-0.6-0.8-0.7C48.6,3.4,48.4,3.4,48.3,3.4z"/>
					</g>
				</g>
			</g>
			<g>
				<rect x="1.7" y="37.2" fill="#FFFFFF" width="111" height="68.5"/>
				<path fill="#696A6C" d="M114.4,107.4H0V35.5h114.4V107.4z M3.4,104H111V38.9H3.4V104z"/>
			</g>
		</g>
		<g>
			
				<rect x="56" y="22.5" transform="matrix(0.455 0.8905 -0.8905 0.455 53.1221 -37.1539)" fill="#696A6C" width="1.9" height="4.7"/>
			
				<rect x="45.5" y="27" transform="matrix(0.455 0.8905 -0.8905 0.455 52.1742 -24.8716)" fill="#696A6C" width="1.9" height="6.3"/>
			
				<rect x="35" y="33.2" transform="matrix(0.455 0.8905 -0.8905 0.455 51.2276 -12.5895)" fill="#696A6C" width="1.9" height="4.7"/>
		</g>
		<g>
			
				<rect x="52.3" y="16.6" transform="matrix(0.455 0.8905 -0.8905 0.455 45.8824 -37.1507)" fill="#696A6C" width="1.9" height="4.7"/>
			
				<rect x="41.8" y="21.1" transform="matrix(0.455 0.8905 -0.8905 0.455 44.9355 -24.8682)" fill="#696A6C" width="1.9" height="6.3"/>
			
				<rect x="31.3" y="27.3" transform="matrix(0.455 0.8905 -0.8905 0.455 43.9889 -12.5862)" fill="#696A6C" width="1.9" height="4.7"/>
		</g>
		<g>
			
				<rect x="50.5" y="10.1" transform="matrix(0.455 0.8905 -0.8905 0.455 39.1607 -39.0477)" fill="#696A6C" width="1.9" height="4.7"/>
			
				<rect x="40" y="14.7" transform="matrix(0.455 0.8905 -0.8905 0.455 38.213 -26.7657)" fill="#696A6C" width="1.9" height="6.3"/>
			
				<rect x="29.5" y="20.8" transform="matrix(0.455 0.8905 -0.8905 0.455 37.2673 -14.4832)" fill="#696A6C" width="1.9" height="4.7"/>
		</g>
		<path fill="#696A6C" d="M23.5,59.6l-7.1-11.2l11.2-7.1l7.1,11.2L23.5,59.6z M19.1,49l5.1,8l8-5.1l-5.1-8L19.1,49z"/>
		<path fill="#696A6C" d="M74.6,61l-7.1-11.2l11.2-7.1l7.1,11.2L74.6,61z M70.1,50.4l5.1,8l8-5.1l-5.1-8L70.1,50.4z"/>
		<path fill="#696A6C" d="M93.9,100.4l-7.1-11.2L98,82.1l7.1,11.2L93.9,100.4z M89.4,89.7l5.1,8l8-5.1l-5.1-8L89.4,89.7z"/>
		<path fill="#696A6C" d="M40.7,100.4l-7.1-11.2l11.2-7.1l7.1,11.2L40.7,100.4z M36.2,89.7l5.1,8l8-5.1l-5.1-8L36.2,89.7z"/>
		<g>
			<circle fill="#FFFFFF" cx="38.8" cy="51.7" r="9.3"/>
			<path fill="#696A6C" d="M38.8,62c-5.7,0-10.3-4.6-10.3-10.3c0-5.7,4.6-10.3,10.3-10.3c5.7,0,10.3,4.6,10.3,10.3
				C49.1,57.3,44.5,62,38.8,62z M38.8,43.3c-4.6,0-8.4,3.8-8.4,8.4s3.8,8.4,8.4,8.4s8.4-3.8,8.4-8.4S43.4,43.3,38.8,43.3z"/>
		</g>
		<g>
			<circle fill="#FFFFFF" cx="38.8" cy="51.7" r="3.6"/>
			<path fill="#696A6C" d="M38.8,56.2c-2.5,0-4.5-2-4.5-4.5c0-2.5,2-4.5,4.5-4.5s4.5,2,4.5,4.5C43.3,54.2,41.3,56.2,38.8,56.2z
				 M38.8,49.1c-1.4,0-2.6,1.2-2.6,2.6c0,1.4,1.2,2.6,2.6,2.6c1.4,0,2.6-1.2,2.6-2.6C41.4,50.2,40.2,49.1,38.8,49.1z"/>
		</g>
		<g>
			<circle fill="#FFFFFF" cx="90.9" cy="51.7" r="9.3"/>
			<path fill="#696A6C" d="M90.9,62c-5.7,0-10.3-4.6-10.3-10.3c0-5.7,4.6-10.3,10.3-10.3c5.7,0,10.3,4.6,10.3,10.3
				C101.2,57.3,96.6,62,90.9,62z M90.9,43.3c-4.6,0-8.4,3.8-8.4,8.4s3.8,8.4,8.4,8.4s8.4-3.8,8.4-8.4S95.6,43.3,90.9,43.3z"/>
		</g>
		<g>
			<circle fill="#FFFFFF" cx="83.3" cy="90.9" r="9.3"/>
			<path fill="#696A6C" d="M83.3,101.2c-5.7,0-10.3-4.6-10.3-10.3s4.6-10.3,10.3-10.3c5.7,0,10.3,4.6,10.3,10.3
				S88.9,101.2,83.3,101.2z M83.3,82.5c-4.6,0-8.4,3.8-8.4,8.4s3.8,8.4,8.4,8.4s8.4-3.8,8.4-8.4S87.9,82.5,83.3,82.5z"/>
		</g>
		<g>
			<circle fill="#FFFFFF" cx="31.1" cy="90.9" r="9.3"/>
			<path fill="#696A6C" d="M31.1,101.2c-5.7,0-10.3-4.6-10.3-10.3s4.6-10.3,10.3-10.3c5.7,0,10.3,4.6,10.3,10.3
				S36.8,101.2,31.1,101.2z M31.1,82.5c-4.6,0-8.4,3.8-8.4,8.4s3.8,8.4,8.4,8.4s8.4-3.8,8.4-8.4S35.8,82.5,31.1,82.5z"/>
		</g>
		<g>
			<circle fill="#FFFFFF" cx="31.1" cy="90.9" r="3.6"/>
			<path fill="#696A6C" d="M31.1,95.4c-2.5,0-4.5-2-4.5-4.5s2-4.5,4.5-4.5s4.5,2,4.5,4.5S33.6,95.4,31.1,95.4z M31.1,88.3
				c-1.4,0-2.6,1.2-2.6,2.6s1.2,2.6,2.6,2.6c1.4,0,2.6-1.2,2.6-2.6S32.6,88.3,31.1,88.3z"/>
		</g>
		<g>
			<path fill="#FFFFFF" d="M79.9,90.9c0-2,1.6-3.6,3.6-3.6c0.8,0,1.5,0.2,2,0.6c0.9,0.6,1.5,1.7,1.5,2.9c0,2-1.6,3.6-3.6,3.6
				C81.5,94.5,79.9,92.9,79.9,90.9z"/>
			<path fill="#696A6C" d="M83.4,95.4c-2.5,0-4.5-2-4.5-4.5s2-4.5,4.5-4.5c0.9,0,1.8,0.3,2.6,0.8c1.2,0.8,1.9,2.2,1.9,3.7
				C87.9,93.4,85.9,95.4,83.4,95.4z M83.4,88.3c-1.4,0-2.6,1.2-2.6,2.6s1.2,2.6,2.6,2.6s2.6-1.2,2.6-2.6c0-0.9-0.4-1.7-1.1-2.1
				C84.5,88.5,84,88.3,83.4,88.3z"/>
		</g>
		<g>
			<circle fill="#FFFFFF" cx="91.1" cy="51.7" r="3.6"/>
			<path fill="#696A6C" d="M91.1,56.2c-2.5,0-4.5-2-4.5-4.5c0-2.5,2-4.5,4.5-4.5c2.5,0,4.5,2,4.5,4.5C95.6,54.2,93.6,56.2,91.1,56.2
				z M91.1,49.1c-1.4,0-2.6,1.2-2.6,2.6c0,1.4,1.2,2.6,2.6,2.6s2.6-1.2,2.6-2.6C93.7,50.2,92.5,49.1,91.1,49.1z"/>
		</g>
		<g>
			<circle fill="#FFFFFF" cx="266.7" cy="128.7" r="11.3"/>
			<path fill="#696A6C" d="M266.7,141.2c-6.8,0-12.4-5.6-12.4-12.4c0-6.8,5.6-12.4,12.4-12.4c6.8,0,12.4,5.6,12.4,12.4
				C279.1,135.6,273.5,141.2,266.7,141.2z M266.7,118.6c-5.6,0-10.1,4.5-10.1,10.1c0,5.6,4.5,10.1,10.1,10.1
				c5.6,0,10.1-4.5,10.1-10.1C276.8,123.2,272.3,118.6,266.7,118.6z"/>
		</g>
		<g>
			<polygon fill="#FFFFFF" points="169.5,143.1 169.5,107.8 234.6,107.8 234.6,35.6 286,35.6 286,143.1 			"/>
			<path fill="#696A6C" d="M287.7,144.8H167.8v-38.6h65.1V33.9h54.8V144.8z M171.2,141.4h113.1v-104h-48v72.2h-65.1V141.4z"/>
		</g>
		<path fill="#696A6C" d="M248.6,136.7H213v-7.3h-11.2c-1.5,0-2.3-1.7-2.3-4.9c0-3.3,0.8-4.9,2.3-4.9H213v-7.3h35.7V136.7z
			 M215.6,134H246v-19.2h-30.3v7.3h-13.3c-0.3,1-0.3,3.5,0,4.5h13.3V134z"/>
		<path fill="#696A6C" d="M266.7,126.2c-2,0-3.6-1.6-3.6-3.6c0-2,1.6-3.6,3.6-3.6s3.6,1.6,3.6,3.6
			C270.2,124.6,268.6,126.2,266.7,126.2z M266.7,121c-0.9,0-1.7,0.8-1.7,1.7s0.8,1.7,1.7,1.7s1.7-0.8,1.7-1.7S267.6,121,266.7,121z"
			/>
		<path fill="#696A6C" d="M181.8,136.3c-0.2,0-0.3,0-0.5,0l0,0c-1.1-0.1-2-0.7-2.6-1.5c-0.6-0.8-0.9-1.9-0.8-2.9
			c0.3-2.2,2.3-3.7,4.4-3.4c2.2,0.3,3.7,2.3,3.4,4.4c-0.1,1.1-0.7,2-1.5,2.6C183.6,136,182.7,136.3,181.8,136.3z M181.8,130.3
			c-1,0-1.9,0.8-2.1,1.8c-0.1,0.6,0.1,1.1,0.4,1.5c0.3,0.4,0.8,0.7,1.4,0.8l0,0c0.6,0.1,1.1-0.1,1.5-0.4c0.4-0.3,0.7-0.8,0.8-1.4
			c0.1-1.1-0.7-2.2-1.8-2.3C182,130.3,181.9,130.3,181.8,130.3z"/>
		<path fill="#696A6C" d="M231.3,132.8c-2.3,0-4.3-2.6-4.7-6.2c-0.5-3.8,1-7,3.4-7.3h0c2.5-0.3,4.6,2.4,5.1,6.2c0.5,3.8-1,7-3.4,7.3
			C231.6,132.8,231.4,132.8,231.3,132.8z M230.3,121.9c-0.6,0.1-1.5,1.8-1.2,4.4c0.3,2.5,1.6,4.1,2.3,4c0.6-0.1,1.5-1.8,1.2-4.4
			C232.3,123.3,231,121.8,230.3,121.9L230.3,121.9z"/>
		<path fill="#696A6C" d="M270.8,133.8c-1.7,0-3.1-1.4-3.1-3.1s1.4-3.1,3.1-3.1c1.7,0,3.1,1.4,3.1,3.1S272.5,133.8,270.8,133.8z
			 M270.8,129.4c-0.7,0-1.3,0.6-1.3,1.3s0.6,1.3,1.3,1.3c0.7,0,1.3-0.6,1.3-1.3S271.5,129.4,270.8,129.4z"/>
		<circle fill="#696A6C" cx="205.2" cy="124.4" r="1.4"/>
		<g>
			<path fill="#FFFFFF" d="M188.3,121c3.6,16.9,9.2,15.5,9.2,15.5l-5.1-16.7L188.3,121z"/>
			<path fill="#696A6C" d="M197.3,137.7c-0.6,0-1.5-0.1-2.5-0.8c-3.2-2-5.7-7.3-7.5-15.6l-0.2-1l6.3-1.8l5.7,19l-1.2,0.3
				C197.8,137.7,197.6,137.7,197.3,137.7z M189.7,121.8c2.1,9.2,4.7,12.2,6.3,13.2l-4.2-13.8L189.7,121.8z"/>
		</g>
		<path fill="#696A6C" d="M187.8,114.3l2.2,5.4l3-1C193,118.7,191.8,112.1,187.8,114.3z"/>
		<g>
			<path fill="#FFFFFF" d="M244.3,123.1c0-3-3.9-5.3-8.7-5.3c-4.8,0-4.8,10.7,0,10.7C240.4,128.5,244.3,126.1,244.3,123.1z"/>
			<path fill="#696A6C" d="M235.6,129.7c-2.8,0-4.8-2.7-4.8-6.5c0-1.6,0.4-3.1,1.1-4.3c0.9-1.5,2.2-2.3,3.7-2.3
				c5.5,0,9.9,2.9,9.9,6.5C245.5,126.8,241.2,129.7,235.6,129.7z M235.6,119c-0.3,0-1,0-1.7,1.1c-0.5,0.8-0.7,1.9-0.7,3.1
				c0,1.7,0.6,4.1,2.4,4.1c4.1,0,7.5-1.9,7.5-4.1C243.1,120.9,239.7,119,235.6,119z"/>
		</g>
		<path fill="#696A6C" d="M237.7,129.1c-0.1-0.1-2.4-1.4-2.9-3.8c-0.3-1.5,0.1-3.1,1.3-4.7l1.5,1.1c-0.8,1.1-1.1,2.2-0.9,3.2
			c0.3,1.6,2,2.5,2,2.5L237.7,129.1z"/>
		<path fill="#696A6C" d="M240.2,128.8c-1.3-0.9-3.2-3.4-1.1-6.7l1.6,1c-1.6,2.5,0.2,3.9,0.6,4.2L240.2,128.8z"/>
		<polygon fill="#696A6C" points="232.7,34.4 227.7,45.6 227.7,97.3 175.1,97.3 168.1,105.9 232.7,105.9 		"/>
		<g>
			<g>
				<rect x="245.5" y="78.3" fill="#FFFFFF" width="27.8" height="25.3"/>
				<path fill="#696A6C" d="M275,105.3h-31.2V76.6H275V105.3z M247.2,101.9h24.4V80h-24.4V101.9z"/>
			</g>
			<g>
				<g>
					<circle fill="#FFFFFF" cx="264.8" cy="86" r="3.4"/>
					<path fill="#696A6C" d="M264.8,90.4c-2.4,0-4.3-1.9-4.3-4.3s1.9-4.3,4.3-4.3c2.4,0,4.3,1.9,4.3,4.3S267.2,90.4,264.8,90.4z
						 M264.8,83.6c-1.3,0-2.4,1.1-2.4,2.4c0,1.3,1.1,2.4,2.4,2.4c1.3,0,2.4-1.1,2.4-2.4C267.2,84.7,266.1,83.6,264.8,83.6z"/>
				</g>
				<g>
					<circle fill="#FFFFFF" cx="254.1" cy="86" r="3.4"/>
					<path fill="#696A6C" d="M254.1,90.4c-2.4,0-4.3-1.9-4.3-4.3s1.9-4.3,4.3-4.3s4.3,1.9,4.3,4.3S256.5,90.4,254.1,90.4z
						 M254.1,83.6c-1.3,0-2.4,1.1-2.4,2.4c0,1.3,1.1,2.4,2.4,2.4c1.3,0,2.4-1.1,2.4-2.4C256.6,84.7,255.5,83.6,254.1,83.6z"/>
				</g>
				<g>
					<circle fill="#FFFFFF" cx="264.8" cy="96.5" r="3.4"/>
					<path fill="#696A6C" d="M264.8,100.8c-2.4,0-4.3-1.9-4.3-4.3s1.9-4.3,4.3-4.3c2.4,0,4.3,1.9,4.3,4.3S267.2,100.8,264.8,100.8z
						 M264.8,94.1c-1.3,0-2.4,1.1-2.4,2.4s1.1,2.4,2.4,2.4c1.3,0,2.4-1.1,2.4-2.4S266.1,94.1,264.8,94.1z"/>
				</g>
				<g>
					<circle fill="#FFFFFF" cx="254.1" cy="96.5" r="3.4"/>
					<path fill="#696A6C" d="M254.1,100.8c-2.4,0-4.3-1.9-4.3-4.3s1.9-4.3,4.3-4.3s4.3,1.9,4.3,4.3S256.5,100.8,254.1,100.8z
						 M254.1,94.1c-1.3,0-2.4,1.1-2.4,2.4s1.1,2.4,2.4,2.4c1.3,0,2.4-1.1,2.4-2.4S255.5,94.1,254.1,94.1z"/>
				</g>
			</g>
		</g>
		<g>
			<g>
				<rect x="245.5" y="46" fill="#FFFFFF" width="27.8" height="32.2"/>
				<path fill="#696A6C" d="M275,79.9h-31.2V44.3H275V79.9z M247.2,76.5h24.4V47.7h-24.4V76.5z"/>
			</g>
			<g>
				<path fill="#FFFFFF" d="M269,46h1.1c1.8,0,3.2,1.5,3.2,3.2V75c0,1.8-1.5,3.2-3.2,3.2H269c-1.8,0-3.2-1.5-3.2-3.2V49.2
					C265.8,47.4,267.2,46,269,46z"/>
				<path fill="#696A6C" d="M270.1,79.2H269c-2.3,0-4.2-1.9-4.2-4.2V49.2c0-2.3,1.9-4.2,4.2-4.2h1.1c2.3,0,4.2,1.9,4.2,4.2V75
					C274.3,77.3,272.4,79.2,270.1,79.2z M269,46.9c-1.3,0-2.3,1-2.3,2.3V75c0,1.3,1,2.3,2.3,2.3h1.1c1.3,0,2.3-1,2.3-2.3V49.2
					c0-1.3-1-2.3-2.3-2.3H269z"/>
			</g>
			<g>
				<path fill="#FFFFFF" d="M256.1,59.3c-0.9,0-1.6,1.3-1.6,2.8s0.7,2.8,1.6,2.8h11.5c0.9,0,1.6-1.3,1.6-2.8s-0.7-2.8-1.6-2.8H256.1
					z"/>
				<path fill="#696A6C" d="M267.6,65.9h-11.5c-1.4,0-2.5-1.6-2.5-3.8c0-2.1,1.1-3.8,2.5-3.8h11.5c1.4,0,2.5,1.6,2.5,3.8
					C270.1,64.3,269,65.9,267.6,65.9z M256.1,60.2c-0.2,0.1-0.6,0.7-0.6,1.9c0,1.2,0.5,1.8,0.6,1.9l11.5,0c0.2,0,0.6-0.7,0.6-1.9
					c0-1.2-0.5-1.8-0.6-1.9L256.1,60.2z"/>
			</g>
		</g>
		<g>
			<path fill="#FFFFFF" d="M263.4,68.6c0.8,0.8,6.1-3.2,6.9-4c0.8-0.8,0.8-2.1,0-2.9c-0.8-0.8-2.1-0.8-2.9,0
				C266.6,62.5,262.6,67.8,263.4,68.6z"/>
			<path fill="#696A6C" d="M263.7,69.7c-0.5,0-0.8-0.2-1-0.4l0,0c-1.7-1.7,4-8.2,4-8.2c1.1-1.1,3.1-1.1,4.2,0
				c0.6,0.6,0.9,1.3,0.9,2.1c0,0.8-0.3,1.5-0.9,2.1C270.4,65.8,265.6,69.7,263.7,69.7z M268.8,62.1c-0.3,0-0.6,0.1-0.8,0.3
				c-0.7,0.7-2.8,3.5-3.6,5.1c1.5-0.8,4.4-2.9,5.1-3.6c0.2-0.2,0.3-0.5,0.3-0.8c0-0.3-0.1-0.6-0.3-0.8
				C269.4,62.2,269.1,62.1,268.8,62.1z"/>
		</g>
	</g>
</g>
<g id="Слой_3__x28_копия_x29_">
	<path fill="#FFFFFF" d="M73,118.3h20.6c2.1,0,3.8-1.7,3.8-3.8V95c0-2.1-1.7-3.8-3.8-3.8H73c-2.1,0-3.8,1.7-3.8,3.8v19.4
		C69.1,116.6,70.8,118.3,73,118.3z"/>
	<path fill="#E30011" d="M93.6,120H73c-3.1,0-5.5-2.5-5.5-5.5V95c0-3.1,2.5-5.5,5.5-5.5h20.6c3.1,0,5.5,2.5,5.5,5.5v19.4
		C99.1,117.5,96.6,120,93.6,120z M73,92.9c-1.2,0-2.1,1-2.1,2.1v19.4c0,1.2,1,2.1,2.1,2.1h20.6c1.2,0,2.1-1,2.1-2.1V95
		c0-1.2-1-2.1-2.1-2.1H73z"/>
	<path fill="#FFFFFF" d="M96.1,115.4c1.7,0,3.1,1.4,3.1,3.1s-1.4,3.1-3.1,3.1H70.4c-1.7,0-3.1-1.4-3.1-3.1s1.4-3.1,3.1-3.1H96.1z"/>
	<path fill="#E30011" d="M96.1,123.3H70.4c-2.6,0-4.8-2.1-4.8-4.8c0-2.6,2.1-4.8,4.8-4.8h25.7c2.6,0,4.8,2.1,4.8,4.8
		C100.9,121.1,98.8,123.3,96.1,123.3z M70.4,117.1c-0.8,0-1.4,0.6-1.4,1.4c0,0.8,0.6,1.4,1.4,1.4h25.7c0.8,0,1.4-0.6,1.4-1.4
		c0-0.8-0.6-1.4-1.4-1.4H70.4z"/>
	<path fill="#FFFFFF" d="M93.6,40.5H73c-2.1,0-3.8,1.7-3.8,3.8v19.4c0,2.1,1.7,3.8,3.8,3.8h20.6c2.1,0,3.8-1.7,3.8-3.8V44.3
		C97.4,42.2,95.7,40.5,93.6,40.5z"/>
	<path fill="#E30011" d="M93.6,69.3H73c-3.1,0-5.5-2.5-5.5-5.5V44.3c0-3.1,2.5-5.5,5.5-5.5h20.6c3.1,0,5.5,2.5,5.5,5.5v19.4
		C99.1,66.8,96.6,69.3,93.6,69.3z M73,42.2c-1.2,0-2.1,1-2.1,2.1v19.4c0,1.2,1,2.1,2.1,2.1h20.6c1.2,0,2.1-1,2.1-2.1V44.3
		c0-1.2-1-2.1-2.1-2.1H73z"/>
	<path fill="#FFFFFF" d="M70.4,43.4c-1.7,0-3.1-1.4-3.1-3.1c0-1.7,1.4-3.1,3.1-3.1h25.7c1.7,0,3.1,1.4,3.1,3.1
		c0,1.7-1.4,3.1-3.1,3.1H70.4z"/>
	<path fill="#E30011" d="M96.1,45.1H70.4c-2.6,0-4.8-2.1-4.8-4.8c0-2.6,2.1-4.8,4.8-4.8h25.7c2.6,0,4.8,2.1,4.8,4.8
		C100.9,43,98.8,45.1,96.1,45.1z M70.4,38.9c-0.8,0-1.4,0.6-1.4,1.4c0,0.8,0.6,1.4,1.4,1.4h25.7c0.8,0,1.4-0.6,1.4-1.4
		c0-0.8-0.6-1.4-1.4-1.4H70.4z"/>
	<path fill="#FFFFFF" d="M20.8,113.1h20.6c2.1,0,3.8-1.7,3.8-3.8V89.8c0-2.1-1.7-3.8-3.8-3.8H20.8c-2.1,0-3.8,1.7-3.8,3.8v19.4
		C17,111.3,18.7,113.1,20.8,113.1z"/>
	<path fill="#E30011" d="M41.5,114.8H20.8c-3.1,0-5.5-2.5-5.5-5.5V89.8c0-3.1,2.5-5.5,5.5-5.5h20.6c3.1,0,5.5,2.5,5.5,5.5v19.4
		C47,112.3,44.5,114.8,41.5,114.8z M20.8,87.7c-1.2,0-2.1,1-2.1,2.1v19.4c0,1.2,1,2.1,2.1,2.1h20.6c1.2,0,2.1-1,2.1-2.1V89.8
		c0-1.2-1-2.1-2.1-2.1H20.8z"/>
	<path fill="#FFFFFF" d="M44,110.2c1.7,0,3.1,1.4,3.1,3.1s-1.4,3.1-3.1,3.1H18.3c-1.7,0-3.1-1.4-3.1-3.1s1.4-3.1,3.1-3.1H44z"/>
	<path fill="#E30011" d="M44,118H18.3c-2.6,0-4.8-2.1-4.8-4.8s2.1-4.8,4.8-4.8H44c2.6,0,4.8,2.1,4.8,4.8S46.6,118,44,118z
		 M18.3,111.9c-0.8,0-1.4,0.6-1.4,1.4s0.6,1.4,1.4,1.4H44c0.8,0,1.4-0.6,1.4-1.4s-0.6-1.4-1.4-1.4H18.3z"/>
	<path fill="#FFFFFF" d="M46.1,6.1l-18.5,9.2c-1.9,0.9-2.7,3.3-1.7,5.1l10.4,20.8l25.3-12.6L51.2,7.8C50.3,5.9,48,5.1,46.1,6.1z"/>
	<path fill="#E30011" d="M35.5,43.5L24.4,21.2c-1.4-2.7-0.2-6.1,2.5-7.4l18.5-9.2c1.3-0.7,2.8-0.8,4.2-0.3C51,4.7,52.1,5.7,52.7,7
		l11.1,22.3L35.5,43.5z M47.8,7.4c-0.3,0-0.6,0.1-0.9,0.2l-18.5,9.2c-1.1,0.5-1.5,1.8-1,2.9L37,39l22.3-11.1L49.7,8.6
		c-0.3-0.5-0.7-0.9-1.2-1.1C48.2,7.4,48,7.4,47.8,7.4z"/>
	<path fill="#FFFFFF" d="M26.6,19c-1.5,0.8-3.4,0.1-4.1-1.4c-0.8-1.5-0.1-3.4,1.4-4.1L46.9,2c1.5-0.8,3.4-0.1,4.1,1.4
		c0.8,1.5,0.1,3.4-1.4,4.1L26.6,19z"/>
	<path fill="#E30011" d="M25.3,21c-1.8,0-3.5-1-4.3-2.7c-1.2-2.4-0.2-5.2,2.2-6.4l23-11.5c1.1-0.6,2.4-0.7,3.7-0.3
		C51,0.7,52,1.5,52.6,2.7c0.6,1.1,0.7,2.4,0.3,3.7c-0.4,1.2-1.3,2.2-2.4,2.8l-23,11.5C26.7,20.9,26,21,25.3,21z M48.3,3.4
		c-0.2,0-0.4,0-0.6,0.1L24.6,15c-0.7,0.3-1,1.2-0.6,1.9c0.3,0.7,1.2,1,1.9,0.6L48.9,6c0.3-0.2,0.6-0.4,0.7-0.8
		c0.1-0.4,0.1-0.7-0.1-1.1c-0.2-0.3-0.5-0.6-0.8-0.7C48.6,3.4,48.4,3.4,48.3,3.4z"/>
	<rect x="1.7" y="37.2" fill="#FFFFFF" width="111" height="68.5"/>
	<path fill="#E30011" d="M114.4,107.4H0V35.5h114.4V107.4z M3.4,104H111V38.9H3.4V104z"/>
	<rect x="56" y="22.5" transform="matrix(0.455 0.8905 -0.8905 0.455 53.1221 -37.1539)" fill="#E30011" width="1.9" height="4.7"/>
	<rect x="45.5" y="27" transform="matrix(0.455 0.8905 -0.8905 0.455 52.1742 -24.8716)" fill="#E30011" width="1.9" height="6.3"/>
	<rect x="35" y="33.2" transform="matrix(0.455 0.8905 -0.8905 0.455 51.2276 -12.5895)" fill="#E30011" width="1.9" height="4.7"/>
	
		<rect x="52.3" y="16.6" transform="matrix(0.455 0.8905 -0.8905 0.455 45.8824 -37.1507)" fill="#E30011" width="1.9" height="4.7"/>
	
		<rect x="41.8" y="21.1" transform="matrix(0.455 0.8905 -0.8905 0.455 44.9355 -24.8682)" fill="#E30011" width="1.9" height="6.3"/>
	
		<rect x="31.3" y="27.3" transform="matrix(0.455 0.8905 -0.8905 0.455 43.9889 -12.5862)" fill="#E30011" width="1.9" height="4.7"/>
	
		<rect x="50.5" y="10.1" transform="matrix(0.455 0.8905 -0.8905 0.455 39.1607 -39.0477)" fill="#E30011" width="1.9" height="4.7"/>
	<rect x="40" y="14.7" transform="matrix(0.455 0.8905 -0.8905 0.455 38.213 -26.7657)" fill="#E30011" width="1.9" height="6.3"/>
	
		<rect x="29.5" y="20.8" transform="matrix(0.455 0.8905 -0.8905 0.455 37.2673 -14.4832)" fill="#E30011" width="1.9" height="4.7"/>
	<path fill="#E30011" d="M23.5,59.6l-7.1-11.2l11.2-7.1l7.1,11.2L23.5,59.6z M19.1,49l5.1,8l8-5.1l-5.1-8L19.1,49z"/>
	<path fill="#E30011" d="M74.6,61l-7.1-11.2l11.2-7.1l7.1,11.2L74.6,61z M70.1,50.4l5.1,8l8-5.1l-5.1-8L70.1,50.4z"/>
	<path fill="#E30011" d="M93.9,100.4l-7.1-11.2L98,82.1l7.1,11.2L93.9,100.4z M89.4,89.7l5.1,8l8-5.1l-5.1-8L89.4,89.7z"/>
	<path fill="#E30011" d="M40.7,100.4l-7.1-11.2l11.2-7.1l7.1,11.2L40.7,100.4z M36.2,89.7l5.1,8l8-5.1l-5.1-8L36.2,89.7z"/>
	<circle fill="#FFFFFF" cx="38.8" cy="51.7" r="9.3"/>
	<path fill="#E30011" d="M38.8,62c-5.7,0-10.3-4.6-10.3-10.3c0-5.7,4.6-10.3,10.3-10.3c5.7,0,10.3,4.6,10.3,10.3
		C49.1,57.3,44.5,62,38.8,62z M38.8,43.3c-4.6,0-8.4,3.8-8.4,8.4s3.8,8.4,8.4,8.4s8.4-3.8,8.4-8.4S43.4,43.3,38.8,43.3z"/>
	<circle fill="#FFFFFF" cx="38.8" cy="51.7" r="3.6"/>
	<path fill="#E30011" d="M38.8,56.2c-2.5,0-4.5-2-4.5-4.5c0-2.5,2-4.5,4.5-4.5s4.5,2,4.5,4.5C43.3,54.2,41.3,56.2,38.8,56.2z
		 M38.8,49.1c-1.4,0-2.6,1.2-2.6,2.6c0,1.4,1.2,2.6,2.6,2.6c1.4,0,2.6-1.2,2.6-2.6C41.4,50.2,40.2,49.1,38.8,49.1z"/>
	<circle fill="#FFFFFF" cx="90.9" cy="51.7" r="9.3"/>
	<path fill="#E30011" d="M90.9,62c-5.7,0-10.3-4.6-10.3-10.3c0-5.7,4.6-10.3,10.3-10.3c5.7,0,10.3,4.6,10.3,10.3
		C101.2,57.3,96.6,62,90.9,62z M90.9,43.3c-4.6,0-8.4,3.8-8.4,8.4s3.8,8.4,8.4,8.4s8.4-3.8,8.4-8.4S95.6,43.3,90.9,43.3z"/>
	<circle fill="#FFFFFF" cx="83.3" cy="90.9" r="9.3"/>
	<path fill="#E30011" d="M83.3,101.2c-5.7,0-10.3-4.6-10.3-10.3s4.6-10.3,10.3-10.3c5.7,0,10.3,4.6,10.3,10.3S88.9,101.2,83.3,101.2
		z M83.3,82.5c-4.6,0-8.4,3.8-8.4,8.4s3.8,8.4,8.4,8.4s8.4-3.8,8.4-8.4S87.9,82.5,83.3,82.5z"/>
	<circle fill="#FFFFFF" cx="31.1" cy="90.9" r="9.3"/>
	<path fill="#E30011" d="M31.1,101.2c-5.7,0-10.3-4.6-10.3-10.3s4.6-10.3,10.3-10.3c5.7,0,10.3,4.6,10.3,10.3S36.8,101.2,31.1,101.2
		z M31.1,82.5c-4.6,0-8.4,3.8-8.4,8.4s3.8,8.4,8.4,8.4s8.4-3.8,8.4-8.4S35.8,82.5,31.1,82.5z"/>
	<circle fill="#FFFFFF" cx="31.1" cy="90.9" r="3.6"/>
	<path fill="#E30011" d="M31.1,95.4c-2.5,0-4.5-2-4.5-4.5s2-4.5,4.5-4.5s4.5,2,4.5,4.5S33.6,95.4,31.1,95.4z M31.1,88.3
		c-1.4,0-2.6,1.2-2.6,2.6s1.2,2.6,2.6,2.6c1.4,0,2.6-1.2,2.6-2.6S32.6,88.3,31.1,88.3z"/>
	<path fill="#FFFFFF" d="M79.9,90.9c0-2,1.6-3.6,3.6-3.6c0.8,0,1.5,0.2,2,0.6c0.9,0.6,1.5,1.7,1.5,2.9c0,2-1.6,3.6-3.6,3.6
		C81.5,94.5,79.9,92.9,79.9,90.9z"/>
	<path fill="#E30011" d="M83.4,95.4c-2.5,0-4.5-2-4.5-4.5s2-4.5,4.5-4.5c0.9,0,1.8,0.3,2.6,0.8c1.2,0.8,1.9,2.2,1.9,3.7
		C87.9,93.4,85.9,95.4,83.4,95.4z M83.4,88.3c-1.4,0-2.6,1.2-2.6,2.6s1.2,2.6,2.6,2.6s2.6-1.2,2.6-2.6c0-0.9-0.4-1.7-1.1-2.1
		C84.5,88.5,84,88.3,83.4,88.3z"/>
	<circle fill="#FFFFFF" cx="91.1" cy="51.7" r="3.6"/>
	<path fill="#E30011" d="M91.1,56.2c-2.5,0-4.5-2-4.5-4.5c0-2.5,2-4.5,4.5-4.5c2.5,0,4.5,2,4.5,4.5C95.6,54.2,93.6,56.2,91.1,56.2z
		 M91.1,49.1c-1.4,0-2.6,1.2-2.6,2.6c0,1.4,1.2,2.6,2.6,2.6s2.6-1.2,2.6-2.6C93.7,50.2,92.5,49.1,91.1,49.1z"/>
	<circle fill="#FFFFFF" cx="266.7" cy="128.7" r="11.3"/>
	<path fill="#E30011" d="M266.7,141.2c-6.8,0-12.4-5.6-12.4-12.4c0-6.8,5.6-12.4,12.4-12.4c6.8,0,12.4,5.6,12.4,12.4
		C279.1,135.6,273.5,141.2,266.7,141.2z M266.7,118.6c-5.6,0-10.1,4.5-10.1,10.1c0,5.6,4.5,10.1,10.1,10.1c5.6,0,10.1-4.5,10.1-10.1
		C276.8,123.2,272.3,118.6,266.7,118.6z"/>
	<polygon fill="#FFFFFF" points="169.5,143.1 169.5,107.8 234.6,107.8 234.6,35.6 286,35.6 286,143.1 	"/>
	<path fill="#E30011" d="M287.7,144.8H167.8v-38.6h65.1V33.9h54.8V144.8z M171.2,141.4h113.1v-104h-48v72.2h-65.1V141.4z"/>
	<path fill="#E30011" d="M248.6,136.7H213v-7.3h-11.2c-1.5,0-2.3-1.7-2.3-4.9c0-3.3,0.8-4.9,2.3-4.9H213v-7.3h35.7V136.7z
		 M215.6,134H246v-19.2h-30.3v7.3h-13.3c-0.3,1-0.3,3.5,0,4.5h13.3V134z"/>
	<path fill="#E30011" d="M266.7,126.2c-2,0-3.6-1.6-3.6-3.6c0-2,1.6-3.6,3.6-3.6s3.6,1.6,3.6,3.6
		C270.2,124.6,268.6,126.2,266.7,126.2z M266.7,121c-0.9,0-1.7,0.8-1.7,1.7s0.8,1.7,1.7,1.7s1.7-0.8,1.7-1.7S267.6,121,266.7,121z"
		/>
	<path fill="#E30011" d="M181.8,136.3c-0.2,0-0.3,0-0.5,0l0,0c-1.1-0.1-2-0.7-2.6-1.5c-0.6-0.8-0.9-1.9-0.8-2.9
		c0.3-2.2,2.3-3.7,4.4-3.4c2.2,0.3,3.7,2.3,3.4,4.4c-0.1,1.1-0.7,2-1.5,2.6C183.6,136,182.7,136.3,181.8,136.3z M181.8,130.3
		c-1,0-1.9,0.8-2.1,1.8c-0.1,0.6,0.1,1.1,0.4,1.5c0.3,0.4,0.8,0.7,1.4,0.8l0,0c0.6,0.1,1.1-0.1,1.5-0.4c0.4-0.3,0.7-0.8,0.8-1.4
		c0.1-1.1-0.7-2.2-1.8-2.3C182,130.3,181.9,130.3,181.8,130.3z"/>
	<path fill="#E30011" d="M231.3,132.8c-2.3,0-4.3-2.6-4.7-6.2c-0.5-3.8,1-7,3.4-7.3h0c2.5-0.3,4.6,2.4,5.1,6.2c0.5,3.8-1,7-3.4,7.3
		C231.6,132.8,231.4,132.8,231.3,132.8z M230.3,121.9c-0.6,0.1-1.5,1.8-1.2,4.4c0.3,2.5,1.6,4.1,2.3,4c0.6-0.1,1.5-1.8,1.2-4.4
		C232.3,123.3,231,121.8,230.3,121.9L230.3,121.9z"/>
	<path fill="#E30011" d="M270.8,133.8c-1.7,0-3.1-1.4-3.1-3.1s1.4-3.1,3.1-3.1c1.7,0,3.1,1.4,3.1,3.1S272.5,133.8,270.8,133.8z
		 M270.8,129.4c-0.7,0-1.3,0.6-1.3,1.3s0.6,1.3,1.3,1.3c0.7,0,1.3-0.6,1.3-1.3S271.5,129.4,270.8,129.4z"/>
	<circle fill="#E30011" cx="205.2" cy="124.4" r="1.4"/>
	<path fill="#FFFFFF" d="M188.3,121c3.6,16.9,9.2,15.5,9.2,15.5l-5.1-16.7L188.3,121z"/>
	<path fill="#E30011" d="M197.3,137.7c-0.6,0-1.5-0.1-2.5-0.8c-3.2-2-5.7-7.3-7.5-15.6l-0.2-1l6.3-1.8l5.7,19l-1.2,0.3
		C197.8,137.7,197.6,137.7,197.3,137.7z M189.7,121.8c2.1,9.2,4.7,12.2,6.3,13.2l-4.2-13.8L189.7,121.8z"/>
	<path fill="#E30011" d="M187.8,114.3l2.2,5.4l3-1C193,118.7,191.8,112.1,187.8,114.3z"/>
	<path fill="#FFFFFF" d="M244.3,123.1c0-3-3.9-5.3-8.7-5.3c-4.8,0-4.8,10.7,0,10.7C240.4,128.5,244.3,126.1,244.3,123.1z"/>
	<path fill="#E30011" d="M235.6,129.7c-2.8,0-4.8-2.7-4.8-6.5c0-1.6,0.4-3.1,1.1-4.3c0.9-1.5,2.2-2.3,3.7-2.3c5.5,0,9.9,2.9,9.9,6.5
		C245.5,126.8,241.2,129.7,235.6,129.7z M235.6,119c-0.3,0-1,0-1.7,1.1c-0.5,0.8-0.7,1.9-0.7,3.1c0,1.7,0.6,4.1,2.4,4.1
		c4.1,0,7.5-1.9,7.5-4.1C243.1,120.9,239.7,119,235.6,119z"/>
	<path fill="#E30011" d="M237.7,129.1c-0.1-0.1-2.4-1.4-2.9-3.8c-0.3-1.5,0.1-3.1,1.3-4.7l1.5,1.1c-0.8,1.1-1.1,2.2-0.9,3.2
		c0.3,1.6,2,2.5,2,2.5L237.7,129.1z"/>
	<path fill="#E30011" d="M240.2,128.8c-1.3-0.9-3.2-3.4-1.1-6.7l1.6,1c-1.6,2.5,0.2,3.9,0.6,4.2L240.2,128.8z"/>
	<polygon fill="#E30011" points="232.7,34.4 227.7,45.6 227.7,97.3 175.1,97.3 168.1,105.9 232.7,105.9 	"/>
	<rect x="245.5" y="78.3" fill="#FFFFFF" width="27.8" height="25.3"/>
	<path fill="#E30011" d="M275,105.3h-31.2V76.6H275V105.3z M247.2,101.9h24.4V80h-24.4V101.9z"/>
	<circle fill="#FFFFFF" cx="264.8" cy="86" r="3.4"/>
	<path fill="#E30011" d="M264.8,90.4c-2.4,0-4.3-1.9-4.3-4.3s1.9-4.3,4.3-4.3c2.4,0,4.3,1.9,4.3,4.3S267.2,90.4,264.8,90.4z
		 M264.8,83.6c-1.3,0-2.4,1.1-2.4,2.4c0,1.3,1.1,2.4,2.4,2.4c1.3,0,2.4-1.1,2.4-2.4C267.2,84.7,266.1,83.6,264.8,83.6z"/>
	<circle fill="#FFFFFF" cx="254.1" cy="86" r="3.4"/>
	<path fill="#E30011" d="M254.1,90.4c-2.4,0-4.3-1.9-4.3-4.3s1.9-4.3,4.3-4.3s4.3,1.9,4.3,4.3S256.5,90.4,254.1,90.4z M254.1,83.6
		c-1.3,0-2.4,1.1-2.4,2.4c0,1.3,1.1,2.4,2.4,2.4c1.3,0,2.4-1.1,2.4-2.4C256.6,84.7,255.5,83.6,254.1,83.6z"/>
	<circle fill="#FFFFFF" cx="264.8" cy="96.5" r="3.4"/>
	<path fill="#E30011" d="M264.8,100.8c-2.4,0-4.3-1.9-4.3-4.3s1.9-4.3,4.3-4.3c2.4,0,4.3,1.9,4.3,4.3S267.2,100.8,264.8,100.8z
		 M264.8,94.1c-1.3,0-2.4,1.1-2.4,2.4s1.1,2.4,2.4,2.4c1.3,0,2.4-1.1,2.4-2.4S266.1,94.1,264.8,94.1z"/>
	<circle fill="#FFFFFF" cx="254.1" cy="96.5" r="3.4"/>
	<path fill="#E30011" d="M254.1,100.8c-2.4,0-4.3-1.9-4.3-4.3s1.9-4.3,4.3-4.3s4.3,1.9,4.3,4.3S256.5,100.8,254.1,100.8z
		 M254.1,94.1c-1.3,0-2.4,1.1-2.4,2.4s1.1,2.4,2.4,2.4c1.3,0,2.4-1.1,2.4-2.4S255.5,94.1,254.1,94.1z"/>
	<rect x="245.5" y="46" fill="#FFFFFF" width="27.8" height="32.2"/>
	<path fill="#E30011" d="M275,79.9h-31.2V44.3H275V79.9z M247.2,76.5h24.4V47.7h-24.4V76.5z"/>
	<path fill="#FFFFFF" d="M269,46h1.1c1.8,0,3.2,1.5,3.2,3.2V75c0,1.8-1.5,3.2-3.2,3.2H269c-1.8,0-3.2-1.5-3.2-3.2V49.2
		C265.8,47.4,267.2,46,269,46z"/>
	<path fill="#E30011" d="M270.1,79.2H269c-2.3,0-4.2-1.9-4.2-4.2V49.2c0-2.3,1.9-4.2,4.2-4.2h1.1c2.3,0,4.2,1.9,4.2,4.2V75
		C274.3,77.3,272.4,79.2,270.1,79.2z M269,46.9c-1.3,0-2.3,1-2.3,2.3V75c0,1.3,1,2.3,2.3,2.3h1.1c1.3,0,2.3-1,2.3-2.3V49.2
		c0-1.3-1-2.3-2.3-2.3H269z"/>
	<path fill="#FFFFFF" d="M256.1,59.3c-0.9,0-1.6,1.3-1.6,2.8s0.7,2.8,1.6,2.8h11.5c0.9,0,1.6-1.3,1.6-2.8s-0.7-2.8-1.6-2.8H256.1z"
		/>
	<path fill="#E30011" d="M267.6,65.9h-11.5c-1.4,0-2.5-1.6-2.5-3.8c0-2.1,1.1-3.8,2.5-3.8h11.5c1.4,0,2.5,1.6,2.5,3.8
		C270.1,64.3,269,65.9,267.6,65.9z M256.1,60.2c-0.2,0.1-0.6,0.7-0.6,1.9c0,1.2,0.5,1.8,0.6,1.9l11.5,0c0.2,0,0.6-0.7,0.6-1.9
		c0-1.2-0.5-1.8-0.6-1.9L256.1,60.2z"/>
	<path fill="#FFFFFF" d="M263.4,68.6c0.8,0.8,6.1-3.2,6.9-4c0.8-0.8,0.8-2.1,0-2.9c-0.8-0.8-2.1-0.8-2.9,0
		C266.6,62.5,262.6,67.8,263.4,68.6z"/>
	<path fill="#E30011" d="M263.7,69.7c-0.5,0-0.8-0.2-1-0.4l0,0c-1.7-1.7,4-8.2,4-8.2c1.1-1.1,3.1-1.1,4.2,0c0.6,0.6,0.9,1.3,0.9,2.1
		c0,0.8-0.3,1.5-0.9,2.1C270.4,65.8,265.6,69.7,263.7,69.7z M268.8,62.1c-0.3,0-0.6,0.1-0.8,0.3c-0.7,0.7-2.8,3.5-3.6,5.1
		c1.5-0.8,4.4-2.9,5.1-3.6c0.2-0.2,0.3-0.5,0.3-0.8c0-0.3-0.1-0.6-0.3-0.8C269.4,62.2,269.1,62.1,268.8,62.1z"/>
</g>
<g id="Слой_2" display="none">
	<g display="inline">
		<g>
			<g>
				<g>
					<path fill="#FFFFFF" d="M73.3,118.3h20.6c2.1,0,3.8-1.7,3.8-3.8V95c0-2.1-1.7-3.8-3.8-3.8H73.3c-2.1,0-3.8,1.7-3.8,3.8v19.4
						C69.5,116.6,71.2,118.3,73.3,118.3z"/>
					<path fill="#E30011" d="M93.9,120H73.3c-3.1,0-5.5-2.5-5.5-5.5V95c0-3.1,2.5-5.5,5.5-5.5h20.6c3.1,0,5.5,2.5,5.5,5.5v19.4
						C99.5,117.5,97,120,93.9,120z M73.3,92.9c-1.2,0-2.1,1-2.1,2.1v19.4c0,1.2,1,2.1,2.1,2.1h20.6c1.2,0,2.1-1,2.1-2.1V95
						c0-1.2-1-2.1-2.1-2.1H73.3z"/>
				</g>
				<g>
					<path fill="#FFFFFF" d="M96.5,115.4c1.7,0,3.1,1.4,3.1,3.1s-1.4,3.1-3.1,3.1H70.7c-1.7,0-3.1-1.4-3.1-3.1s1.4-3.1,3.1-3.1H96.5
						z"/>
					<path fill="#E30011" d="M96.5,123.2H70.7c-2.6,0-4.8-2.1-4.8-4.8s2.1-4.8,4.8-4.8h25.7c2.6,0,4.8,2.1,4.8,4.8
						S99.1,123.2,96.5,123.2z M70.7,117.1c-0.8,0-1.4,0.6-1.4,1.4s0.6,1.4,1.4,1.4h25.7c0.8,0,1.4-0.6,1.4-1.4s-0.6-1.4-1.4-1.4
						H70.7z"/>
				</g>
			</g>
			<g>
				<g>
					<path fill="#FFFFFF" d="M93.9,40.5H73.3c-2.1,0-3.8,1.7-3.8,3.8v19.4c0,2.1,1.7,3.8,3.8,3.8h20.6c2.1,0,3.8-1.7,3.8-3.8V44.3
						C97.8,42.2,96,40.5,93.9,40.5z"/>
					<path fill="#E30011" d="M93.9,69.3H73.3c-3.1,0-5.5-2.5-5.5-5.5V44.3c0-3.1,2.5-5.5,5.5-5.5h20.6c3.1,0,5.5,2.5,5.5,5.5v19.4
						C99.5,66.8,97,69.3,93.9,69.3z M73.3,42.2c-1.2,0-2.1,1-2.1,2.1v19.4c0,1.2,1,2.1,2.1,2.1h20.6c1.2,0,2.1-1,2.1-2.1V44.3
						c0-1.2-1-2.1-2.1-2.1H73.3z"/>
				</g>
				<g>
					<path fill="#FFFFFF" d="M70.7,43.4c-1.7,0-3.1-1.4-3.1-3.1c0-1.7,1.4-3.1,3.1-3.1h25.7c1.7,0,3.1,1.4,3.1,3.1
						c0,1.7-1.4,3.1-3.1,3.1H70.7z"/>
					<path fill="#E30011" d="M96.5,45.1H70.7c-2.6,0-4.8-2.1-4.8-4.8s2.1-4.8,4.8-4.8h25.7c2.6,0,4.8,2.1,4.8,4.8
						S99.1,45.1,96.5,45.1z M70.7,38.9c-0.8,0-1.4,0.6-1.4,1.4c0,0.8,0.6,1.4,1.4,1.4h25.7c0.8,0,1.4-0.6,1.4-1.4
						c0-0.8-0.6-1.4-1.4-1.4H70.7z"/>
				</g>
			</g>
			<g>
				<g>
					<path fill="#FFFFFF" d="M21.2,113.1h20.6c2.1,0,3.8-1.7,3.8-3.8V89.8c0-2.1-1.7-3.8-3.8-3.8H21.2c-2.1,0-3.8,1.7-3.8,3.8v19.4
						C17.3,111.3,19,113.1,21.2,113.1z"/>
					<path fill="#E30011" d="M41.8,114.8H21.2c-3.1,0-5.5-2.5-5.5-5.5V89.8c0-3.1,2.5-5.5,5.5-5.5h20.6c3.1,0,5.5,2.5,5.5,5.5v19.4
						C47.3,112.3,44.8,114.8,41.8,114.8z M21.2,87.7c-1.2,0-2.1,1-2.1,2.1v19.4c0,1.2,1,2.1,2.1,2.1h20.6c1.2,0,2.1-1,2.1-2.1V89.8
						c0-1.2-1-2.1-2.1-2.1H21.2z"/>
				</g>
				<g>
					<path fill="#FFFFFF" d="M44.3,110.1c1.7,0,3.1,1.4,3.1,3.1c0,1.7-1.4,3.1-3.1,3.1H18.6c-1.7,0-3.1-1.4-3.1-3.1
						c0-1.7,1.4-3.1,3.1-3.1H44.3z"/>
					<path fill="#E30011" d="M44.3,118H18.6c-2.6,0-4.8-2.1-4.8-4.8c0-2.6,2.1-4.8,4.8-4.8h25.7c2.6,0,4.8,2.1,4.8,4.8
						C49.1,115.9,47,118,44.3,118z M18.6,111.8c-0.8,0-1.4,0.6-1.4,1.4c0,0.8,0.6,1.4,1.4,1.4h25.7c0.8,0,1.4-0.6,1.4-1.4
						c0-0.8-0.6-1.4-1.4-1.4H18.6z"/>
				</g>
			</g>
			<g>
				<g>
					<path fill="#FFFFFF" d="M46.4,6.1l-18.5,9.2c-1.9,0.9-2.7,3.3-1.7,5.1l10.4,20.8l25.3-12.6L51.6,7.8
						C50.6,5.9,48.3,5.1,46.4,6.1z"/>
					<path fill="#E30011" d="M35.8,43.5L24.7,21.2c-0.7-1.3-0.8-2.8-0.3-4.2s1.5-2.5,2.8-3.2l18.5-9.2c1.3-0.7,2.8-0.8,4.2-0.3
						c1.4,0.5,2.5,1.5,3.2,2.8l11.1,22.3L35.8,43.5z M48.1,7.4c-0.3,0-0.6,0.1-0.9,0.2l-18.5,9.2c-0.5,0.3-0.9,0.7-1.1,1.2
						s-0.1,1.1,0.1,1.6l9.6,19.3l22.3-11.1L50,8.5c-0.3-0.5-0.7-0.9-1.2-1.1C48.6,7.4,48.3,7.4,48.1,7.4z"/>
				</g>
				<g>
					<path fill="#FFFFFF" d="M27,19c-1.5,0.8-3.4,0.1-4.1-1.4c-0.8-1.5-0.1-3.4,1.4-4.1L47.2,2c1.5-0.8,3.4-0.1,4.1,1.4
						c0.8,1.5,0.1,3.4-1.4,4.1L27,19z"/>
					<path fill="#E30011" d="M25.6,21c-1.8,0-3.5-1-4.3-2.7c-1.2-2.4-0.2-5.2,2.2-6.4l23-11.5c1.1-0.6,2.4-0.7,3.7-0.3
						c1.2,0.4,2.2,1.3,2.8,2.4c1.2,2.4,0.2,5.2-2.2,6.4l-23,11.5C27,20.9,26.3,21,25.6,21z M48.6,3.4c-0.2,0-0.4,0-0.6,0.1L25,15
						c-0.7,0.3-1,1.2-0.6,1.9c0.3,0.7,1.2,1,1.9,0.6L49.2,6c0.7-0.3,1-1.2,0.6-1.9c-0.2-0.3-0.5-0.6-0.8-0.7
						C48.9,3.4,48.8,3.4,48.6,3.4z"/>
				</g>
			</g>
		</g>
		<g>
			<rect x="2" y="37.2" fill="#FFFFFF" width="111" height="68.5"/>
			<path fill="#E30011" d="M114.7,107.4H0.3V35.5h114.4V107.4z M3.7,104h107.6V38.9H3.7V104z"/>
		</g>
		<g>
			
				<rect x="56.3" y="22.4" transform="matrix(0.455 0.8905 -0.8905 0.455 53.2875 -37.4657)" fill="#E30011" width="1.9" height="4.7"/>
			
				<rect x="45.8" y="27" transform="matrix(0.455 0.8905 -0.8905 0.455 52.3401 -25.1841)" fill="#E30011" width="1.9" height="6.3"/>
			
				<rect x="35.3" y="33.2" transform="matrix(0.455 0.8905 -0.8905 0.455 51.3932 -12.9017)" fill="#E30011" width="1.9" height="4.7"/>
		</g>
		<g>
			
				<rect x="52.7" y="16.5" transform="matrix(0.455 0.8905 -0.8905 0.455 46.048 -37.4628)" fill="#E30011" width="1.9" height="4.7"/>
			
				<rect x="42.2" y="21.1" transform="matrix(0.455 0.8905 -0.8905 0.455 45.1009 -25.18)" fill="#E30011" width="1.9" height="6.3"/>
			
				<rect x="31.7" y="27.3" transform="matrix(0.455 0.8905 -0.8905 0.455 44.1543 -12.8979)" fill="#E30011" width="1.9" height="4.7"/>
		</g>
		<g>
			
				<rect x="50.9" y="10.1" transform="matrix(0.455 0.8905 -0.8905 0.455 39.3271 -39.3593)" fill="#E30011" width="1.9" height="4.7"/>
			
				<rect x="40.4" y="14.7" transform="matrix(0.455 0.8905 -0.8905 0.455 38.3801 -27.0765)" fill="#E30011" width="1.9" height="6.3"/>
			
				<rect x="29.9" y="20.8" transform="matrix(0.455 0.8905 -0.8905 0.455 37.4327 -14.795)" fill="#E30011" width="1.9" height="4.7"/>
		</g>
		<path fill="#E30011" d="M23.9,59.6l-7.1-11.2L28,41.3l7.1,11.2L23.9,59.6z M19.4,49l5.1,8l8-5.1l-5.1-8L19.4,49z"/>
		<path fill="#E30011" d="M75,61l-7.1-11.2l11.2-7.1l7.1,11.2L75,61z M70.5,50.4l5.1,8l8-5.1l-5.1-8L70.5,50.4z"/>
		<path fill="#E30011" d="M94.3,100.3l-7.1-11.2L98.4,82l7.1,11.2L94.3,100.3z M89.8,89.7l5.1,8l8-5.1l-5.1-8L89.8,89.7z"/>
		<path fill="#E30011" d="M41.1,100.3L34,89.1L45.2,82l7.1,11.2L41.1,100.3z M36.6,89.7l5.1,8l8-5.1l-5.1-8L36.6,89.7z"/>
		<g>
			<circle fill="#FFFFFF" cx="39.1" cy="51.7" r="9.3"/>
			<path fill="#E30011" d="M39.1,61.9c-5.7,0-10.3-4.6-10.3-10.3s4.6-10.3,10.3-10.3S49.4,46,49.4,51.7S44.8,61.9,39.1,61.9z
				 M39.1,43.3c-4.6,0-8.4,3.8-8.4,8.4s3.8,8.4,8.4,8.4s8.4-3.8,8.4-8.4S43.8,43.3,39.1,43.3z"/>
		</g>
		<g>
			<circle fill="#FFFFFF" cx="39.1" cy="51.7" r="3.6"/>
			<path fill="#E30011" d="M39.1,56.2c-2.5,0-4.5-2-4.5-4.5c0-2.5,2-4.5,4.5-4.5c2.5,0,4.5,2,4.5,4.5C43.6,54.1,41.6,56.2,39.1,56.2
				z M39.1,49c-1.4,0-2.6,1.2-2.6,2.6c0,1.4,1.2,2.6,2.6,2.6c1.4,0,2.6-1.2,2.6-2.6C41.8,50.2,40.6,49,39.1,49z"/>
		</g>
		<g>
			<circle fill="#FFFFFF" cx="91.3" cy="51.7" r="9.3"/>
			<path fill="#E30011" d="M91.3,61.9c-5.7,0-10.3-4.6-10.3-10.3s4.6-10.3,10.3-10.3c5.7,0,10.3,4.6,10.3,10.3S96.9,61.9,91.3,61.9z
				 M91.3,43.3c-4.6,0-8.4,3.8-8.4,8.4s3.8,8.4,8.4,8.4s8.4-3.8,8.4-8.4S95.9,43.3,91.3,43.3z"/>
		</g>
		<g>
			<circle fill="#FFFFFF" cx="83.6" cy="90.9" r="9.3"/>
			<path fill="#E30011" d="M83.6,101.2c-5.7,0-10.3-4.6-10.3-10.3c0-5.7,4.6-10.3,10.3-10.3c5.7,0,10.3,4.6,10.3,10.3
				C93.9,96.6,89.3,101.2,83.6,101.2z M83.6,82.5c-4.6,0-8.4,3.8-8.4,8.4c0,4.6,3.8,8.4,8.4,8.4s8.4-3.8,8.4-8.4
				C92,86.3,88.2,82.5,83.6,82.5z"/>
		</g>
		<g>
			<circle fill="#FFFFFF" cx="31.5" cy="90.9" r="9.3"/>
			<path fill="#E30011" d="M31.5,101.2c-5.7,0-10.3-4.6-10.3-10.3c0-5.7,4.6-10.3,10.3-10.3c5.7,0,10.3,4.6,10.3,10.3
				C41.8,96.6,37.1,101.2,31.5,101.2z M31.5,82.5c-4.6,0-8.4,3.8-8.4,8.4c0,4.6,3.8,8.4,8.4,8.4s8.4-3.8,8.4-8.4
				C39.9,86.3,36.1,82.5,31.5,82.5z"/>
		</g>
		<g>
			<circle fill="#FFFFFF" cx="31.5" cy="90.9" r="3.6"/>
			<path fill="#E30011" d="M31.5,95.4c-2.5,0-4.5-2-4.5-4.5c0-2.5,2-4.5,4.5-4.5s4.5,2,4.5,4.5C36,93.4,34,95.4,31.5,95.4z
				 M31.5,88.3c-1.4,0-2.6,1.2-2.6,2.6c0,1.4,1.2,2.6,2.6,2.6c1.4,0,2.6-1.2,2.6-2.6C34.1,89.4,32.9,88.3,31.5,88.3z"/>
		</g>
		<g>
			<path fill="#FFFFFF" d="M80.2,90.9c0-2,1.6-3.6,3.6-3.6c0.8,0,1.5,0.2,2,0.6c0.9,0.6,1.5,1.7,1.5,2.9c0,2-1.6,3.6-3.6,3.6
				S80.2,92.9,80.2,90.9z"/>
			<path fill="#E30011" d="M83.8,95.4c-2.5,0-4.5-2-4.5-4.5c0-2.5,2-4.5,4.5-4.5c0.9,0,1.8,0.3,2.6,0.8c1.2,0.8,1.9,2.2,1.9,3.7
				C88.3,93.4,86.2,95.4,83.8,95.4z M83.8,88.3c-1.4,0-2.6,1.2-2.6,2.6c0,1.4,1.2,2.6,2.6,2.6c1.4,0,2.6-1.2,2.6-2.6
				c0-0.9-0.4-1.7-1.1-2.1C84.8,88.4,84.3,88.3,83.8,88.3z"/>
		</g>
		<g>
			<circle fill="#FFFFFF" cx="91.4" cy="51.7" r="3.6"/>
			<path fill="#E30011" d="M91.4,56.2c-2.5,0-4.5-2-4.5-4.5c0-2.5,2-4.5,4.5-4.5c2.5,0,4.5,2,4.5,4.5C95.9,54.1,93.9,56.2,91.4,56.2
				z M91.4,49c-1.4,0-2.6,1.2-2.6,2.6c0,1.4,1.2,2.6,2.6,2.6c1.4,0,2.6-1.2,2.6-2.6C94.1,50.2,92.9,49,91.4,49z"/>
		</g>
		<g>
			<circle fill="#FFFFFF" cx="266.7" cy="128.7" r="11.3"/>
			<path fill="#696A6C" d="M266.7,141.1c-6.8,0-12.4-5.6-12.4-12.4c0-6.8,5.6-12.4,12.4-12.4c6.8,0,12.4,5.6,12.4,12.4
				C279.1,135.6,273.5,141.1,266.7,141.1z M266.7,118.6c-5.6,0-10.1,4.5-10.1,10.1c0,5.6,4.5,10.1,10.1,10.1
				c5.6,0,10.1-4.5,10.1-10.1C276.8,123.1,272.3,118.6,266.7,118.6z"/>
		</g>
		<g>
			<polygon fill="#FFFFFF" points="169.5,143 169.5,107.8 234.6,107.8 234.6,35.6 286,35.6 286,143 			"/>
			<path fill="#E30011" d="M287.7,144.7H167.8v-38.6h65.1V33.9h54.8V144.7z M171.2,141.3h113.1v-104h-48v72.2h-65.1V141.3z"/>
		</g>
		<path fill="#E30011" d="M248.6,136.7h-35.7v-7.3h-11.2c-1.5,0-2.3-1.7-2.3-4.9c0-3.3,0.8-4.9,2.3-4.9h11.2v-7.3h35.7V136.7z
			 M215.6,134H246v-19.2h-30.3v7.3h-13.3c-0.3,1-0.3,3.5,0,4.5h13.3V134z"/>
		<path fill="#E30011" d="M266.7,126.2c-2,0-3.6-1.6-3.6-3.6c0-2,1.6-3.6,3.6-3.6s3.6,1.6,3.6,3.6
			C270.2,124.6,268.6,126.2,266.7,126.2z M266.7,121c-0.9,0-1.7,0.8-1.7,1.7c0,0.9,0.8,1.7,1.7,1.7s1.7-0.8,1.7-1.7
			C268.4,121.7,267.6,121,266.7,121z"/>
		<path fill="#E30011" d="M181.8,136.3c-0.2,0-0.3,0-0.5,0l0,0c-2.2-0.3-3.7-2.3-3.4-4.4c0.1-1.1,0.7-2,1.5-2.6
			c0.8-0.6,1.9-0.9,2.9-0.8c1.1,0.1,2,0.7,2.6,1.5c0.6,0.8,0.9,1.9,0.8,2.9C185.5,134.8,183.8,136.3,181.8,136.3z M181.6,134.4
			c1.1,0.1,2.2-0.7,2.3-1.8c0.1-0.6-0.1-1.1-0.4-1.5c-0.3-0.4-0.8-0.7-1.4-0.8c-0.5-0.1-1.1,0.1-1.5,0.4s-0.7,0.8-0.8,1.4
			C179.6,133.2,180.4,134.2,181.6,134.4L181.6,134.4z"/>
		<path fill="#E30011" d="M231.3,132.8c-2.3,0-4.3-2.6-4.7-6.2c-0.2-1.7,0-3.3,0.5-4.6c0.6-1.5,1.7-2.5,2.9-2.7l0,0
			c1.3-0.2,2.5,0.5,3.5,1.9c0.8,1.1,1.4,2.7,1.6,4.3c0.5,3.8-1,7-3.4,7.3C231.6,132.8,231.4,132.8,231.3,132.8z M230.4,121.9
			C230.3,121.9,230.3,121.9,230.4,121.9L230.4,121.9c-0.3,0-0.7,0.5-0.9,1.1c-0.4,0.9-0.5,2.1-0.3,3.3c0.3,2.5,1.6,4.1,2.3,4
			c0.6-0.1,1.5-1.8,1.2-4.4c-0.2-1.2-0.6-2.4-1.1-3.2C231.1,122.2,230.7,121.9,230.4,121.9z"/>
		<path fill="#E30011" d="M270.8,133.8c-1.7,0-3.1-1.4-3.1-3.1c0-1.7,1.4-3.1,3.1-3.1c1.7,0,3.1,1.4,3.1,3.1
			C274,132.4,272.5,133.8,270.8,133.8z M270.8,129.4c-0.7,0-1.3,0.6-1.3,1.3c0,0.7,0.6,1.3,1.3,1.3s1.3-0.6,1.3-1.3
			C272.1,130,271.5,129.4,270.8,129.4z"/>
		<circle fill="#E30011" cx="205.2" cy="124.4" r="1.4"/>
		<g>
			<path fill="#FFFFFF" d="M188.3,121c3.6,16.9,9.2,15.5,9.2,15.5l-5.1-16.7L188.3,121z"/>
			<path fill="#E30011" d="M197.3,137.7c-0.6,0-1.5-0.1-2.5-0.8c-3.2-2-5.7-7.3-7.5-15.6l-0.2-1l6.3-1.8l5.7,19l-1.2,0.3
				C197.8,137.7,197.6,137.7,197.3,137.7z M189.7,121.8c2.1,9.2,4.7,12.2,6.3,13.2l-4.2-13.8L189.7,121.8z"/>
		</g>
		<path fill="#E30011" d="M187.8,114.3l2.2,5.4l3-1C193,118.7,191.8,112.1,187.8,114.3z"/>
		<g>
			<path fill="#FFFFFF" d="M244.3,123.1c0-3-3.9-5.3-8.7-5.3c-4.8,0-4.8,10.7,0,10.7C240.4,128.5,244.3,126.1,244.3,123.1z"/>
			<path fill="#E30011" d="M235.6,129.7c-2.8,0-4.8-2.7-4.8-6.5c0-1.6,0.4-3.1,1.1-4.3c0.9-1.5,2.2-2.3,3.7-2.3
				c5.5,0,9.9,2.9,9.9,6.5C245.5,126.8,241.2,129.7,235.6,129.7z M235.6,119c-0.3,0-1,0-1.7,1.1c-0.5,0.8-0.7,1.9-0.7,3.1
				c0,1.7,0.6,4.1,2.4,4.1c4.1,0,7.5-1.9,7.5-4.1C243.1,120.9,239.7,119,235.6,119z"/>
		</g>
		<path fill="#E30011" d="M237.7,129.1c-0.1-0.1-2.4-1.4-2.9-3.8c-0.3-1.5,0.1-3.1,1.3-4.7l1.5,1.1c-0.8,1.1-1.1,2.2-0.9,3.1
			c0.3,1.6,2,2.5,2,2.5L237.7,129.1z"/>
		<path fill="#E30011" d="M240.2,128.7c-1.3-0.9-3.2-3.4-1.1-6.7l1.6,1c-1.6,2.5,0.2,3.9,0.6,4.2L240.2,128.7z"/>
		<polygon fill="#E30011" points="232.7,34.3 227.7,45.5 227.7,97.3 175.1,97.3 168.1,105.9 232.7,105.9 		"/>
		<g>
			<g>
				<rect x="245.5" y="78.2" fill="#FFFFFF" width="27.8" height="25.3"/>
				<path fill="#E30011" d="M275,105.2h-31.2V76.5H275V105.2z M247.2,101.8h24.4V79.9h-24.4V101.8z"/>
			</g>
			<g>
				<g>
					<circle fill="#FFFFFF" cx="264.8" cy="86" r="3.4"/>
					<path fill="#E30011" d="M264.8,90.3c-2.4,0-4.3-1.9-4.3-4.3c0-2.4,1.9-4.3,4.3-4.3s4.3,1.9,4.3,4.3
						C269.1,88.4,267.2,90.3,264.8,90.3z M264.8,83.6c-1.3,0-2.4,1.1-2.4,2.4c0,1.3,1.1,2.4,2.4,2.4s2.4-1.1,2.4-2.4
						C267.2,84.7,266.1,83.6,264.8,83.6z"/>
				</g>
				<g>
					<circle fill="#FFFFFF" cx="254.1" cy="86" r="3.4"/>
					<path fill="#E30011" d="M254.1,90.3c-2.4,0-4.3-1.9-4.3-4.3c0-2.4,1.9-4.3,4.3-4.3c2.4,0,4.3,1.9,4.3,4.3
						C258.4,88.4,256.5,90.3,254.1,90.3z M254.1,83.6c-1.3,0-2.4,1.1-2.4,2.4c0,1.3,1.1,2.4,2.4,2.4c1.3,0,2.4-1.1,2.4-2.4
						C256.6,84.7,255.5,83.6,254.1,83.6z"/>
				</g>
				<g>
					<circle fill="#FFFFFF" cx="264.8" cy="96.5" r="3.4"/>
					<path fill="#E30011" d="M264.8,100.8c-2.4,0-4.3-1.9-4.3-4.3c0-2.4,1.9-4.3,4.3-4.3s4.3,1.9,4.3,4.3
						C269.1,98.9,267.2,100.8,264.8,100.8z M264.8,94.1c-1.3,0-2.4,1.1-2.4,2.4c0,1.3,1.1,2.4,2.4,2.4s2.4-1.1,2.4-2.4
						C267.2,95.1,266.1,94.1,264.8,94.1z"/>
				</g>
				<g>
					<circle fill="#FFFFFF" cx="254.1" cy="96.5" r="3.4"/>
					<path fill="#E30011" d="M254.1,100.8c-2.4,0-4.3-1.9-4.3-4.3c0-2.4,1.9-4.3,4.3-4.3c2.4,0,4.3,1.9,4.3,4.3
						C258.4,98.9,256.5,100.8,254.1,100.8z M254.1,94.1c-1.3,0-2.4,1.1-2.4,2.4c0,1.3,1.1,2.4,2.4,2.4c1.3,0,2.4-1.1,2.4-2.4
						C256.6,95.1,255.5,94.1,254.1,94.1z"/>
				</g>
			</g>
		</g>
		<g>
			<g>
				<rect x="245.5" y="46" fill="#FFFFFF" width="27.8" height="32.2"/>
				<path fill="#E30011" d="M275,79.9h-31.2V44.3H275V79.9z M247.2,76.5h24.4V47.7h-24.4V76.5z"/>
			</g>
			<g>
				<path fill="#FFFFFF" d="M269,46h1.1c1.8,0,3.2,1.5,3.2,3.2V75c0,1.8-1.5,3.2-3.2,3.2H269c-1.8,0-3.2-1.5-3.2-3.2V49.2
					C265.8,47.4,267.2,46,269,46z"/>
				<path fill="#E30011" d="M270.1,79.2H269c-2.3,0-4.2-1.9-4.2-4.2V49.2c0-2.3,1.9-4.2,4.2-4.2h1.1c2.3,0,4.2,1.9,4.2,4.2V75
					C274.3,77.3,272.4,79.2,270.1,79.2z M269,46.9c-1.3,0-2.3,1-2.3,2.3V75c0,1.3,1,2.3,2.3,2.3h1.1c1.3,0,2.3-1,2.3-2.3V49.2
					c0-1.3-1-2.3-2.3-2.3H269z"/>
			</g>
			<g>
				<path fill="#FFFFFF" d="M256.1,59.3c-0.9,0-1.6,1.3-1.6,2.8c0,1.6,0.7,2.8,1.6,2.8h11.5c0.9,0,1.6-1.3,1.6-2.8
					c0-1.6-0.7-2.8-1.6-2.8H256.1z"/>
				<path fill="#E30011" d="M267.6,65.9h-11.5c-1.4,0-2.5-1.6-2.5-3.8c0-2.1,1.1-3.8,2.5-3.8h11.5c1.4,0,2.5,1.6,2.5,3.8
					C270.1,64.2,269,65.9,267.6,65.9z M256.1,60.2c-0.2,0.1-0.6,0.7-0.6,1.9c0,1.2,0.5,1.8,0.6,1.9l11.5,0c0.2,0,0.6-0.7,0.6-1.9
					c0-1.2-0.5-1.8-0.6-1.9L256.1,60.2z"/>
			</g>
		</g>
		<g>
			<path fill="#FFFFFF" d="M263.4,68.6c0.8,0.8,6.1-3.2,6.9-4c0.8-0.8,0.8-2.1,0-2.9c-0.8-0.8-2.1-0.8-2.9,0
				C266.6,62.5,262.6,67.8,263.4,68.6z"/>
			<path fill="#E30011" d="M263.6,69.6c-0.4,0-0.7-0.1-0.9-0.3c-0.8-0.8-0.4-2.1,1.3-4.6c1-1.5,2.2-3.1,2.7-3.6
				c1.1-1.1,3.1-1.1,4.2,0c1.2,1.2,1.2,3,0,4.2C270.9,65.3,266,69.6,263.6,69.6z M268.8,62.1c-0.3,0-0.6,0.1-0.8,0.3
				c-0.7,0.7-2.8,3.5-3.6,5.1c1.5-0.8,4.4-2.9,5.1-3.6c0.4-0.4,0.4-1.1,0-1.5C269.4,62.2,269.1,62.1,268.8,62.1z"/>
		</g>
	</g>
</g>
<g id="Слой_4" display="none">
	
		<rect x="-46.6" y="-11.9" display="inline" fill="none" stroke="#E84918" stroke-width="0.2508" stroke-miterlimit="10" width="341" height="165.7"/>
</g>
</svg>
