<?xml version="1.0" encoding="utf-8"?>
<!-- Generator: Adobe Illustrator 19.1.0, SVG Export Plug-In . SVG Version: 6.00 Build 0)  -->
<svg version="1.1" baseProfile="tiny" xmlns="http://www.w3.org/2000/svg" xmlns:xlink="http://www.w3.org/1999/xlink" x="0px"
	 y="0px" viewBox="0 0 312.3 289.1" xml:space="preserve">
<g id="houses" display="none">
	<path display="inline" fill="#696A6C" d="M546.6,460.8h-735.3V-11.7h735.3V460.8z M-185.3,457.4h728.5V-8.3h-728.5V457.4z"/>
	<polygon display="inline" fill="#696A6C" points="333.7,297.8 -188.7,297.8 -178.7,286.9 -178.7,6.5 -186.9,-9 -183.8,-10.2 
		-175.3,5.8 -175.3,287.8 -181,294.4 333.7,294.4 	"/>
	<path display="inline" fill="#696A6C" d="M3.5,287.3H0.1V153.7l-6.8-1l-12.2,10.2h11.7v3.4h-12.5c-1.3,0-2.5-0.8-2.9-2
		c-0.5-1.2-0.1-2.6,0.9-3.4l14-11.7l11.2,1.7V287.3z"/>
	<polygon display="inline" fill="#696A6C" points="281.5,296 276.5,295.4 275.9,289 1.8,289 1.8,285.6 279.9,285.6 	"/>
	
		<rect x="-3.5" y="286" transform="matrix(0.7717 0.636 -0.636 0.7717 185.1191 67.7576)" display="inline" fill="#696A6C" width="3.4" height="11.3"/>
	<rect x="0.1" y="4.9" display="inline" fill="#696A6C" width="321" height="3.4"/>
	<path display="inline" fill="#696A6C" d="M296.3,286.1l0.3-0.5l1,0H320v-60.8l13.4,3.2l-0.7,3.3l-9.4-2.4v60h-23.5 M296.8,290.1"/>
	<path display="inline" fill="#696A6C" d="M-6.7,459.4c-0.1,0-0.3,0-0.4-0.1c-1.7-0.4-1.9-1.9-1.8-7.8v-463h3.4c0,0.3,0,0.6,0,0.9
		c0.4,0.2,0.7,0.4,0.9,0.8L3.5,4v129.3l-9-1.4v319.7c0,0.5,0,0.9,0,1.3l5.6-8.2V296.1h3.4v149.6l-8.1,12
		C-4.9,458.2-5.5,459.4-6.7,459.4z M-5.5,128.5l5.6,0.9V4.9l-5.6-9.5V128.5z"/>
	<g display="inline">
		<path fill="#FFFFFF" d="M318.3,225.9l-13.2,8.9c-0.7,0.5-0.4,1.7,0.5,1.7l13,4l14.5-10.8c0.7-0.7,0.2-1.9-0.8-1.9L318.3,225.9z"/>
		<path fill="#696A6C" d="M319.2,242.1c-0.2,0.1-0.4,0.2-0.6,0.1l-13.3-4.1c-1-0.1-1.9-0.8-2.2-1.8c-0.3-1.1,0.1-2.3,1-2.9l12.3-8.3
			c0.9-0.6,2-0.9,3.1-0.7l12.8,1.7c1.1,0.1,2,0.7,2.5,1.7c0.5,1,0.2,2.3-0.5,3.1l-0.2,0.2L319.2,242.1z M307.5,235.3l10.4,3.2
			c0.2,0.1,0.5,0,0.6-0.1l12.3-9.1l-12.1-1.6L307.5,235.3z"/>
	</g>
	<g display="inline">
		<path fill="#FFFFFF" d="M304.7,273.4l8,11.1l-7.8,9.8c-0.3,0.3-0.7,0.2-0.9-0.1l-7.5-9.6l7.7-11.2
			C304.3,273.1,304.6,273.2,304.7,273.4z"/>
		<path fill="#696A6C" d="M303,297.4c0.8,0,2,0.4,2.5-0.2l9.3-11.7c0.3-0.4,0.4-1,0.1-1.5l-8.3-11.5c-0.4-0.6-1-1-1.8-1.1
			c-0.8-0.1-1.6,0.2-2.2,0.7l-0.2,0.2l-8.2,12C294.1,284.3,302.9,297.4,303,297.4z M310.1,284.3l-5.9,8.5l-5.3-8l5.5-8.3
			L310.1,284.3z"/>
	</g>
</g>
<g id="Слой_3" display="none">
	<g display="inline">
		<g>
			<g>
				<circle fill="#FFFFFF" cx="262.9" cy="69.2" r="47.7"/>
				<path fill="#696A6C" d="M262.9,118.6c-27.2,0-49.4-22.2-49.4-49.4s22.2-49.4,49.4-49.4s49.4,22.2,49.4,49.4
					S290.2,118.6,262.9,118.6z M262.9,23.2c-25.4,0-46,20.6-46,46c0,25.4,20.6,46,46,46s46-20.6,46-46
					C308.9,43.9,288.3,23.2,262.9,23.2z"/>
			</g>
		</g>
		<circle fill="#696A6C" cx="252.1" cy="84.1" r="1.9"/>
		<circle fill="#696A6C" cx="257" cy="72.7" r="1.9"/>
		<circle fill="#696A6C" cx="268" cy="82.1" r="1.9"/>
		<circle fill="#696A6C" cx="258.9" cy="94.3" r="1.9"/>
		<circle fill="#696A6C" cx="234.2" cy="97.6" r="1.9"/>
		<circle fill="#696A6C" cx="239.9" cy="89.4" r="1.9"/>
		<circle fill="#696A6C" cx="230" cy="84.1" r="1.9"/>
		<circle fill="#696A6C" cx="268" cy="48.2" r="1.9"/>
		<circle fill="#696A6C" cx="272.6" cy="64.9" r="1.9"/>
		<circle fill="#696A6C" cx="242.4" cy="72.9" r="1.9"/>
		<circle fill="#696A6C" cx="254" cy="46.2" r="1.9"/>
		<circle fill="#696A6C" cx="224.2" cy="51.8" r="1.9"/>
		<circle fill="#696A6C" cx="242.4" cy="53.8" r="1.9"/>
		<circle fill="#696A6C" cx="230" cy="64.5" r="1.9"/>
		<circle fill="#696A6C" cx="224.2" cy="72.7" r="1.9"/>
		<circle fill="#696A6C" cx="248.7" cy="103" r="1.9"/>
		<circle fill="#696A6C" cx="268" cy="103" r="1.9"/>
		<circle fill="#696A6C" cx="259.5" cy="109.8" r="1.9"/>
		<circle fill="#696A6C" cx="284.5" cy="82.1" r="1.9"/>
		<circle fill="#696A6C" cx="284.5" cy="94.3" r="1.9"/>
		<circle fill="#696A6C" cx="282.6" cy="104.9" r="1.9"/>
		<circle fill="#696A6C" cx="295" cy="89.4" r="1.9"/>
		<circle fill="#696A6C" cx="295" cy="63" r="1.9"/>
		<circle fill="#696A6C" cx="293" cy="48.2" r="1.9"/>
		<circle fill="#696A6C" cx="279.6" cy="33.8" r="1.9"/>
		<circle fill="#696A6C" cx="266.2" cy="35.7" r="1.9"/>
		<circle fill="#696A6C" cx="254" cy="33.8" r="1.9"/>
		<circle fill="#696A6C" cx="241.8" cy="37.6" r="1.9"/>
		<circle fill="#696A6C" cx="299.3" cy="78.4" r="1.9"/>
		<circle fill="#696A6C" cx="261.4" cy="57.6" r="1.9"/>
		<circle fill="#696A6C" cx="281.5" cy="51.8" r="1.9"/>
		<circle fill="#696A6C" cx="284.5" cy="69.2" r="1.9"/>
		<g>
			<g>
				<path fill="#FFFFFF" d="M180.7,280.7h-42.2c-4.3,0-7.9-3.5-7.9-7.9v-39.7c0-4.3,3.5-7.9,7.9-7.9h42.2c4.3,0,7.9,3.5,7.9,7.9
					v39.7C188.6,277.2,185,280.7,180.7,280.7z"/>
				<path fill="#696A6C" d="M180.7,282.4h-42.2c-5.3,0-9.6-4.3-9.6-9.6v-39.7c0-5.3,4.3-9.6,9.6-9.6h42.2c5.3,0,9.6,4.3,9.6,9.6
					v39.7C190.3,278.1,186,282.4,180.7,282.4z M138.5,227c-3.4,0-6.2,2.8-6.2,6.2v39.7c0,3.4,2.8,6.2,6.2,6.2h42.2
					c3.4,0,6.2-2.8,6.2-6.2v-39.7c0-3.4-2.8-6.2-6.2-6.2H138.5z"/>
			</g>
			<g>
				<path fill="#FFFFFF" d="M122.8,280.7H80.6c-4.3,0-7.9-3.5-7.9-7.9v-39.7c0-4.3,3.5-7.9,7.9-7.9h42.2c4.3,0,7.9,3.5,7.9,7.9v39.7
					C130.6,277.2,127.1,280.7,122.8,280.7z"/>
				<path fill="#696A6C" d="M122.8,282.4H80.6c-5.3,0-9.6-4.3-9.6-9.6v-39.7c0-5.3,4.3-9.6,9.6-9.6h42.2c5.3,0,9.6,4.3,9.6,9.6v39.7
					C132.3,278.1,128,282.4,122.8,282.4z M80.6,227c-3.4,0-6.2,2.8-6.2,6.2v39.7c0,3.4,2.8,6.2,6.2,6.2h42.2c3.4,0,6.2-2.8,6.2-6.2
					v-39.7c0-3.4-2.8-6.2-6.2-6.2H80.6z"/>
			</g>
			<g>
				<path fill="#FFFFFF" d="M64.8,280.7H22.6c-4.3,0-7.9-3.5-7.9-7.9v-83.1c0-4.3,3.5-7.9,7.9-7.9h42.2c4.3,0,7.9,3.5,7.9,7.9v83.1
					C72.7,277.2,69.2,280.7,64.8,280.7z"/>
				<path fill="#696A6C" d="M64.8,282.4H22.6c-5.3,0-9.6-4.3-9.6-9.6v-83.1c0-5.3,4.3-9.6,9.6-9.6h42.2c5.3,0,9.6,4.3,9.6,9.6v83.1
					C74.4,278.1,70.1,282.4,64.8,282.4z M22.6,183.6c-3.4,0-6.2,2.8-6.2,6.2v83.1c0,3.4,2.8,6.2,6.2,6.2h42.2c3.4,0,6.2-2.8,6.2-6.2
					v-83.1c0-3.4-2.8-6.2-6.2-6.2H22.6z"/>
			</g>
			<g>
				<path fill="#FFFFFF" d="M8.4,182.2c3.5,0,6.3,2.8,6.3,6.3v86.2h171.2c3.5,0,6.3,2.8,6.3,6.3c0,3.5-2.8,6.3-6.3,6.3H8.4
					c-2.5,0-6.3-1-6.3-6.3v-92.5C2.1,185,4.9,182.2,8.4,182.2z"/>
				<path fill="#696A6C" d="M185.9,289.1H8.4c-3.9,0-8-2.1-8-8v-92.6c0-4.4,3.6-8,8-8c4.4,0,8,3.6,8,8v84.5h169.5c4.4,0,8,3.6,8,8
					S190.3,289.1,185.9,289.1z M8.4,183.9c-2.5,0-4.6,2.1-4.6,4.6v92.6c0,3.1,1.6,4.6,4.6,4.6h177.5c2.5,0,4.6-2.1,4.6-4.6
					s-2.1-4.6-4.6-4.6H13.1v-87.9C13.1,186,11,183.9,8.4,183.9z"/>
			</g>
		</g>
		<path fill="#696A6C" d="M168.7,212.3H81.2v-68.5h87.4V212.3z M84.6,208.9h80.6v-61.8H84.6V208.9z"/>
		<path fill="#696A6C" d="M20.4,80.1H6.7c-1.6,0-2.9-1.3-2.9-2.9V76c0-1.6,1.3-2.9,2.9-2.9h13.7V75H6.7c-0.6,0-1,0.5-1,1v1.2
			c0,0.6,0.5,1,1,1h13.7V80.1z"/>
		<path fill="#696A6C" d="M18.5,75H6.7C5,75,3.7,73.7,3.7,72v-1.2C3.7,69.3,5,68,6.7,68h13.7v1.9H6.7c-0.6,0-1,0.5-1,1V72
			c0,0.6,0.5,1,1,1h11.8V75z"/>
		<path fill="#696A6C" d="M20.4,69.8H6.7c-1.6,0-2.9-1.3-2.9-2.9v-1.2c0-1.6,1.3-2.9,2.9-2.9h13.7v1.9H6.7c-0.6,0-1,0.5-1,1v1.2
			c0,0.6,0.5,1,1,1h13.7V69.8z"/>
		<path fill="#696A6C" d="M20.4,64.7H6.7c-1.6,0-2.9-1.3-2.9-2.9v-1.2c0-1.6,1.3-2.9,2.9-2.9h13.7v1.9H6.7c-0.6,0-1,0.5-1,1v1.2
			c0,0.6,0.5,1,1,1h13.7V64.7z"/>
		<path fill="#696A6C" d="M20.4,20.6H6.7c-1.6,0-2.9-1.3-2.9-2.9v-0.5c0-1.6,1.3-2.9,2.9-2.9h13.7v1.9H6.7c-0.6,0-1,0.5-1,1v0.5
			c0,0.6,0.5,1,1,1h13.7V20.6z"/>
		<g>
			<circle fill="#FFFFFF" cx="127.4" cy="180.7" r="14.3"/>
			<path fill="#696A6C" d="M127.4,195.9c-8.4,0-15.2-6.8-15.2-15.2c0-8.4,6.8-15.2,15.2-15.2s15.2,6.8,15.2,15.2
				C142.6,189.1,135.8,195.9,127.4,195.9z M127.4,167.4c-7.3,0-13.3,6-13.3,13.3c0,7.3,6,13.3,13.3,13.3c7.3,0,13.3-6,13.3-13.3
				C140.7,173.4,134.8,167.4,127.4,167.4z"/>
		</g>
		<g>
			<circle fill="#FFFFFF" cx="132.1" cy="181.3" r="6"/>
			<path fill="#696A6C" d="M132.1,188.2c-3.8,0-6.9-3.1-6.9-6.9c0-3.8,3.1-6.9,6.9-6.9c3.8,0,6.9,3.1,6.9,6.9
				C139,185.1,135.9,188.2,132.1,188.2z M132.1,176.3c-2.8,0-5,2.3-5,5s2.3,5,5,5c2.8,0,5-2.3,5-5S134.9,176.3,132.1,176.3z"/>
		</g>
		<g>
			<circle fill="#FFFFFF" cx="119.7" cy="174.3" r="2.8"/>
			<path fill="#696A6C" d="M119.7,178c-2,0-3.7-1.7-3.7-3.7c0-2,1.7-3.7,3.7-3.7c2,0,3.7,1.7,3.7,3.7
				C123.4,176.3,121.7,178,119.7,178z M119.7,172.5c-1,0-1.8,0.8-1.8,1.8s0.8,1.8,1.8,1.8c1,0,1.8-0.8,1.8-1.8
				S120.7,172.5,119.7,172.5z"/>
		</g>
		<circle fill="#696A6C" cx="128.8" cy="171.5" r="2.8"/>
		<g>
			<circle fill="#FFFFFF" cx="122.5" cy="178.6" r="4.1"/>
			<path fill="#696A6C" d="M122.5,183.6c-2.8,0-5.1-2.3-5.1-5.1s2.3-5.1,5.1-5.1s5.1,2.3,5.1,5.1S125.3,183.6,122.5,183.6z
				 M122.5,175.4c-1.8,0-3.2,1.4-3.2,3.2c0,1.8,1.4,3.2,3.2,3.2s3.2-1.4,3.2-3.2C125.6,176.8,124.2,175.4,122.5,175.4z"/>
		</g>
		<circle fill="#525254" cx="173.7" cy="263.6" r="1.9"/>
		<g>
			<circle fill="#FFFFFF" cx="124.7" cy="187.5" r="5"/>
			<path fill="#696A6C" d="M124.7,193.4c-3.3,0-6-2.7-6-6c0-3.3,2.7-6,6-6c3.3,0,6,2.7,6,6C130.7,190.8,128,193.4,124.7,193.4z
				 M124.7,183.4c-2.2,0-4.1,1.8-4.1,4.1s1.8,4.1,4.1,4.1c2.2,0,4.1-1.8,4.1-4.1S127,183.4,124.7,183.4z"/>
		</g>
		<circle fill="#696A6C" cx="118.3" cy="182.7" r="2.8"/>
		<circle fill="#696A6C" cx="132.2" cy="180" r="0.7"/>
		<circle fill="#696A6C" cx="124" cy="190.1" r="0.7"/>
		<circle fill="#696A6C" cx="122.5" cy="177" r="0.7"/>
		<path fill="#696A6C" d="M132,183.7c-0.9,0-1.9-0.4-2.6-1.1c-0.6-0.7-0.9-1.6-0.9-2.5c0.1-0.9,0.5-1.7,1.1-2.4l1.3,1.4
			c-0.3,0.3-0.5,0.6-0.5,1.1c0,0.4,0.1,0.8,0.4,1.1c0.6,0.6,1.5,0.7,2.2,0.1l1.3,1.4C133.6,183.5,132.8,183.7,132,183.7z"/>
		<g>
			<path fill="#FFFFFF" d="M16.5,235.7l-9.2,1.1c0,0-3.2,14.1,3.8,26.8c8.9,16.4,17.1,15.8,17.1,15.8l9-4.7c0,0-0.5-11.9-7.4-24.6
				C23.1,238.1,16.5,235.7,16.5,235.7z"/>
			<path fill="#696A6C" d="M28.1,281.1c-1.4,0-9.8-0.7-18.5-16.7c-7.1-13.2-4.1-27.4-3.9-28l0.3-1.2l10.8-1.3l0.4,0.1
				c0.3,0.1,7.3,2.8,14.1,15.3c7,12.9,7.6,24.8,7.7,25.3l0,1.1l-10.3,5.3l-0.3,0C28.2,281.1,28.2,281.1,28.1,281.1z M8.7,238.3
				c-0.5,3.5-1.6,14.5,3.8,24.5c7.3,13.4,13.8,14.8,15.2,14.9l7.6-4c-0.3-3.1-1.7-12.7-7.2-22.8c-5.4-9.9-10.6-12.9-12-13.6
				L8.7,238.3z"/>
		</g>
		<g>
			<path fill="#FFFFFF" d="M185,268.1c0.9-0.7,1.7-1.4,2.3-2c1.8-1.9,1.3-4.9-0.9-6.2c-4.6-2.7-14.4-7.3-24.6-5.1
				c-14.3,3.1-21.3,11.5-23.7,15.1c-0.5,0.8-0.2,1.9,0.7,2.3l7.3,3.2c0,0,8.8,4.1,19.2,1.9C178.4,274.3,180.7,271.4,185,268.1z"/>
			<path fill="#696A6C" d="M158.8,279.5c-7.6,0-13.2-2.6-13.5-2.7l-7.3-3.1c-0.9-0.4-1.5-1.1-1.8-2.1c-0.3-0.9-0.1-1.9,0.4-2.7
				c2.5-3.7,9.9-12.6,24.8-15.8c10.7-2.3,20.8,2.3,25.8,5.2c1.5,0.9,2.5,2.4,2.8,4.2c0.2,1.7-0.3,3.4-1.5,4.7
				c-0.7,0.7-1.5,1.4-2.5,2.2c-0.5,0.4-1,0.8-1.5,1.2c-3.6,2.9-7,5.6-19,8.2C163.2,279.3,160.9,279.5,158.8,279.5z M139.6,270.7
				l7.1,3.1c0.1,0.1,8.5,3.9,18.1,1.8c11.2-2.4,14.1-4.8,17.6-7.5c0.5-0.4,1-0.8,1.6-1.2l0,0c0.8-0.6,1.5-1.2,2.1-1.8
				c0.5-0.5,0.7-1.2,0.6-1.9c-0.1-0.7-0.5-1.4-1.1-1.7c-4.6-2.7-13.8-6.9-23.4-4.9C148.7,259.4,141.9,267.2,139.6,270.7z"/>
		</g>
		<path fill="#696A6C" d="M30.1,255.6l-5.5-1.4c0,0,2.3,15.5,11.1,21.1c8.4,5.4,16.1,4.6,16.1,4.6l6.8-0.5l-2.5-5.4
			c0,0-4.2-7.5-12.8-13.4C35.2,255.1,30.1,255.6,30.1,255.6z"/>
		<circle fill="#696A6C" cx="14.8" cy="246.7" r="1.9"/>
		<circle fill="#696A6C" cx="21.9" cy="249.6" r="1.9"/>
		<circle fill="#696A6C" cx="21.9" cy="262" r="1.9"/>
		<circle fill="#696A6C" cx="27.5" cy="273.4" r="1.9"/>
		<circle fill="#696A6C" cx="12.8" cy="255.9" r="1.9"/>
		<circle fill="#696A6C" cx="158.3" cy="261.7" r="1.9"/>
		<circle fill="#696A6C" cx="168.3" cy="270" r="1.9"/>
		<circle fill="#696A6C" cx="178.4" cy="261.7" r="1.9"/>
		<circle fill="#696A6C" cx="159.6" cy="273.4" r="1.9"/>
		<circle fill="#696A6C" cx="149.9" cy="268.1" r="1.9"/>
		<circle fill="#696A6C" cx="168.1" cy="261.7" r="1.9"/>
		<polygon fill="#696A6C" points="95.5,221.1 86.9,220.3 87,210.5 90.4,210.5 90.3,217.3 92.8,217.5 94.5,210.1 97.8,210.8 		"/>
		<polygon fill="#696A6C" points="162.6,221.2 154,220.4 151.9,210.8 155.2,210.1 156.8,217.2 159.3,217.4 159.3,210.4 162.7,210.5 
					"/>
		<polygon fill="#696A6C" points="154.4,145.3 151.1,144.6 153.4,134.3 162,135.1 161.9,145 158.5,144.9 158.6,138.2 156.1,137.9 		
			"/>
		<polygon fill="#696A6C" points="93.6,145.3 92.1,138.2 89.6,138 89.5,145 86.2,145 86.3,134.3 94.9,135 97,144.6 		"/>
		<path fill="#696A6C" d="M18.8,20.5c-2.1-2.6-0.9-4.9,0.1-5.7l1.2,1.4l-0.6-0.7l0.6,0.7c-0.2,0.2-1.3,1.4,0.1,3.1L18.8,20.5z"/>
		<path fill="#696A6C" d="M18.8,64c-2.1-2.6-0.9-4.9,0.1-5.7l1.2,1.4L19.5,59l0.6,0.7c-0.2,0.2-1.3,1.4,0.1,3.1L18.8,64z"/>
		<path fill="#696A6C" d="M18.8,69.1c-2.1-2.6-0.9-4.9,0.1-5.7l1.2,1.4l-0.6-0.7l0.6,0.7c-0.2,0.2-1.3,1.4,0.1,3.1L18.8,69.1z"/>
		<path fill="#696A6C" d="M18.8,79.4c-1.9-2.3-1.1-4.4-0.2-5.4c-1.8-2.5-0.6-4.6,0.3-5.5l1.3,1.4c-0.2,0.2-1.3,1.4,0.1,3.1l0.2,0.3
			v1.5l-0.3,0.3c-0.2,0.2-1.3,1.4,0.1,3.1L18.8,79.4z"/>
		<path fill="#696A6C" d="M16.8,38.9H5.4V23.7h11.4V38.9z M7.3,37H15V25.6H7.3V37z"/>
		<path fill="#696A6C" d="M11.1,34.7c-1.9,0-3.4-1.5-3.4-3.4c0-1.9,1.5-3.4,3.4-3.4s3.4,1.5,3.4,3.4C14.5,33.2,13,34.7,11.1,34.7z
			 M11.1,29.8c-0.8,0-1.5,0.7-1.5,1.5c0,0.8,0.7,1.5,1.5,1.5c0.8,0,1.5-0.7,1.5-1.5C12.7,30.5,12,29.8,11.1,29.8z"/>
		<rect x="21.8" y="6.4" fill="#696A6C" width="3.3" height="96.5"/>
		<path fill="#696A6C" d="M24,104.6H0V5h24.4l6.4,12.1v81.3L24,104.6z M3.3,101.3h19.5l4.8-4.4v-79l-5.1-9.6H3.3V101.3z"/>
		<g>
			<g>
				<path fill="#FFFFFF" d="M220.6,8.9h-42.2c-4.3,0-7.9,3.5-7.9,7.9v39.7c0,4.3,3.5,7.9,7.9,7.9h42.2c4.3,0,7.9-3.5,7.9-7.9V16.7
					C228.5,12.4,225,8.9,220.6,8.9z"/>
				<path fill="#696A6C" d="M220.6,66h-42.2c-5.3,0-9.6-4.3-9.6-9.6V16.7c0-5.3,4.3-9.6,9.6-9.6h42.2c5.3,0,9.6,4.3,9.6,9.6v39.7
					C230.2,61.7,225.9,66,220.6,66z M178.4,10.6c-3.4,0-6.2,2.8-6.2,6.2v39.7c0,3.4,2.8,6.2,6.2,6.2h42.2c3.4,0,6.2-2.8,6.2-6.2
					V16.7c0-3.4-2.8-6.2-6.2-6.2H178.4z"/>
			</g>
			<g>
				<path fill="#FFFFFF" d="M176.2,60.2c0,3.1-2.5,5.7-5.7,5.7s-5.7-2.5-5.7-5.7V13c0-3.1,2.5-5.7,5.7-5.7s5.7,2.5,5.7,5.7V60.2z"/>
				<path fill="#696A6C" d="M170.6,67.5c-4.1,0-7.4-3.3-7.4-7.4V13c0-4.1,3.3-7.4,7.4-7.4c4.1,0,7.4,3.3,7.4,7.4v47.2
					C177.9,64.2,174.6,67.5,170.6,67.5z M170.6,9.1c-2.2,0-4,1.8-4,4v47.2c0,2.2,1.8,4,4,4c2.2,0,4-1.8,4-4V13
					C174.5,10.8,172.7,9.1,170.6,9.1z"/>
			</g>
			<g>
				<path fill="#FFFFFF" d="M234.2,60.2c0,3.1-2.5,5.7-5.7,5.7c-3.1,0-5.7-2.5-5.7-5.7V13c0-3.1,2.5-5.7,5.7-5.7
					c3.1,0,5.7,2.5,5.7,5.7V60.2z"/>
				<path fill="#696A6C" d="M228.5,67.5c-4.1,0-7.4-3.3-7.4-7.4V13c0-4.1,3.3-7.4,7.4-7.4c4.1,0,7.4,3.3,7.4,7.4v47.2
					C235.8,64.2,232.5,67.5,228.5,67.5z M228.5,9.1c-2.2,0-4,1.8-4,4v47.2c0,2.2,1.8,4,4,4c2.2,0,4-1.8,4-4V13
					C232.5,10.8,230.7,9.1,228.5,9.1z"/>
			</g>
			<g>
				<path fill="#FFFFFF" d="M176.2,13c-3.1,0-5.7-2.5-5.7-5.7c0-3.1,2.5-5.7,5.7-5.7h47.2c3.1,0,5.7,2.5,5.7,5.7
					c0,3.1-2.5,5.7-5.7,5.7H176.2z"/>
				<path fill="#696A6C" d="M223.4,14.7h-47.2c-4.1,0-7.4-3.3-7.4-7.4s3.3-7.4,7.4-7.4h47.2c4.1,0,7.4,3.3,7.4,7.4
					S227.4,14.7,223.4,14.7z M176.2,3.4c-2.2,0-4,1.8-4,4s1.8,4,4,4h47.2c2.2,0,4-1.8,4-4s-1.8-4-4-4H176.2z"/>
			</g>
		</g>
		<rect x="176.2" y="17.7" fill="#696A6C" width="46.1" height="3.4"/>
		<path fill="#696A6C" d="M198.6,10.8l-7,0.7c0,0,3.8,15.2,13.9,19.7c13,5.8,24.9,1.7,24.9,1.7l-3.2-6.4c0,0-1-7.3-11.1-11.7
			C206.6,10.5,198.6,10.8,198.6,10.8z"/>
	</g>
</g>
<g id="Слой_3__x28_копия_x29_">
	<circle fill="#FFFFFF" cx="262.9" cy="69.2" r="47.7"/>
	<path fill="#E30011" d="M262.9,118.6c-27.2,0-49.4-22.2-49.4-49.4s22.2-49.4,49.4-49.4s49.4,22.2,49.4,49.4
		S290.2,118.6,262.9,118.6z M262.9,23.2c-25.4,0-46,20.6-46,46c0,25.4,20.6,46,46,46s46-20.6,46-46
		C308.9,43.9,288.3,23.2,262.9,23.2z"/>
	<circle fill="#E30011" cx="252.1" cy="84.1" r="1.9"/>
	<circle fill="#E30011" cx="257" cy="72.7" r="1.9"/>
	<circle fill="#E30011" cx="268" cy="82.1" r="1.9"/>
	<circle fill="#E30011" cx="258.9" cy="94.3" r="1.9"/>
	<circle fill="#E30011" cx="234.2" cy="97.6" r="1.9"/>
	<circle fill="#E30011" cx="239.9" cy="89.4" r="1.9"/>
	<circle fill="#E30011" cx="230" cy="84.1" r="1.9"/>
	<circle fill="#E30011" cx="268" cy="48.2" r="1.9"/>
	<circle fill="#E30011" cx="272.6" cy="64.9" r="1.9"/>
	<circle fill="#E30011" cx="242.4" cy="72.9" r="1.9"/>
	<circle fill="#E30011" cx="254" cy="46.2" r="1.9"/>
	<circle fill="#E30011" cx="224.2" cy="51.8" r="1.9"/>
	<circle fill="#E30011" cx="242.4" cy="53.8" r="1.9"/>
	<circle fill="#E30011" cx="230" cy="64.5" r="1.9"/>
	<circle fill="#E30011" cx="224.2" cy="72.7" r="1.9"/>
	<circle fill="#E30011" cx="248.7" cy="103" r="1.9"/>
	<circle fill="#E30011" cx="268" cy="103" r="1.9"/>
	<circle fill="#E30011" cx="259.5" cy="109.8" r="1.9"/>
	<circle fill="#E30011" cx="284.5" cy="82.1" r="1.9"/>
	<circle fill="#E30011" cx="284.5" cy="94.3" r="1.9"/>
	<circle fill="#E30011" cx="282.6" cy="104.9" r="1.9"/>
	<circle fill="#E30011" cx="295" cy="89.4" r="1.9"/>
	<circle fill="#E30011" cx="295" cy="63" r="1.9"/>
	<circle fill="#E30011" cx="293" cy="48.2" r="1.9"/>
	<circle fill="#E30011" cx="279.6" cy="33.8" r="1.9"/>
	<circle fill="#E30011" cx="266.2" cy="35.7" r="1.9"/>
	<circle fill="#E30011" cx="254" cy="33.8" r="1.9"/>
	<circle fill="#E30011" cx="241.8" cy="37.6" r="1.9"/>
	<circle fill="#E30011" cx="299.3" cy="78.4" r="1.9"/>
	<circle fill="#E30011" cx="261.4" cy="57.6" r="1.9"/>
	<circle fill="#E30011" cx="281.5" cy="51.8" r="1.9"/>
	<circle fill="#E30011" cx="284.5" cy="69.2" r="1.9"/>
	<path fill="#FFFFFF" d="M180.7,280.7h-42.2c-4.3,0-7.9-3.5-7.9-7.9v-39.7c0-4.3,3.5-7.9,7.9-7.9h42.2c4.3,0,7.9,3.5,7.9,7.9v39.7
		C188.6,277.2,185,280.7,180.7,280.7z"/>
	<path fill="#E30011" d="M180.7,282.4h-42.2c-5.3,0-9.6-4.3-9.6-9.6v-39.7c0-5.3,4.3-9.6,9.6-9.6h42.2c5.3,0,9.6,4.3,9.6,9.6v39.7
		C190.3,278.1,186,282.4,180.7,282.4z M138.5,227c-3.4,0-6.2,2.8-6.2,6.2v39.7c0,3.4,2.8,6.2,6.2,6.2h42.2c3.4,0,6.2-2.8,6.2-6.2
		v-39.7c0-3.4-2.8-6.2-6.2-6.2H138.5z"/>
	<path fill="#FFFFFF" d="M122.8,280.7H80.6c-4.3,0-7.9-3.5-7.9-7.9v-39.7c0-4.3,3.5-7.9,7.9-7.9h42.2c4.3,0,7.9,3.5,7.9,7.9v39.7
		C130.6,277.2,127.1,280.7,122.8,280.7z"/>
	<path fill="#E30011" d="M122.8,282.4H80.6c-5.3,0-9.6-4.3-9.6-9.6v-39.7c0-5.3,4.3-9.6,9.6-9.6h42.2c5.3,0,9.6,4.3,9.6,9.6v39.7
		C132.3,278.1,128,282.4,122.8,282.4z M80.6,227c-3.4,0-6.2,2.8-6.2,6.2v39.7c0,3.4,2.8,6.2,6.2,6.2h42.2c3.4,0,6.2-2.8,6.2-6.2
		v-39.7c0-3.4-2.8-6.2-6.2-6.2H80.6z"/>
	<path fill="#FFFFFF" d="M64.8,280.7H22.6c-4.3,0-7.9-3.5-7.9-7.9v-83.1c0-4.3,3.5-7.9,7.9-7.9h42.2c4.3,0,7.9,3.5,7.9,7.9v83.1
		C72.7,277.2,69.2,280.7,64.8,280.7z"/>
	<path fill="#E30011" d="M64.8,282.4H22.6c-5.3,0-9.6-4.3-9.6-9.6v-83.1c0-5.3,4.3-9.6,9.6-9.6h42.2c5.3,0,9.6,4.3,9.6,9.6v83.1
		C74.4,278.1,70.1,282.4,64.8,282.4z M22.6,183.6c-3.4,0-6.2,2.8-6.2,6.2v83.1c0,3.4,2.8,6.2,6.2,6.2h42.2c3.4,0,6.2-2.8,6.2-6.2
		v-83.1c0-3.4-2.8-6.2-6.2-6.2H22.6z"/>
	<path fill="#FFFFFF" d="M8.4,182.2c3.5,0,6.3,2.8,6.3,6.3v86.2h171.2c3.5,0,6.3,2.8,6.3,6.3c0,3.5-2.8,6.3-6.3,6.3H8.4
		c-2.5,0-6.3-1-6.3-6.3v-92.5C2.1,185,4.9,182.2,8.4,182.2z"/>
	<path fill="#E30011" d="M185.9,289.1H8.4c-3.9,0-8-2.1-8-8v-92.6c0-4.4,3.6-8,8-8c4.4,0,8,3.6,8,8v84.5h169.5c4.4,0,8,3.6,8,8
		S190.3,289.1,185.9,289.1z M8.4,183.9c-2.5,0-4.6,2.1-4.6,4.6v92.6c0,3.1,1.6,4.6,4.6,4.6h177.5c2.5,0,4.6-2.1,4.6-4.6
		s-2.1-4.6-4.6-4.6H13.1v-87.9C13.1,186,11,183.9,8.4,183.9z"/>
	<path fill="#E30011" d="M168.7,212.3H81.2v-68.5h87.4V212.3z M84.6,208.9h80.6v-61.8H84.6V208.9z"/>
	<path fill="#E30011" d="M20.4,80.1H6.7c-1.6,0-2.9-1.3-2.9-2.9V76c0-1.6,1.3-2.9,2.9-2.9h13.7V75H6.7c-0.6,0-1,0.5-1,1v1.2
		c0,0.6,0.5,1,1,1h13.7V80.1z"/>
	<path fill="#E30011" d="M18.5,75H6.7C5,75,3.7,73.7,3.7,72v-1.2C3.7,69.3,5,68,6.7,68h13.7v1.9H6.7c-0.6,0-1,0.5-1,1V72
		c0,0.6,0.5,1,1,1h11.8V75z"/>
	<path fill="#E30011" d="M20.4,69.8H6.7c-1.6,0-2.9-1.3-2.9-2.9v-1.2c0-1.6,1.3-2.9,2.9-2.9h13.7v1.9H6.7c-0.6,0-1,0.5-1,1v1.2
		c0,0.6,0.5,1,1,1h13.7V69.8z"/>
	<path fill="#E30011" d="M20.4,64.7H6.7c-1.6,0-2.9-1.3-2.9-2.9v-1.2c0-1.6,1.3-2.9,2.9-2.9h13.7v1.9H6.7c-0.6,0-1,0.5-1,1v1.2
		c0,0.6,0.5,1,1,1h13.7V64.7z"/>
	<path fill="#E30011" d="M20.4,20.6H6.7c-1.6,0-2.9-1.3-2.9-2.9v-0.5c0-1.6,1.3-2.9,2.9-2.9h13.7v1.9H6.7c-0.6,0-1,0.5-1,1v0.5
		c0,0.6,0.5,1,1,1h13.7V20.6z"/>
	<circle fill="#FFFFFF" cx="127.4" cy="180.7" r="14.3"/>
	<path fill="#E30011" d="M127.4,195.9c-8.4,0-15.2-6.8-15.2-15.2c0-8.4,6.8-15.2,15.2-15.2s15.2,6.8,15.2,15.2
		C142.6,189.1,135.8,195.9,127.4,195.9z M127.4,167.4c-7.3,0-13.3,6-13.3,13.3c0,7.3,6,13.3,13.3,13.3c7.3,0,13.3-6,13.3-13.3
		C140.7,173.4,134.8,167.4,127.4,167.4z"/>
	<circle fill="#FFFFFF" cx="132.1" cy="181.3" r="6"/>
	<path fill="#E30011" d="M132.1,188.2c-3.8,0-6.9-3.1-6.9-6.9c0-3.8,3.1-6.9,6.9-6.9c3.8,0,6.9,3.1,6.9,6.9
		C139,185.1,135.9,188.2,132.1,188.2z M132.1,176.3c-2.8,0-5,2.3-5,5s2.3,5,5,5c2.8,0,5-2.3,5-5S134.9,176.3,132.1,176.3z"/>
	<circle fill="#FFFFFF" cx="119.7" cy="174.3" r="2.8"/>
	<path fill="#E30011" d="M119.7,178c-2,0-3.7-1.7-3.7-3.7c0-2,1.7-3.7,3.7-3.7c2,0,3.7,1.7,3.7,3.7C123.4,176.3,121.7,178,119.7,178
		z M119.7,172.5c-1,0-1.8,0.8-1.8,1.8s0.8,1.8,1.8,1.8c1,0,1.8-0.8,1.8-1.8S120.7,172.5,119.7,172.5z"/>
	<circle fill="#E30011" cx="128.8" cy="171.5" r="2.8"/>
	<circle fill="#FFFFFF" cx="122.5" cy="178.6" r="4.1"/>
	<path fill="#E30011" d="M122.5,183.6c-2.8,0-5.1-2.3-5.1-5.1s2.3-5.1,5.1-5.1s5.1,2.3,5.1,5.1S125.3,183.6,122.5,183.6z
		 M122.5,175.4c-1.8,0-3.2,1.4-3.2,3.2c0,1.8,1.4,3.2,3.2,3.2s3.2-1.4,3.2-3.2C125.6,176.8,124.2,175.4,122.5,175.4z"/>
	<circle fill="#525254" cx="173.7" cy="263.6" r="1.9"/>
	<circle fill="#FFFFFF" cx="124.7" cy="187.5" r="5"/>
	<path fill="#E30011" d="M124.7,193.4c-3.3,0-6-2.7-6-6c0-3.3,2.7-6,6-6c3.3,0,6,2.7,6,6C130.7,190.8,128,193.4,124.7,193.4z
		 M124.7,183.4c-2.2,0-4.1,1.8-4.1,4.1s1.8,4.1,4.1,4.1c2.2,0,4.1-1.8,4.1-4.1S127,183.4,124.7,183.4z"/>
	<circle fill="#E30011" cx="118.3" cy="182.7" r="2.8"/>
	<circle fill="#E30011" cx="132.2" cy="180" r="0.7"/>
	<circle fill="#E30011" cx="124" cy="190.1" r="0.7"/>
	<circle fill="#E30011" cx="122.5" cy="177" r="0.7"/>
	<path fill="#E30011" d="M132,183.7c-0.9,0-1.9-0.4-2.6-1.1c-0.6-0.7-0.9-1.6-0.9-2.5c0.1-0.9,0.5-1.7,1.1-2.4l1.3,1.4
		c-0.3,0.3-0.5,0.6-0.5,1.1c0,0.4,0.1,0.8,0.4,1.1c0.6,0.6,1.5,0.7,2.2,0.1l1.3,1.4C133.6,183.5,132.8,183.7,132,183.7z"/>
	<path fill="#FFFFFF" d="M16.5,235.7l-9.2,1.1c0,0-3.2,14.1,3.8,26.8c8.9,16.4,17.1,15.8,17.1,15.8l9-4.7c0,0-0.5-11.9-7.4-24.6
		C23.1,238.1,16.5,235.7,16.5,235.7z"/>
	<path fill="#E30011" d="M28.1,281.1c-1.4,0-9.8-0.7-18.5-16.7c-7.1-13.2-4.1-27.4-3.9-28l0.3-1.2l10.8-1.3l0.4,0.1
		c0.3,0.1,7.3,2.8,14.1,15.3c7,12.9,7.6,24.8,7.7,25.3l0,1.1l-10.3,5.3l-0.3,0C28.2,281.1,28.2,281.1,28.1,281.1z M8.7,238.3
		c-0.5,3.5-1.6,14.5,3.8,24.5c7.3,13.4,13.8,14.8,15.2,14.9l7.6-4c-0.3-3.1-1.7-12.7-7.2-22.8c-5.4-9.9-10.6-12.9-12-13.6L8.7,238.3
		z"/>
	<path fill="#FFFFFF" d="M185,268.1c0.9-0.7,1.7-1.4,2.3-2c1.8-1.9,1.3-4.9-0.9-6.2c-4.6-2.7-14.4-7.3-24.6-5.1
		c-14.3,3.1-21.3,11.5-23.7,15.1c-0.5,0.8-0.2,1.9,0.7,2.3l7.3,3.2c0,0,8.8,4.1,19.2,1.9C178.4,274.3,180.7,271.4,185,268.1z"/>
	<path fill="#E30011" d="M158.8,279.5c-7.6,0-13.2-2.6-13.5-2.7l-7.3-3.1c-0.9-0.4-1.5-1.1-1.8-2.1c-0.3-0.9-0.1-1.9,0.4-2.7
		c2.5-3.7,9.9-12.6,24.8-15.8c10.7-2.3,20.8,2.3,25.8,5.2c1.5,0.9,2.5,2.4,2.8,4.2c0.2,1.7-0.3,3.4-1.5,4.7
		c-0.7,0.7-1.5,1.4-2.5,2.2c-0.5,0.4-1,0.8-1.5,1.2c-3.6,2.9-7,5.6-19,8.2C163.2,279.3,160.9,279.5,158.8,279.5z M139.6,270.7
		l7.1,3.1c0.1,0.1,8.5,3.9,18.1,1.8c11.2-2.4,14.1-4.8,17.6-7.5c0.5-0.4,1-0.8,1.6-1.2l0,0c0.8-0.6,1.5-1.2,2.1-1.8
		c0.5-0.5,0.7-1.2,0.6-1.9c-0.1-0.7-0.5-1.4-1.1-1.7c-4.6-2.7-13.8-6.9-23.4-4.9C148.7,259.4,141.9,267.2,139.6,270.7z"/>
	<path fill="#E30011" d="M30.1,255.6l-5.5-1.4c0,0,2.3,15.5,11.1,21.1c8.4,5.4,16.1,4.6,16.1,4.6l6.8-0.5l-2.5-5.4
		c0,0-4.2-7.5-12.8-13.4C35.2,255.1,30.1,255.6,30.1,255.6z"/>
	<circle fill="#E30011" cx="14.8" cy="246.7" r="1.9"/>
	<circle fill="#E30011" cx="21.9" cy="249.6" r="1.9"/>
	<circle fill="#E30011" cx="21.9" cy="262" r="1.9"/>
	<circle fill="#E30011" cx="27.5" cy="273.4" r="1.9"/>
	<circle fill="#E30011" cx="12.8" cy="255.9" r="1.9"/>
	<circle fill="#E30011" cx="158.3" cy="261.7" r="1.9"/>
	<circle fill="#E30011" cx="168.3" cy="270" r="1.9"/>
	<circle fill="#E30011" cx="178.4" cy="261.7" r="1.9"/>
	<circle fill="#E30011" cx="159.6" cy="273.4" r="1.9"/>
	<circle fill="#E30011" cx="149.9" cy="268.1" r="1.9"/>
	<circle fill="#E30011" cx="168.1" cy="261.7" r="1.9"/>
	<polygon fill="#E30011" points="95.5,221.1 86.9,220.3 87,210.5 90.4,210.5 90.3,217.3 92.8,217.5 94.5,210.1 97.8,210.8 	"/>
	<polygon fill="#E30011" points="162.6,221.2 154,220.4 151.9,210.8 155.2,210.1 156.8,217.2 159.3,217.4 159.3,210.4 162.7,210.5 	
		"/>
	<polygon fill="#E30011" points="154.4,145.3 151.1,144.6 153.4,134.3 162,135.1 161.9,145 158.5,144.9 158.6,138.2 156.1,137.9 	
		"/>
	<polygon fill="#E30011" points="93.6,145.3 92.1,138.2 89.6,138 89.5,145 86.2,145 86.3,134.3 94.9,135 97,144.6 	"/>
	<path fill="#E30011" d="M18.8,20.5c-2.1-2.6-0.9-4.9,0.1-5.7l1.2,1.4l-0.6-0.7l0.6,0.7c-0.2,0.2-1.3,1.4,0.1,3.1L18.8,20.5z"/>
	<path fill="#E30011" d="M18.8,64c-2.1-2.6-0.9-4.9,0.1-5.7l1.2,1.4L19.5,59l0.6,0.7c-0.2,0.2-1.3,1.4,0.1,3.1L18.8,64z"/>
	<path fill="#E30011" d="M18.8,69.1c-2.1-2.6-0.9-4.9,0.1-5.7l1.2,1.4l-0.6-0.7l0.6,0.7c-0.2,0.2-1.3,1.4,0.1,3.1L18.8,69.1z"/>
	<path fill="#E30011" d="M18.8,79.4c-1.9-2.3-1.1-4.4-0.2-5.4c-1.8-2.5-0.6-4.6,0.3-5.5l1.3,1.4c-0.2,0.2-1.3,1.4,0.1,3.1l0.2,0.3
		v1.5l-0.3,0.3c-0.2,0.2-1.3,1.4,0.1,3.1L18.8,79.4z"/>
	<path fill="#E30011" d="M16.8,38.9H5.4V23.7h11.4V38.9z M7.3,37H15V25.6H7.3V37z"/>
	<path fill="#E30011" d="M11.1,34.7c-1.9,0-3.4-1.5-3.4-3.4c0-1.9,1.5-3.4,3.4-3.4s3.4,1.5,3.4,3.4C14.5,33.2,13,34.7,11.1,34.7z
		 M11.1,29.8c-0.8,0-1.5,0.7-1.5,1.5c0,0.8,0.7,1.5,1.5,1.5c0.8,0,1.5-0.7,1.5-1.5C12.7,30.5,12,29.8,11.1,29.8z"/>
	<rect x="21.8" y="6.4" fill="#E30011" width="3.3" height="96.5"/>
	<path fill="#E30011" d="M24,104.6H0V5h24.4l6.4,12.1v81.3L24,104.6z M3.3,101.3h19.5l4.8-4.4v-79l-5.1-9.6H3.3V101.3z"/>
	<path fill="#FFFFFF" d="M220.6,8.9h-42.2c-4.3,0-7.9,3.5-7.9,7.9v39.7c0,4.3,3.5,7.9,7.9,7.9h42.2c4.3,0,7.9-3.5,7.9-7.9V16.7
		C228.5,12.4,225,8.9,220.6,8.9z"/>
	<path fill="#E30011" d="M220.6,66h-42.2c-5.3,0-9.6-4.3-9.6-9.6V16.7c0-5.3,4.3-9.6,9.6-9.6h42.2c5.3,0,9.6,4.3,9.6,9.6v39.7
		C230.2,61.7,225.9,66,220.6,66z M178.4,10.6c-3.4,0-6.2,2.8-6.2,6.2v39.7c0,3.4,2.8,6.2,6.2,6.2h42.2c3.4,0,6.2-2.8,6.2-6.2V16.7
		c0-3.4-2.8-6.2-6.2-6.2H178.4z"/>
	<path fill="#FFFFFF" d="M176.2,60.2c0,3.1-2.5,5.7-5.7,5.7s-5.7-2.5-5.7-5.7V13c0-3.1,2.5-5.7,5.7-5.7s5.7,2.5,5.7,5.7V60.2z"/>
	<path fill="#E30011" d="M170.6,67.5c-4.1,0-7.4-3.3-7.4-7.4V13c0-4.1,3.3-7.4,7.4-7.4c4.1,0,7.4,3.3,7.4,7.4v47.2
		C177.9,64.2,174.6,67.5,170.6,67.5z M170.6,9.1c-2.2,0-4,1.8-4,4v47.2c0,2.2,1.8,4,4,4c2.2,0,4-1.8,4-4V13
		C174.5,10.8,172.7,9.1,170.6,9.1z"/>
	<path fill="#FFFFFF" d="M234.2,60.2c0,3.1-2.5,5.7-5.7,5.7c-3.1,0-5.7-2.5-5.7-5.7V13c0-3.1,2.5-5.7,5.7-5.7c3.1,0,5.7,2.5,5.7,5.7
		V60.2z"/>
	<path fill="#E30011" d="M228.5,67.5c-4.1,0-7.4-3.3-7.4-7.4V13c0-4.1,3.3-7.4,7.4-7.4c4.1,0,7.4,3.3,7.4,7.4v47.2
		C235.8,64.2,232.5,67.5,228.5,67.5z M228.5,9.1c-2.2,0-4,1.8-4,4v47.2c0,2.2,1.8,4,4,4c2.2,0,4-1.8,4-4V13
		C232.5,10.8,230.7,9.1,228.5,9.1z"/>
	<path fill="#FFFFFF" d="M176.2,13c-3.1,0-5.7-2.5-5.7-5.7c0-3.1,2.5-5.7,5.7-5.7h47.2c3.1,0,5.7,2.5,5.7,5.7c0,3.1-2.5,5.7-5.7,5.7
		H176.2z"/>
	<path fill="#E30011" d="M223.4,14.7h-47.2c-4.1,0-7.4-3.3-7.4-7.4s3.3-7.4,7.4-7.4h47.2c4.1,0,7.4,3.3,7.4,7.4
		S227.4,14.7,223.4,14.7z M176.2,3.4c-2.2,0-4,1.8-4,4s1.8,4,4,4h47.2c2.2,0,4-1.8,4-4s-1.8-4-4-4H176.2z"/>
	<rect x="176.2" y="17.7" fill="#E30011" width="46.1" height="3.4"/>
	<path fill="#E30011" d="M198.6,10.8l-7,0.7c0,0,3.8,15.2,13.9,19.7c13,5.8,24.9,1.7,24.9,1.7l-3.2-6.4c0,0-1-7.3-11.1-11.7
		C206.6,10.5,198.6,10.8,198.6,10.8z"/>
</g>
<g id="Слой_2" display="none">
	<g display="inline">
		<g>
			<g>
				<circle fill="#FFFFFF" cx="263.3" cy="69.2" r="47.7"/>
				<path fill="#E30011" d="M263.3,118.6c-27.2,0-49.4-22.2-49.4-49.4s22.2-49.4,49.4-49.4c27.2,0,49.4,22.2,49.4,49.4
					S290.5,118.6,263.3,118.6z M263.3,23.2c-25.4,0-46,20.6-46,46c0,25.4,20.6,46,46,46c25.4,0,46-20.6,46-46
					C309.3,43.8,288.6,23.2,263.3,23.2z"/>
			</g>
		</g>
		<circle fill="#E30011" cx="252.4" cy="84" r="1.9"/>
		<circle fill="#E30011" cx="257.3" cy="72.7" r="1.9"/>
		<circle fill="#E30011" cx="268.4" cy="82.1" r="1.9"/>
		<circle fill="#E30011" cx="259.2" cy="94.2" r="1.9"/>
		<circle fill="#E30011" cx="234.5" cy="97.5" r="1.9"/>
		<circle fill="#E30011" cx="240.2" cy="89.4" r="1.9"/>
		<circle fill="#E30011" cx="230.3" cy="84" r="1.9"/>
		<circle fill="#E30011" cx="268.4" cy="48.1" r="1.9"/>
		<circle fill="#E30011" cx="273" cy="64.9" r="1.9"/>
		<circle fill="#E30011" cx="242.7" cy="72.9" r="1.9"/>
		<circle fill="#E30011" cx="254.4" cy="46.2" r="1.9"/>
		<circle fill="#E30011" cx="224.5" cy="51.8" r="1.9"/>
		<circle fill="#E30011" cx="242.7" cy="53.8" r="1.9"/>
		<circle fill="#E30011" cx="230.3" cy="64.5" r="1.9"/>
		<circle fill="#E30011" cx="224.5" cy="72.7" r="1.9"/>
		<circle fill="#E30011" cx="249" cy="102.9" r="1.9"/>
		<circle fill="#E30011" cx="268.4" cy="102.9" r="1.9"/>
		<circle fill="#E30011" cx="259.8" cy="109.8" r="1.9"/>
		<circle fill="#E30011" cx="284.9" cy="82.1" r="1.9"/>
		<circle fill="#E30011" cx="284.9" cy="94.2" r="1.9"/>
		<circle fill="#E30011" cx="282.9" cy="104.9" r="1.9"/>
		<circle fill="#E30011" cx="295.3" cy="89.4" r="1.9"/>
		<circle fill="#E30011" cx="295.3" cy="62.9" r="1.9"/>
		<circle fill="#E30011" cx="293.4" cy="48.1" r="1.9"/>
		<circle fill="#E30011" cx="279.9" cy="33.7" r="1.9"/>
		<circle fill="#E30011" cx="266.6" cy="35.7" r="1.9"/>
		<circle fill="#E30011" cx="254.4" cy="33.7" r="1.9"/>
		<circle fill="#E30011" cx="242.1" cy="37.6" r="1.9"/>
		<circle fill="#E30011" cx="299.6" cy="78.4" r="1.9"/>
		<circle fill="#E30011" cx="261.8" cy="57.5" r="1.9"/>
		<circle fill="#E30011" cx="281.9" cy="51.8" r="1.9"/>
		<circle fill="#E30011" cx="284.9" cy="69.2" r="1.9"/>
		<path fill="#E30011" d="M169,212.2H81.6v-68.5H169V212.2z M85,208.8h80.6v-61.8H85V208.8z"/>
		<g>
			<circle fill="#FFFFFF" cx="127.8" cy="180.7" r="14.3"/>
			<path fill="#E30011" d="M127.8,195.9c-8.4,0-15.2-6.8-15.2-15.2c0-8.4,6.8-15.2,15.2-15.2s15.2,6.8,15.2,15.2
				C142.9,189.1,136.1,195.9,127.8,195.9z M127.8,167.4c-7.3,0-13.3,6-13.3,13.3c0,7.3,6,13.3,13.3,13.3s13.3-6,13.3-13.3
				C141.1,173.4,135.1,167.4,127.8,167.4z"/>
		</g>
		<g>
			<circle fill="#FFFFFF" cx="132.5" cy="181.3" r="6"/>
			<path fill="#E30011" d="M132.5,188.2c-3.8,0-6.9-3.1-6.9-6.9c0-3.8,3.1-6.9,6.9-6.9c3.8,0,6.9,3.1,6.9,6.9
				C139.4,185.1,136.3,188.2,132.5,188.2z M132.5,176.3c-2.8,0-5,2.3-5,5s2.3,5,5,5c2.8,0,5-2.3,5-5S135.2,176.3,132.5,176.3z"/>
		</g>
		<g>
			<circle fill="#FFFFFF" cx="120" cy="174.3" r="2.8"/>
			<path fill="#E30011" d="M120,178c-2,0-3.7-1.7-3.7-3.7c0-2,1.7-3.7,3.7-3.7c2,0,3.7,1.7,3.7,3.7C123.7,176.3,122.1,178,120,178z
				 M120,172.4c-1,0-1.8,0.8-1.8,1.8s0.8,1.8,1.8,1.8s1.8-0.8,1.8-1.8S121,172.4,120,172.4z"/>
		</g>
		<circle fill="#E30011" cx="129.2" cy="171.5" r="2.8"/>
		<g>
			<circle fill="#FFFFFF" cx="122.8" cy="178.6" r="4.1"/>
			<path fill="#E30011" d="M122.8,183.6c-2.8,0-5.1-2.3-5.1-5.1s2.3-5.1,5.1-5.1s5.1,2.3,5.1,5.1S125.6,183.6,122.8,183.6z
				 M122.8,175.4c-1.8,0-3.2,1.4-3.2,3.2c0,1.8,1.4,3.2,3.2,3.2s3.2-1.4,3.2-3.2C126,176.8,124.6,175.4,122.8,175.4z"/>
		</g>
		<circle fill="#525254" cx="174" cy="263.6" r="1.9"/>
		<g>
			<circle fill="#FFFFFF" cx="125.1" cy="187.4" r="5"/>
			<path fill="#E30011" d="M125.1,193.4c-3.3,0-6-2.7-6-6c0-3.3,2.7-6,6-6c3.3,0,6,2.7,6,6C131,190.7,128.3,193.4,125.1,193.4z
				 M125.1,183.4c-2.2,0-4.1,1.8-4.1,4.1s1.8,4.1,4.1,4.1s4.1-1.8,4.1-4.1S127.3,183.4,125.1,183.4z"/>
		</g>
		<circle fill="#E30011" cx="118.7" cy="182.7" r="2.8"/>
		<circle fill="#E30011" cx="132.6" cy="179.9" r="0.7"/>
		<circle fill="#E30011" cx="124.4" cy="190" r="0.7"/>
		<circle fill="#E30011" cx="122.8" cy="177" r="0.7"/>
		<path fill="#E30011" d="M132.3,183.7c-0.9,0-1.9-0.4-2.6-1.1c-0.6-0.7-0.9-1.6-0.9-2.5c0.1-0.9,0.5-1.7,1.1-2.4l1.3,1.4
			c-0.3,0.3-0.5,0.6-0.5,1.1c0,0.4,0.1,0.8,0.4,1.1c0.6,0.6,1.5,0.7,2.2,0.1l1.3,1.4C133.9,183.4,133.1,183.7,132.3,183.7z"/>
		<polygon fill="#E30011" points="95.8,221.1 87.2,220.3 87.3,210.4 90.7,210.5 90.6,217.2 93.1,217.5 94.8,210.1 98.1,210.8 		"/>
		<polygon fill="#E30011" points="163,221.1 154.3,220.4 152.3,210.8 155.6,210.1 157.1,217.2 159.6,217.4 159.7,210.4 163.1,210.4 
					"/>
		<polygon fill="#E30011" points="154.8,145.3 151.5,144.6 153.8,134.3 162.4,135.1 162.3,144.9 158.9,144.9 158.9,138.1 
			156.4,137.9 		"/>
		<polygon fill="#E30011" points="94,145.3 92.4,138.2 90,138 89.9,145 86.5,144.9 86.6,134.2 95.2,135 97.3,144.6 		"/>
		<g>
			<g>
				<path fill="#FFFFFF" d="M221,8.9h-42.2c-4.3,0-7.9,3.5-7.9,7.9v39.7c0,4.3,3.5,7.9,7.9,7.9H221c4.3,0,7.9-3.5,7.9-7.9V16.7
					C228.8,12.4,225.3,8.9,221,8.9z"/>
				<path fill="#E30011" d="M221,66h-42.2c-5.3,0-9.6-4.3-9.6-9.6V16.7c0-5.3,4.3-9.6,9.6-9.6H221c5.3,0,9.6,4.3,9.6,9.6v39.7
					C230.5,61.7,226.2,66,221,66z M178.8,10.6c-3.4,0-6.2,2.8-6.2,6.2v39.7c0,3.4,2.8,6.2,6.2,6.2H221c3.4,0,6.2-2.8,6.2-6.2V16.7
					c0-3.4-2.8-6.2-6.2-6.2H178.8z"/>
			</g>
			<g>
				<path fill="#FFFFFF" d="M176.6,60.2c0,3.1-2.5,5.7-5.7,5.7s-5.7-2.5-5.7-5.7V13c0-3.1,2.5-5.7,5.7-5.7s5.7,2.5,5.7,5.7V60.2z"/>
				<path fill="#E30011" d="M170.9,67.5c-4.1,0-7.4-3.3-7.4-7.4V13c0-4.1,3.3-7.4,7.4-7.4c4.1,0,7.4,3.3,7.4,7.4v47.2
					C178.2,64.2,175,67.5,170.9,67.5z M170.9,9c-2.2,0-4,1.8-4,4v47.2c0,2.2,1.8,4,4,4c2.2,0,4-1.8,4-4V13
					C174.9,10.8,173.1,9,170.9,9z"/>
			</g>
			<g>
				<path fill="#FFFFFF" d="M234.5,60.2c0,3.1-2.5,5.7-5.7,5.7c-3.1,0-5.7-2.5-5.7-5.7V13c0-3.1,2.5-5.7,5.7-5.7
					c3.1,0,5.7,2.5,5.7,5.7V60.2z"/>
				<path fill="#E30011" d="M228.8,67.5c-4.1,0-7.4-3.3-7.4-7.4V13c0-4.1,3.3-7.4,7.4-7.4c4.1,0,7.4,3.3,7.4,7.4v47.2
					C236.2,64.2,232.9,67.5,228.8,67.5z M228.8,9c-2.2,0-4,1.8-4,4v47.2c0,2.2,1.8,4,4,4c2.2,0,4-1.8,4-4V13
					C232.8,10.8,231,9,228.8,9z"/>
			</g>
			<g>
				<path fill="#FFFFFF" d="M176.6,13c-3.1,0-5.7-2.5-5.7-5.7c0-3.1,2.5-5.7,5.7-5.7h47.2c3.1,0,5.7,2.5,5.7,5.7
					c0,3.1-2.5,5.7-5.7,5.7H176.6z"/>
				<path fill="#E30011" d="M223.7,14.7h-47.2c-4.1,0-7.4-3.3-7.4-7.4s3.3-7.4,7.4-7.4h47.2c4.1,0,7.4,3.3,7.4,7.4
					S227.8,14.7,223.7,14.7z M176.6,3.4c-2.2,0-4,1.8-4,4s1.8,4,4,4h47.2c2.2,0,4-1.8,4-4s-1.8-4-4-4H176.6z"/>
			</g>
		</g>
		<rect x="176.6" y="17.7" fill="#E30011" width="46.1" height="3.4"/>
		<path fill="#E30011" d="M199.8,11.4l-7,0.7c0,0,3.8,15.2,13.9,19.7c13,5.8,24.9,1.7,24.9,1.7l-3.2-6.4c0,0-1-7.3-11.1-11.7
			C207.7,11.2,199.8,11.4,199.8,11.4z"/>
		<g>
			<g>
				<path fill="#FFFFFF" d="M181,280.7h-42.2c-4.3,0-7.9-3.5-7.9-7.9v-39.7c0-4.3,3.5-7.9,7.9-7.9H181c4.3,0,7.9,3.5,7.9,7.9v39.7
					C188.9,277.2,185.4,280.7,181,280.7z"/>
				<path fill="#E30011" d="M181,282.4h-42.2c-5.3,0-9.6-4.3-9.6-9.6v-39.7c0-5.3,4.3-9.6,9.6-9.6H181c5.3,0,9.6,4.3,9.6,9.6v39.7
					C190.6,278.1,186.3,282.4,181,282.4z M138.8,227c-3.4,0-6.2,2.8-6.2,6.2v39.7c0,3.4,2.8,6.2,6.2,6.2H181c3.4,0,6.2-2.8,6.2-6.2
					v-39.7c0-3.4-2.8-6.2-6.2-6.2H138.8z"/>
			</g>
			<g>
				<path fill="#FFFFFF" d="M123.1,280.7H80.9c-4.3,0-7.9-3.5-7.9-7.9v-39.7c0-4.3,3.5-7.9,7.9-7.9h42.2c4.3,0,7.9,3.5,7.9,7.9v39.7
					C131,277.2,127.4,280.7,123.1,280.7z"/>
				<path fill="#E30011" d="M123.1,282.4H80.9c-5.3,0-9.6-4.3-9.6-9.6v-39.7c0-5.3,4.3-9.6,9.6-9.6h42.2c5.3,0,9.6,4.3,9.6,9.6v39.7
					C132.7,278.1,128.4,282.4,123.1,282.4z M80.9,227c-3.4,0-6.2,2.8-6.2,6.2v39.7c0,3.4,2.8,6.2,6.2,6.2h42.2
					c3.4,0,6.2-2.8,6.2-6.2v-39.7c0-3.4-2.8-6.2-6.2-6.2H80.9z"/>
			</g>
			<g>
				<path fill="#FFFFFF" d="M65.2,280.7H23c-4.3,0-7.9-3.5-7.9-7.9v-83.1c0-4.3,3.5-7.9,7.9-7.9h42.2c4.3,0,7.9,3.5,7.9,7.9v83.1
					C73,277.2,69.5,280.7,65.2,280.7z"/>
				<path fill="#E30011" d="M65.2,282.4H23c-5.3,0-9.6-4.3-9.6-9.6v-83.1c0-5.3,4.3-9.6,9.6-9.6h42.2c5.3,0,9.6,4.3,9.6,9.6v83.1
					C74.7,278.1,70.4,282.4,65.2,282.4z M23,183.6c-3.4,0-6.2,2.8-6.2,6.2v83.1c0,3.4,2.8,6.2,6.2,6.2h42.2c3.4,0,6.2-2.8,6.2-6.2
					v-83.1c0-3.4-2.8-6.2-6.2-6.2H23z"/>
			</g>
			<g>
				<path fill="#FFFFFF" d="M8.8,182.2c3.5,0,6.3,2.8,6.3,6.3v86.2h171.2c3.5,0,6.3,2.8,6.3,6.3s-2.8,6.3-6.3,6.3H8.8
					c-2.5,0-6.3-1-6.3-6.3v-92.5C2.5,185,5.3,182.2,8.8,182.2z"/>
				<path fill="#E30011" d="M186.3,289.1H8.8c-3.9,0-8-2.1-8-8v-92.5c0-4.4,3.6-8,8-8c4.4,0,8,3.6,8,8V273h169.5c4.4,0,8,3.6,8,8
					S190.7,289.1,186.3,289.1z M8.8,183.9c-2.5,0-4.6,2.1-4.6,4.6v92.5c0,3.1,1.6,4.6,4.6,4.6h177.5c2.5,0,4.6-2.1,4.6-4.6
					s-2.1-4.6-4.6-4.6H13.4v-87.9C13.4,186,11.3,183.9,8.8,183.9z"/>
			</g>
		</g>
		<g>
			<path fill="#FFFFFF" d="M16.8,235.6l-9.2,1.1c0,0-3.2,14.1,3.8,26.8c8.9,16.4,17.1,15.8,17.1,15.8l9-4.7c0,0-0.5-11.9-7.4-24.6
				C23.4,238.1,16.8,235.6,16.8,235.6z"/>
			<path fill="#E30011" d="M28.4,281.1c-1.4,0-9.8-0.7-18.5-16.7c-7.1-13.2-4.1-27.4-3.9-28l0.3-1.2l10.8-1.3l0.4,0.1
				c0.3,0.1,7.3,2.8,14.1,15.3c7,12.9,7.6,24.8,7.7,25.3l0,1.1l-10.3,5.3l-0.4,0C28.6,281.1,28.5,281.1,28.4,281.1z M9.1,238.3
				c-0.5,3.5-1.6,14.5,3.8,24.5c7.2,13.3,13.8,14.7,15.2,14.9l7.6-3.9c-0.3-3.1-1.7-12.7-7.2-22.8c-5.4-9.9-10.6-12.9-12-13.6
				L9.1,238.3z"/>
		</g>
		<g>
			<path fill="#FFFFFF" d="M185.3,268.1c0.9-0.7,1.7-1.4,2.3-2c1.8-1.9,1.3-4.9-0.9-6.2c-4.6-2.7-14.4-7.3-24.6-5.1
				c-14.3,3.1-21.3,11.5-23.7,15.1c-0.5,0.8-0.2,1.9,0.7,2.3l7.3,3.2c0,0,8.8,4.1,19.2,1.9C178.7,274.3,181,271.4,185.3,268.1z"/>
			<path fill="#E30011" d="M159.1,279.5c-7.6,0-13.2-2.6-13.5-2.7l-7.3-3.1c-0.9-0.4-1.5-1.1-1.8-2.1c-0.3-0.9-0.1-1.9,0.4-2.7
				c2.5-3.7,9.9-12.6,24.8-15.8c10.7-2.3,20.8,2.3,25.8,5.2c1.5,0.9,2.5,2.4,2.8,4.2c0.2,1.7-0.3,3.4-1.5,4.7
				c-0.7,0.7-1.5,1.4-2.5,2.2l0,0c-0.5,0.4-1,0.8-1.5,1.2c-3.6,2.9-7,5.6-19,8.2C163.5,279.3,161.2,279.5,159.1,279.5z M139.9,270.6
				l7.1,3.1c0.1,0.1,8.5,3.9,18.1,1.8c11.2-2.4,14.1-4.8,17.6-7.5c0.5-0.4,1-0.8,1.6-1.2c0.8-0.6,1.5-1.2,2.1-1.8
				c0.5-0.5,0.7-1.2,0.6-1.9c-0.1-0.7-0.5-1.3-1.1-1.7c-4.6-2.7-13.8-6.9-23.4-4.9C149,259.3,142.3,267.2,139.9,270.6z"/>
		</g>
		<path fill="#E30011" d="M30.5,255.6l-5.5-1.4c0,0,2.3,15.5,11.1,21.1c8.4,5.4,16.1,4.6,16.1,4.6l6.8-0.5l-2.5-5.4
			c0,0-4.2-7.5-12.8-13.4C35.5,255.1,30.5,255.6,30.5,255.6z"/>
		<circle fill="#E30011" cx="15.1" cy="245.7" r="1.9"/>
		<circle fill="#E30011" cx="22.2" cy="249.6" r="1.9"/>
		<circle fill="#E30011" cx="22.2" cy="262" r="1.9"/>
		<circle fill="#E30011" cx="27.8" cy="273.3" r="1.9"/>
		<circle fill="#E30011" cx="13.2" cy="254.9" r="1.9"/>
		<circle fill="#E30011" cx="158.6" cy="261.7" r="1.9"/>
		<circle fill="#E30011" cx="168.7" cy="270" r="1.9"/>
		<circle fill="#E30011" cx="178.7" cy="261.7" r="1.9"/>
		<circle fill="#E30011" cx="159.9" cy="273.3" r="1.9"/>
		<circle fill="#E30011" cx="150.3" cy="268.1" r="1.9"/>
		<circle fill="#E30011" cx="168.4" cy="261.7" r="1.9"/>
	</g>
	<path display="inline" fill="#E30011" d="M20.4,80.1H6.7c-1.6,0-2.9-1.3-2.9-2.9V76c0-1.6,1.3-2.9,2.9-2.9h13.7V75H6.7
		c-0.6,0-1,0.5-1,1v1.2c0,0.6,0.5,1,1,1h13.7V80.1z"/>
	<path display="inline" fill="#E30011" d="M18.5,75H6.7C5,75,3.7,73.7,3.7,72v-1.2C3.7,69.3,5,68,6.7,68h13.7v1.9H6.7
		c-0.6,0-1,0.5-1,1V72c0,0.6,0.5,1,1,1h11.8V75z"/>
	<path display="inline" fill="#E30011" d="M20.4,69.8H6.7c-1.6,0-2.9-1.3-2.9-2.9v-1.2c0-1.6,1.3-2.9,2.9-2.9h13.7v1.9H6.7
		c-0.6,0-1,0.5-1,1v1.2c0,0.6,0.5,1,1,1h13.7V69.8z"/>
	<path display="inline" fill="#E30011" d="M20.4,64.7H6.7c-1.6,0-2.9-1.3-2.9-2.9v-1.2c0-1.6,1.3-2.9,2.9-2.9h13.7v1.9H6.7
		c-0.6,0-1,0.5-1,1v1.2c0,0.6,0.5,1,1,1h13.7V64.7z"/>
	<path display="inline" fill="#E30011" d="M20.4,20.6H6.7c-1.6,0-2.9-1.3-2.9-2.9v-0.5c0-1.6,1.3-2.9,2.9-2.9h13.7v1.9H6.7
		c-0.6,0-1,0.5-1,1v0.5c0,0.6,0.5,1,1,1h13.7V20.6z"/>
	<path display="inline" fill="#E30011" d="M18.8,20.5c-2.1-2.6-0.9-4.9,0.1-5.7l1.2,1.4l-0.6-0.7l0.6,0.7c-0.2,0.2-1.3,1.4,0.1,3.1
		L18.8,20.5z"/>
	<path display="inline" fill="#E30011" d="M18.8,64c-2.1-2.6-0.9-4.9,0.1-5.7l1.2,1.4L19.5,59l0.6,0.7c-0.2,0.2-1.3,1.4,0.1,3.1
		L18.8,64z"/>
	<path display="inline" fill="#E30011" d="M18.8,69.1c-2.1-2.6-0.9-4.9,0.1-5.7l1.2,1.4l-0.6-0.7l0.6,0.7c-0.2,0.2-1.3,1.4,0.1,3.1
		L18.8,69.1z"/>
	<path display="inline" fill="#E30011" d="M18.8,79.4c-1.9-2.3-1.1-4.4-0.2-5.4c-1.8-2.5-0.6-4.6,0.3-5.5l1.3,1.4
		c-0.2,0.2-1.3,1.4,0.1,3.1l0.2,0.3v1.5l-0.3,0.3c-0.2,0.2-1.3,1.4,0.1,3.1L18.8,79.4z"/>
	<path display="inline" fill="#E30011" d="M16.8,38.9H5.4V23.7h11.4V38.9z M7.3,37H15V25.6H7.3V37z"/>
	<path display="inline" fill="#E30011" d="M11.1,34.7c-1.9,0-3.4-1.5-3.4-3.4c0-1.9,1.5-3.4,3.4-3.4s3.4,1.5,3.4,3.4
		C14.5,33.2,13,34.7,11.1,34.7z M11.1,29.8c-0.8,0-1.5,0.7-1.5,1.5c0,0.8,0.7,1.5,1.5,1.5c0.8,0,1.5-0.7,1.5-1.5
		C12.7,30.5,12,29.8,11.1,29.8z"/>
	<rect x="21.8" y="6.4" display="inline" fill="#E30011" width="3.3" height="96.5"/>
	<path display="inline" fill="#E30011" d="M24,104.6H0V5h24.4l6.4,12.1v81.3L24,104.6z M3.3,101.3h19.5l4.8-4.4v-79l-5.1-9.6H3.3
		V101.3z"/>
</g>
<g id="Слой_4" display="none">
	
		<rect x="-5.5" y="-15.3" display="inline" fill="none" stroke="#E84918" stroke-width="0.2501" stroke-miterlimit="10" width="341" height="312.8"/>
</g>
</svg>
